<svg width="310" height="48" viewBox="0 0 310 48" fill="none" xmlns="http://www.w3.org/2000/svg">
<rect width="310" height="48" rx="10" fill="black"/>
<path fill-rule="evenodd" clip-rule="evenodd" d="M90.9059 13.5C91.0646 14.5634 90.6288 15.6041 90.0542 16.3408C89.4388 17.1307 88.3789 17.742 87.3552 17.7099C87.1685 16.692 87.6486 15.6449 88.2302 14.9391C88.8712 14.1609 89.9679 13.5642 90.9059 13.5ZM93.822 29.1724C94.3517 28.3674 94.5482 27.9614 94.9595 27.0503C91.974 25.9215 91.4939 21.7023 94.4491 20.0823C93.5467 18.9583 92.2808 18.3078 91.0862 18.3078C90.2237 18.3078 89.6329 18.5313 89.0961 18.7344C88.6489 18.9036 88.2391 19.0586 87.7407 19.0586C87.2023 19.0586 86.7252 18.8885 86.2256 18.7104C85.6762 18.5146 85.0994 18.309 84.3837 18.309C83.0408 18.309 81.6128 19.1239 80.7075 20.5181C79.4341 22.4787 79.6499 26.1677 81.7149 29.3107C82.4534 30.4353 83.4392 31.6994 84.7296 31.7111C85.2639 31.7163 85.6196 31.5578 86.0047 31.3862C86.4458 31.1897 86.9254 30.9761 87.7559 30.9714C88.5916 30.9667 89.0634 31.1827 89.4988 31.382C89.8739 31.5537 90.222 31.713 90.7525 31.7082C92.0428 31.6965 93.0841 30.2965 93.822 29.1724Z" fill="white"/>
<path d="M114.374 29.2324C112.214 29.2324 110.819 28.0977 110.676 26.4912L110.669 26.416H111.899L111.906 26.4912C111.995 27.4756 113.021 28.0977 114.442 28.0977C115.782 28.0977 116.76 27.4072 116.76 26.4023V26.3955C116.76 25.5752 116.192 25.0146 114.839 24.7139L113.745 24.4746C111.77 24.0371 110.915 23.1279 110.915 21.6992V21.6924C110.922 20.0586 112.351 18.9033 114.388 18.9033C116.356 18.9033 117.73 20.0654 117.833 21.5352L117.84 21.6309H116.609L116.596 21.542C116.459 20.6738 115.639 20.0312 114.354 20.0381C113.123 20.0449 112.173 20.626 112.173 21.6582V21.665C112.173 22.4512 112.713 22.9844 114.053 23.2783L115.146 23.5244C117.204 23.9824 118.018 24.8096 118.018 26.2314V26.2383C118.018 28.084 116.575 29.2324 114.374 29.2324ZM120.547 20.209C120.096 20.209 119.727 19.8398 119.727 19.3887C119.727 18.9375 120.096 18.5684 120.547 18.5684C120.998 18.5684 121.367 18.9375 121.367 19.3887C121.367 19.8398 120.998 20.209 120.547 20.209ZM119.945 29V21.6309H121.135V29H119.945ZM126.412 31.5977C124.635 31.5977 123.5 30.7979 123.315 29.5879L123.329 29.5811H124.56L124.566 29.5879C124.696 30.1484 125.353 30.5449 126.412 30.5449C127.731 30.5449 128.518 29.9229 128.518 28.8359V27.3457H128.408C127.943 28.1592 127.109 28.6172 126.098 28.6172C124.19 28.6172 123.008 27.1406 123.008 25.0762V25.0625C123.008 22.998 124.197 21.501 126.125 21.501C127.164 21.501 127.971 22.0137 128.422 22.8477H128.504V21.6309H129.693V28.8975C129.693 30.5449 128.422 31.5977 126.412 31.5977ZM126.357 27.5645C127.725 27.5645 128.545 26.5391 128.545 25.0762V25.0625C128.545 23.5996 127.718 22.5537 126.357 22.5537C124.99 22.5537 124.225 23.5996 124.225 25.0625V25.0762C124.225 26.5391 124.99 27.5645 126.357 27.5645ZM131.908 29V21.6309H133.098V22.7383H133.207C133.576 21.959 134.267 21.501 135.354 21.501C137.008 21.501 137.931 22.4785 137.931 24.2285V29H136.741V24.5156C136.741 23.1895 136.194 22.5537 135.019 22.5537C133.843 22.5537 133.098 23.3467 133.098 24.6387V29H131.908ZM144.65 20.209C144.199 20.209 143.83 19.8398 143.83 19.3887C143.83 18.9375 144.199 18.5684 144.65 18.5684C145.102 18.5684 145.471 18.9375 145.471 19.3887C145.471 19.8398 145.102 20.209 144.65 20.209ZM144.049 29V21.6309H145.238V29H144.049ZM147.48 29V21.6309H148.67V22.7383H148.779C149.148 21.959 149.839 21.501 150.926 21.501C152.58 21.501 153.503 22.4785 153.503 24.2285V29H152.313V24.5156C152.313 23.1895 151.767 22.5537 150.591 22.5537C149.415 22.5537 148.67 23.3467 148.67 24.6387V29H147.48ZM161.016 29L158.951 21.6309H160.141L161.59 27.5234H161.699L163.347 21.6309H164.475L166.122 27.5234H166.231L167.681 21.6309H168.863L166.799 29H165.603L163.955 23.2988H163.846L162.205 29H161.016ZM171.064 20.209C170.613 20.209 170.244 19.8398 170.244 19.3887C170.244 18.9375 170.613 18.5684 171.064 18.5684C171.516 18.5684 171.885 18.9375 171.885 19.3887C171.885 19.8398 171.516 20.209 171.064 20.209ZM170.463 29V21.6309H171.652V29H170.463ZM176.513 29.0547C174.995 29.0547 174.359 28.4941 174.359 27.0859V22.6152H173.197V21.6309H174.359V19.7236H175.59V21.6309H177.203V22.6152H175.59V26.7852C175.59 27.6533 175.891 28.002 176.656 28.002C176.868 28.002 176.984 27.9951 177.203 27.9746V28.9863C176.971 29.0273 176.745 29.0547 176.513 29.0547ZM179.049 29V18.7051H180.238V22.7383H180.348C180.717 21.959 181.407 21.501 182.494 21.501C184.148 21.501 185.071 22.4785 185.071 24.2285V29H183.882V24.5156C183.882 23.1895 183.335 22.5537 182.159 22.5537C180.983 22.5537 180.238 23.3467 180.238 24.6387V29H179.049ZM190.526 29L194.163 19.1357H195.38L199.017 29H197.725L196.733 26.1768H192.81L191.818 29H190.526ZM194.717 20.7285L193.172 25.1309H196.371L194.826 20.7285H194.717ZM200.596 31.4609V21.6309H201.785V22.8066H201.895C202.346 21.9863 203.166 21.501 204.191 21.501C206.058 21.501 207.281 23.0117 207.281 25.3086V25.3223C207.281 27.6328 206.064 29.1299 204.191 29.1299C203.18 29.1299 202.298 28.624 201.895 27.8379H201.785V31.4609H200.596ZM203.918 28.0771C205.265 28.0771 206.064 27.0381 206.064 25.3223V25.3086C206.064 23.5928 205.265 22.5537 203.918 22.5537C202.578 22.5537 201.758 23.6064 201.758 25.3086V25.3223C201.758 27.0244 202.578 28.0771 203.918 28.0771ZM209.141 31.4609V21.6309H210.33V22.8066H210.439C210.891 21.9863 211.711 21.501 212.736 21.501C214.603 21.501 215.826 23.0117 215.826 25.3086V25.3223C215.826 27.6328 214.609 29.1299 212.736 29.1299C211.725 29.1299 210.843 28.624 210.439 27.8379H210.33V31.4609H209.141ZM212.463 28.0771C213.81 28.0771 214.609 27.0381 214.609 25.3223V25.3086C214.609 23.5928 213.81 22.5537 212.463 22.5537C211.123 22.5537 210.303 23.6064 210.303 25.3086V25.3223C210.303 27.0244 211.123 28.0771 212.463 28.0771ZM217.754 29V18.7051H218.943V29H217.754ZM224.234 29.1299C222.129 29.1299 220.857 27.6533 220.857 25.3428V25.3359C220.857 23.0596 222.156 21.501 224.159 21.501C226.162 21.501 227.379 22.9912 227.379 25.1924V25.6572H222.074C222.108 27.1816 222.949 28.0703 224.262 28.0703C225.26 28.0703 225.875 27.5986 226.073 27.1543L226.101 27.0928H227.29L227.276 27.1475C227.023 28.1455 225.971 29.1299 224.234 29.1299ZM224.152 22.5605C223.059 22.5605 222.225 23.3057 222.095 24.707H226.169C226.046 23.251 225.239 22.5605 224.152 22.5605Z" fill="white"/>
</svg>
