<svg width="60" height="40" viewBox="0 0 60 40" fill="none" xmlns="http://www.w3.org/2000/svg">
<path opacity="0.996" fill-rule="evenodd" clip-rule="evenodd" d="M20.1923 8.00361C26.7308 7.99399 33.2692 8.00361 39.8077 8.03245C40.9519 8.33053 41.673 9.05168 41.9711 10.1959C42.0096 16.7344 42.0096 23.2728 41.9711 29.8113C41.673 30.9555 40.9519 31.6766 39.8077 31.9747C33.2692 32.0132 26.7307 32.0132 20.1923 31.9747C19.0481 31.6766 18.3269 30.9555 18.0288 29.8113C17.9904 23.2728 17.9904 16.7344 18.0288 10.1959C18.3374 9.05083 19.0586 8.32006 20.1923 8.00361ZM22.6154 12.619C23.2311 12.6094 23.8465 12.619 24.4615 12.6478C24.9904 12.7152 25.2884 13.0132 25.3558 13.5421C25.3942 14.1575 25.3942 14.7728 25.3558 15.3882C25.2884 15.9171 24.9904 16.2151 24.4615 16.2824C23.8461 16.3209 23.2308 16.3209 22.6154 16.2824C22.0865 16.2151 21.7885 15.9171 21.7212 15.3882C21.6696 14.6739 21.6888 13.9624 21.7788 13.2536C21.9416 12.8799 22.2205 12.6684 22.6154 12.619ZM28.1538 13.5421C31.2308 13.5324 34.3078 13.5421 37.3846 13.5709C38.0679 13.6775 38.3467 14.0717 38.2211 14.7536C38.0711 15.1317 37.7923 15.3336 37.3846 15.3594C34.3077 15.3979 31.2307 15.3979 28.1538 15.3594C27.3551 15.1755 27.1148 14.7043 27.4327 13.9459C27.6325 13.7261 27.8729 13.5914 28.1538 13.5421ZM22.6154 18.1574C23.2311 18.1478 23.8465 18.1574 24.4615 18.1863C24.9904 18.2536 25.2884 18.5517 25.3558 19.0805C25.3942 19.6959 25.3942 20.3113 25.3558 20.9267C25.2884 21.4555 24.9904 21.7536 24.4615 21.8209C23.8461 21.8594 23.2308 21.8594 22.6154 21.8209C22.0865 21.7536 21.7885 21.4555 21.7212 20.9267C21.6696 20.2123 21.6888 19.5008 21.7788 18.7921C21.9416 18.4184 22.2205 18.2068 22.6154 18.1574ZM28.1538 19.0805C31.2308 19.0709 34.3078 19.0805 37.3846 19.1094C38.0679 19.2159 38.3467 19.6101 38.2211 20.2921C38.0711 20.6701 37.7923 20.872 37.3846 20.8978C34.3077 20.9363 31.2307 20.9363 28.1538 20.8978C27.3551 20.714 27.1148 20.2428 27.4327 19.4844C27.6325 19.2646 27.8729 19.1299 28.1538 19.0805ZM22.6154 23.6959C23.2311 23.6863 23.8465 23.6959 24.4615 23.7247C24.9904 23.7921 25.2884 24.0901 25.3558 24.619C25.3942 25.2344 25.3942 25.8497 25.3558 26.4651C25.2884 26.994 24.9904 27.292 24.4615 27.3594C23.8461 27.3978 23.2308 27.3978 22.6154 27.3594C22.0865 27.292 21.7885 26.994 21.7212 26.4651C21.6696 25.7508 21.6888 25.0393 21.7788 24.3305C21.9416 23.9568 22.2205 23.7453 22.6154 23.6959ZM28.1538 24.619C31.2308 24.6093 34.3078 24.619 37.3846 24.6478C38.0679 24.7544 38.3467 25.1486 38.2211 25.8305C38.0711 26.2086 37.7923 26.4105 37.3846 26.4363C34.3077 26.4748 31.2307 26.4748 28.1538 26.4363C27.3551 26.2524 27.1148 25.7812 27.4327 25.0228C27.6325 24.803 27.8729 24.6684 28.1538 24.619Z" fill="#808AA0"/>
</svg>
