<svg width="60" height="40" viewBox="0 0 60 40" fill="none" xmlns="http://www.w3.org/2000/svg">
<path opacity="0.993" fill-rule="evenodd" clip-rule="evenodd" d="M29.5312 8C29.8438 8 30.1562 8 30.4688 8C30.8182 8.11223 31.1463 8.27629 31.4531 8.49219C34.8047 11.8438 38.1562 15.1953 41.5078 18.5469C41.7237 18.8537 41.8878 19.1818 42 19.5312C42 19.8438 42 20.1562 42 20.4688C41.6143 21.6964 40.7706 22.2901 39.4688 22.25C39.4904 24.8136 39.4669 27.3761 39.3984 29.9375C39.1112 31.0451 38.4158 31.7326 37.3125 32C35.7969 32 34.2812 32 32.7656 32C32.5648 31.9005 32.4163 31.7443 32.3203 31.5312C32.3191 29.4514 32.2878 27.3733 32.2266 25.2969C32.1124 24.9484 31.8859 24.7062 31.5469 24.5703C31.0338 24.5178 30.5182 24.4944 30 24.5C29.4818 24.4944 28.9662 24.5178 28.4531 24.5703C28.0602 24.7542 27.818 25.0589 27.7266 25.4844C27.711 27.5 27.6953 29.5156 27.6797 31.5312C27.5849 31.7431 27.4365 31.8994 27.2344 32C25.7031 32 24.1719 32 22.6406 32C21.5839 31.7167 20.9042 31.0449 20.6016 29.9844C20.5331 27.4073 20.5096 24.8292 20.5312 22.25C19.2283 22.2887 18.3846 21.695 18 20.4688C18 20.1562 18 19.8438 18 19.5312C18.0965 19.1728 18.2606 18.8447 18.4922 18.5469C21.8438 15.1953 25.1953 11.8438 28.5469 8.49219C28.8537 8.27629 29.1818 8.11223 29.5312 8Z" fill="#818BA1"/>
</svg>
