<svg width="60" height="40" viewBox="0 0 60 40" fill="none" xmlns="http://www.w3.org/2000/svg">
<path opacity="0.988" fill-rule="evenodd" clip-rule="evenodd" d="M28.9472 8.02243C31.8707 7.81663 33.9552 9.02704 35.2009 11.6536C36.0721 14.2114 35.5437 16.4305 33.6159 18.3109C31.6124 19.8774 29.4414 20.1464 27.1028 19.1178C25.0467 17.9715 23.9707 16.2135 23.875 13.8439C24.0187 11.2019 25.3059 9.36706 27.7368 8.33944C28.141 8.20716 28.5445 8.10149 28.9472 8.02243Z" fill="#808AA0"/>
<path opacity="0.993" fill-rule="evenodd" clip-rule="evenodd" d="M25.5467 21.5104C28.3519 21.5008 31.1569 21.5104 33.9619 21.5393C36.9126 21.8581 38.9588 23.3855 40.1004 26.1215C40.5026 27.1878 40.6178 28.2829 40.4462 29.4069C40.0799 30.8106 39.1866 31.6656 37.7661 31.9718C32.4249 32.0103 27.0838 32.0103 21.7426 31.9718C20.2283 31.6295 19.3157 30.6977 19.0048 29.1764C18.9076 25.9326 20.3005 23.579 23.1835 22.1156C23.9488 21.7947 24.7365 21.593 25.5467 21.5104Z" fill="#808AA0"/>
</svg>
