<svg width="50" height="50" viewBox="0 0 50 50" fill="none" xmlns="http://www.w3.org/2000/svg">
<g clip-path="url(#clip0_3583_8444)">
<path d="M24.9396 33.0301C26.37 33.0301 27.5296 31.8615 27.5296 30.4201C27.5296 28.9786 26.37 27.8101 24.9396 27.8101C23.5092 27.8101 22.3496 28.9786 22.3496 30.4201C22.3496 31.8615 23.5092 33.0301 24.9396 33.0301Z" fill="#09353C"/>
<path d="M35.1593 12.8401H36.5093L35.0693 14.8101L36.5893 14.8001" stroke="#F07962" stroke-width="0.25" stroke-miterlimit="10"/>
<path d="M33.2096 14.26H34.1696L33.1396 15.67L34.2296 15.66" stroke="#F07962" stroke-width="0.25" stroke-miterlimit="10"/>
<path d="M37.36 11.27H39.04L37.25 13.71L39.14 13.7" stroke="#F07962" stroke-width="0.25" stroke-miterlimit="10"/>
<path d="M15.5801 22.2999C16.1801 23.2099 17.2401 23.7799 18.4101 23.6999C19.5001 23.6299 20.4201 23.0199 20.9401 22.1499" stroke="#09353C" stroke-width="0.75" stroke-miterlimit="10" stroke-linecap="round"/>
<path d="M34.3004 22.2999C33.7004 23.2099 32.6404 23.7799 31.4704 23.6999C30.3804 23.6299 29.4604 23.0199 28.9404 22.1499" stroke="#09353C" stroke-width="0.75" stroke-miterlimit="10" stroke-linecap="round"/>
<path d="M14.1701 14.31C19.3301 9.08999 27.3301 8.37999 33.2601 12.22C33.6501 12.48 34.1701 12.42 34.5001 12.09C34.9401 11.65 34.8701 10.91 34.3501 10.57C27.6501 6.20998 18.5901 6.99998 12.7601 12.91C6.93012 18.82 6.24012 27.88 10.6801 34.53C11.0301 35.05 11.7701 35.11 12.2101 34.66C12.5401 34.33 12.5901 33.81 12.3301 33.41C8.40012 27.54 9.01012 19.53 14.1701 14.31ZM35.8301 35.69C30.6701 40.91 22.6701 41.62 16.7401 37.78C16.3501 37.52 15.8301 37.58 15.5001 37.91C15.0601 38.35 15.1301 39.09 15.6501 39.43C22.3501 43.78 31.4101 42.98 37.2401 37.07C43.0701 31.16 43.7601 22.1 39.3201 15.45C38.9701 14.93 38.2301 14.87 37.7901 15.32C37.4601 15.65 37.4101 16.17 37.6701 16.57C41.6001 22.46 40.9901 30.47 35.8301 35.69Z" fill="#F07962"/>
</g>
<defs>
<clipPath id="clip0_3583_8444">
<rect width="50" height="50" fill="white"/>
</clipPath>
</defs>
</svg>
