<svg width="45" height="45" viewBox="0 0 45 45" fill="none" xmlns="http://www.w3.org/2000/svg">
<g clip-path="url(#clip0_3583_8633)">
<path d="M8.84661 41.0578C12.6716 41.0578 14.6786 40.4908 15.7856 39.0868C16.8476 37.7368 16.8476 35.8558 16.8476 33.2458V32.8588C16.8476 31.6888 17.1986 30.7888 17.9276 30.1138C19.5386 28.6198 22.4366 28.7728 22.4816 28.7728C22.4906 28.7728 22.4996 28.7728 22.5086 28.7728C22.5176 28.7728 22.5266 28.7728 22.5356 28.7728C22.5626 28.7728 25.4516 28.6018 27.0806 30.1048C27.8096 30.7798 28.1696 31.6798 28.1696 32.8498V33.2368C28.1696 35.8468 28.1696 37.7278 29.2316 39.0778C30.3296 40.4728 32.3366 41.0488 36.1706 41.0488C36.5846 41.0488 36.9176 40.7158 36.9176 40.3108C36.9176 39.9058 36.5846 39.5728 36.1706 39.5728C32.9576 39.5728 31.1846 39.1408 30.4196 38.1778C29.6726 37.2238 29.6726 35.5588 29.6726 33.2368V32.8498C29.6726 31.2658 29.1506 29.9788 28.1156 29.0248C26.1536 27.2158 23.0396 27.2698 22.5176 27.2968C21.9956 27.2788 18.8816 27.2248 16.9196 29.0248C15.8846 29.9788 15.3626 31.2658 15.3626 32.8498V33.2368C15.3626 35.5498 15.3626 37.2238 14.6156 38.1778C13.8596 39.1408 12.0866 39.5728 8.86461 39.5728C8.43261 39.5818 8.09961 39.9148 8.09961 40.3198C8.09961 40.7248 8.43261 41.0578 8.84661 41.0578Z" fill="#F07962"/>
<path d="M19.6826 18.558C21.2846 20.07 23.8046 19.998 25.3076 18.396" stroke="#F07962" stroke-miterlimit="10" stroke-linecap="round" stroke-linejoin="round"/>
<path d="M16.9287 13.4909C17.2887 14.0309 17.9187 14.3729 18.6117 14.3279C19.2597 14.2829 19.8087 13.9229 20.1147 13.4009" stroke="#09353C" stroke-miterlimit="10" stroke-linecap="round"/>
<path d="M28.0708 13.4909C27.7108 14.0309 27.0808 14.3729 26.3878 14.3279C25.7398 14.2829 25.1908 13.9229 24.8848 13.4009" stroke="#09353C" stroke-miterlimit="10" stroke-linecap="round"/>
<path d="M22.4996 5.16589C27.0176 5.16589 30.7886 8.36089 31.6616 12.6179C31.7246 12.8969 31.9676 13.1039 32.2556 13.1039C32.6426 13.1039 32.9306 12.7529 32.8586 12.3749C31.8686 7.55989 27.6116 3.94189 22.4996 3.94189C17.3876 3.94189 13.1306 7.55989 12.1316 12.3749C12.0506 12.7529 12.3476 13.1039 12.7346 13.1039C13.0226 13.1039 13.2746 12.8969 13.3286 12.6179C14.2106 8.36089 17.9816 5.16589 22.4996 5.16589ZM22.4996 23.8859C17.9816 23.8859 14.2106 20.6909 13.3376 16.4339C13.2746 16.1549 13.0316 15.9479 12.7436 15.9479C12.3566 15.9479 12.0686 16.2989 12.1406 16.6769C13.1306 21.4919 17.3966 25.1099 22.5086 25.1099C27.6206 25.1099 31.8776 21.4919 32.8766 16.6769C32.9576 16.2989 32.6606 15.9479 32.2736 15.9479C31.9856 15.9479 31.7336 16.1549 31.6796 16.4339C30.7886 20.6909 27.0176 23.8859 22.4996 23.8859Z" fill="#F07962"/>
</g>
<defs>
<clipPath id="clip0_3583_8633">
<rect width="45" height="45" fill="white"/>
</clipPath>
</defs>
</svg>
