<svg width="45" height="45" viewBox="0 0 45 45" fill="none" xmlns="http://www.w3.org/2000/svg">
<g clip-path="url(#clip0_3583_8696)">
<path d="M30.2219 38.448H25.7399C22.5809 38.448 20.0069 35.874 20.0069 32.715C20.0069 32.256 20.3849 31.878 20.8439 31.878C21.3029 31.878 21.6809 32.256 21.6809 32.715C21.6809 34.956 23.4989 36.774 25.7399 36.774H30.2219C31.2119 36.774 32.0129 35.973 32.0129 34.983V29.88C32.0129 29.52 32.2379 29.205 32.5709 29.088L35.6399 28.017L33.6149 24.759C33.0389 23.814 32.7959 22.689 32.9399 21.591C33.0029 21.087 33.0389 20.574 33.0389 20.07C33.0569 13.779 27.9539 8.469 21.6809 8.226C18.4229 8.118 15.3539 9.27 13.0139 11.52C10.6739 13.77 9.38689 16.794 9.38689 20.043C9.38689 22.77 10.2869 25.335 11.9969 27.459C12.8969 28.584 13.4009 30.042 13.4009 31.563V37.278C13.4009 37.737 13.0229 38.115 12.5639 38.115C12.1049 38.115 11.7269 37.737 11.7269 37.278V31.563C11.7269 30.411 11.3579 29.331 10.6919 28.503C8.76589 26.118 7.71289 23.112 7.71289 20.043C7.71289 16.344 9.17989 12.888 11.8529 10.314C14.5169 7.749 18.0269 6.399 21.7439 6.552C28.9079 6.831 34.7219 12.888 34.7129 20.07C34.7129 20.646 34.6769 21.231 34.5959 21.807C34.5059 22.527 34.6589 23.256 35.0369 23.886L37.0529 27.171C37.3139 27.603 37.3679 28.116 37.1969 28.593C37.0259 29.061 36.6569 29.43 36.1889 29.592L33.6779 30.465V34.974C33.6779 36.891 32.1209 38.448 30.2219 38.448Z" fill="#F07962"/>
<path d="M18.3418 22.2031C18.3418 22.2031 19.0168 23.3191 21.2758 23.3191C23.5348 23.3191 24.1828 22.2031 24.1828 22.2031" stroke="#F07962" stroke-width="0.75" stroke-miterlimit="10" stroke-linecap="round" stroke-linejoin="round"/>
<path d="M17.001 18.1802C17.28 18.5942 17.757 18.8552 18.288 18.8192C18.783 18.7922 19.206 18.5132 19.44 18.1172" stroke="#09353C" stroke-width="0.75" stroke-miterlimit="10" stroke-linecap="round"/>
<path d="M25.5152 18.1802C25.2362 18.5942 24.7592 18.8552 24.2282 18.8192C23.7332 18.7922 23.3102 18.5132 23.0762 18.1172" stroke="#09353C" stroke-width="0.75" stroke-miterlimit="10" stroke-linecap="round"/>
<path d="M21.2582 12.1771C24.8492 12.1771 27.8462 14.7241 28.5482 18.1081C28.5932 18.3331 28.7912 18.4951 29.0252 18.4951C29.3312 18.4951 29.5652 18.2161 29.5022 17.9191C28.7102 14.0851 25.3172 11.2141 21.2582 11.2141C17.1902 11.2141 13.8062 14.0941 13.0142 17.9191C12.9512 18.2161 13.1852 18.4951 13.4912 18.4951C13.7252 18.4951 13.9232 18.3331 13.9682 18.1081C14.6702 14.7151 17.6672 12.1771 21.2582 12.1771ZM21.2582 27.0721C17.6672 27.0721 14.6702 24.5251 13.9682 21.1411C13.9232 20.9161 13.7252 20.7541 13.4912 20.7541C13.1852 20.7541 12.9512 21.0331 13.0142 21.3301C13.8062 25.1641 17.1992 28.0351 21.2582 28.0351C25.3262 28.0351 28.7102 25.1551 29.5022 21.3301C29.5652 21.0331 29.3312 20.7541 29.0252 20.7541C28.7912 20.7541 28.5932 20.9161 28.5482 21.1411C27.8552 24.5341 24.8582 27.0721 21.2582 27.0721Z" fill="#F07962"/>
</g>
<defs>
<clipPath id="clip0_3583_8696">
<rect width="45" height="45" fill="white"/>
</clipPath>
</defs>
</svg>
