<svg width="50" height="50" viewBox="0 0 50 50" fill="none" xmlns="http://www.w3.org/2000/svg">
<g clip-path="url(#clip0_3583_8570)">
<path d="M25.12 38.9399C32.9183 38.9399 39.24 32.6182 39.24 24.8199C39.24 17.0217 32.9183 10.7 25.12 10.7C17.3217 10.7 11 17.0217 11 24.8199C11 32.6182 17.3217 38.9399 25.12 38.9399Z" stroke="#09353C" stroke-width="0.5" stroke-miterlimit="10" stroke-linecap="round"/>
<path d="M32.1905 26.25C31.2705 29.21 28.5105 31.36 25.2505 31.36C21.9905 31.36 19.2305 29.21 18.3105 26.25" stroke="#F07962" stroke-miterlimit="10" stroke-linecap="round" stroke-linejoin="round"/>
<path d="M17.1406 21.75C17.4206 21.27 17.9306 20.95 18.5306 20.95C19.0806 20.95 19.5706 21.23 19.8606 21.66" stroke="#09353C" stroke-miterlimit="10" stroke-linecap="round" stroke-linejoin="round"/>
<path d="M30.4004 21.75C30.6804 21.27 31.1904 20.95 31.7904 20.95C32.3404 20.95 32.8304 21.23 33.1204 21.66" stroke="#09353C" stroke-miterlimit="10" stroke-linecap="round" stroke-linejoin="round"/>
<path d="M25.1204 7.66993C33.3904 7.66993 40.2904 13.5199 41.9104 21.3099C42.0204 21.8299 42.4704 22.1999 43.0004 22.1999C43.7004 22.1999 44.2404 21.5599 44.1004 20.8699C42.2804 12.0599 34.4804 5.42993 25.1204 5.42993C15.7604 5.42993 7.97039 12.0599 6.15039 20.8799C6.01039 21.5699 6.55039 22.2099 7.25039 22.2099C7.78039 22.2099 8.23039 21.8399 8.34039 21.3199C9.95039 13.5199 16.8504 7.66993 25.1204 7.66993ZM25.1204 41.9599C16.8504 41.9599 9.95039 36.1099 8.33039 28.3199C8.22039 27.7999 7.77039 27.4299 7.24039 27.4299C6.54039 27.4299 6.00039 28.0699 6.14039 28.7599C7.96039 37.5699 15.7604 44.1999 25.1204 44.1999C34.4804 44.1999 42.2804 37.5699 44.1004 28.7599C44.2404 28.0699 43.7004 27.4299 43.0004 27.4299C42.4704 27.4299 42.0204 27.7999 41.9104 28.3199C40.2904 36.1099 33.3904 41.9599 25.1204 41.9599Z" fill="#F07962"/>
<path d="M13.2303 24.8201H5.57031" stroke="#09353C" stroke-width="0.5" stroke-miterlimit="10" stroke-linecap="round"/>
<path d="M44.6805 24.8201H37.0205" stroke="#09353C" stroke-width="0.5" stroke-miterlimit="10" stroke-linecap="round"/>
<path d="M25.1201 11.63V3.96997" stroke="#09353C" stroke-width="0.5" stroke-miterlimit="10" stroke-linecap="round"/>
<path d="M25.1201 45.0999V37.4299" stroke="#09353C" stroke-width="0.5" stroke-miterlimit="10" stroke-linecap="round"/>
</g>
<defs>
<clipPath id="clip0_3583_8570">
<rect width="50" height="50" fill="white"/>
</clipPath>
</defs>
</svg>
