<svg width="50" height="50" viewBox="0 0 50 50" fill="none" xmlns="http://www.w3.org/2000/svg">
<g clip-path="url(#clip0_3583_8507)">
<path d="M24.9996 10.16C32.1596 10.16 38.1296 15.23 39.5296 21.97C39.6196 22.42 40.0196 22.74 40.4796 22.74C41.0896 22.74 41.5596 22.18 41.4296 21.59C39.8596 13.96 33.0996 8.21997 24.9996 8.21997C16.8996 8.21997 10.1396 13.96 8.5696 21.59C8.4496 22.19 8.9096 22.74 9.5196 22.74C9.9796 22.74 10.3696 22.42 10.4696 21.97C11.8696 15.22 17.8396 10.16 24.9996 10.16ZM24.9996 39.84C17.8396 39.84 11.8696 34.77 10.4696 28.03C10.3796 27.58 9.9796 27.26 9.5196 27.26C8.9096 27.26 8.4396 27.82 8.5696 28.41C10.1396 36.04 16.8996 41.78 24.9996 41.78C33.0996 41.78 39.8596 36.04 41.4296 28.41C41.5496 27.81 41.0896 27.26 40.4796 27.26C40.0196 27.26 39.6296 27.58 39.5296 28.03C38.1296 34.78 32.1596 39.84 24.9996 39.84Z" fill="#F07962"/>
<path d="M16.7998 21.94C17.3198 21.15 18.2398 20.66 19.2598 20.72C20.1998 20.78 21.0098 21.31 21.4498 22.07" stroke="#09353C" stroke-miterlimit="10" stroke-linecap="round"/>
<path d="M33.0602 21.94C32.5402 21.15 31.6202 20.66 30.6002 20.72C29.6602 20.78 28.8502 21.31 28.4102 22.07" stroke="#09353C" stroke-miterlimit="10" stroke-linecap="round"/>
<path d="M20.5401 27.3C22.2601 27.92 25.9301 28.87 29.2901 27.4C29.7501 27.2 30.2601 27.59 30.1801 28.09C29.9001 29.85 28.8701 32.94 25.0401 32.94C21.1701 32.94 20.0201 29.77 19.6801 28.02C19.5801 27.53 20.0701 27.13 20.5401 27.3Z" stroke="#F07962" stroke-miterlimit="10" stroke-linecap="round" stroke-linejoin="round"/>
</g>
<defs>
<clipPath id="clip0_3583_8507">
<rect width="50" height="50" fill="white"/>
</clipPath>
</defs>
</svg>
