<svg width="58" height="58" viewBox="0 0 58 58" fill="none" xmlns="http://www.w3.org/2000/svg">
<g clip-path="url(#clip0_1_6375)">
<path d="M38.9528 49.5552H33.176C29.1044 49.5552 25.7868 46.2376 25.7868 42.166C25.7868 41.5744 26.274 41.0872 26.8656 41.0872C27.4572 41.0872 27.9444 41.5744 27.9444 42.166C27.9444 45.0544 30.2876 47.3976 33.176 47.3976H38.9528C40.2288 47.3976 41.2612 46.3652 41.2612 45.0892V38.512C41.2612 38.048 41.5512 37.642 41.9804 37.4912L45.936 36.1108L43.326 31.9116C42.5836 30.6936 42.2704 29.2436 42.456 27.8284C42.5372 27.1788 42.5836 26.5176 42.5836 25.868C42.6068 17.7596 36.0296 10.9156 27.9444 10.6024C23.7452 10.4632 19.7896 11.948 16.7736 14.848C13.7576 17.748 12.0988 21.6456 12.0988 25.8332C12.0988 29.348 13.2588 32.654 15.4628 35.3916C16.6228 36.8416 17.2724 38.7208 17.2724 40.6812V48.0472C17.2724 48.6388 16.7852 49.126 16.1936 49.126C15.602 49.126 15.1148 48.6388 15.1148 48.0472V40.6812C15.1148 39.1964 14.6392 37.8044 13.7808 36.7372C11.2984 33.6632 9.94116 29.7888 9.94116 25.8332C9.94116 21.0656 11.832 16.6112 15.2772 13.2936C18.7108 9.98759 23.2348 8.24759 28.0256 8.44479C37.2592 8.80439 44.7528 16.6112 44.7412 25.868C44.7412 26.6104 44.6948 27.3644 44.5904 28.1068C44.4744 29.0348 44.6716 29.9744 45.1588 30.7864L47.7572 35.0204C48.0936 35.5772 48.1632 36.2384 47.9428 36.8532C47.7224 37.4564 47.2468 37.932 46.6436 38.1408L43.4072 39.266V45.0776C43.4072 47.5484 41.4004 49.5552 38.9528 49.5552Z" fill="#FCC497"/>
<path d="M23.6409 28.6172C23.6409 28.6172 24.5109 30.0556 27.4225 30.0556C30.3341 30.0556 31.1693 28.6172 31.1693 28.6172" stroke="#F07962" stroke-width="0.75" stroke-miterlimit="10" stroke-linecap="round" stroke-linejoin="round"/>
<path d="M21.9124 23.4318C22.272 23.9654 22.8868 24.3018 23.5712 24.2554C24.2092 24.2206 24.7544 23.861 25.056 23.3506" stroke="#09353C" stroke-width="0.75" stroke-miterlimit="10" stroke-linecap="round"/>
<path d="M32.886 23.4318C32.5264 23.9654 31.9116 24.3018 31.2272 24.2554C30.5892 24.2206 30.044 23.861 29.7424 23.3506" stroke="#09353C" stroke-width="0.75" stroke-miterlimit="10" stroke-linecap="round"/>
<path d="M27.3991 15.6943C32.0275 15.6943 35.8903 18.9771 36.7951 23.3387C36.8531 23.6287 37.1083 23.8375 37.4099 23.8375C37.8043 23.8375 38.1059 23.4779 38.0247 23.0951C37.0039 18.1535 32.6307 14.4531 27.3991 14.4531C22.1559 14.4531 17.7943 18.1651 16.7735 23.0951C16.6923 23.4779 16.9939 23.8375 17.3883 23.8375C17.6899 23.8375 17.9451 23.6287 18.0031 23.3387C18.9079 18.9655 22.7707 15.6943 27.3991 15.6943ZM27.3991 34.8923C22.7707 34.8923 18.9079 31.6095 18.0031 27.2479C17.9451 26.9579 17.6899 26.7491 17.3883 26.7491C16.9939 26.7491 16.6923 27.1087 16.7735 27.4915C17.7943 32.4331 22.1675 36.1335 27.3991 36.1335C32.6423 36.1335 37.0039 32.4215 38.0247 27.4915C38.1059 27.1087 37.8043 26.7491 37.4099 26.7491C37.1083 26.7491 36.8531 26.9579 36.7951 27.2479C35.9019 31.6211 32.0391 34.8923 27.3991 34.8923Z" fill="#FCC497"/>
</g>
<defs>
<clipPath id="clip0_1_6375">
<rect width="58" height="58" fill="white"/>
</clipPath>
</defs>
</svg>
