<svg width="35" height="37" viewBox="0 0 35 37" fill="none" xmlns="http://www.w3.org/2000/svg">
<path d="M33.2263 17.4824C32.3832 17.4824 31.6537 16.8684 31.4931 16.0151C30.2384 9.35188 24.5635 4.30848 17.7778 4.30848C10.9921 4.30848 5.31725 9.35188 4.0625 16.0151C3.90189 16.8719 3.16912 17.4824 2.32927 17.4824C1.21504 17.4824 0.378541 16.4244 0.592685 15.2902C2.172 6.9516 9.27894 0.638672 17.7778 0.638672C26.28 0.638672 33.387 6.9516 34.9663 15.2902C35.1804 16.4279 34.3439 17.4824 33.2263 17.4824Z" fill="black"/>
<path d="M33.2253 20.1113C34.3395 20.1113 35.176 21.1693 34.9619 22.3035C33.3826 30.6456 26.2756 36.955 17.7734 36.955C9.27454 36.955 2.16426 30.6421 0.588291 22.3035C0.374146 21.1693 1.21064 20.1113 2.32486 20.1113C3.16471 20.1113 3.8975 20.7253 4.0581 21.5786C5.31286 28.2418 10.9877 33.2852 17.7734 33.2852C24.5625 33.2852 30.234 28.2418 31.4887 21.5786C31.6527 20.7253 32.3854 20.1113 33.2253 20.1113Z" fill="#F17961"/>
<path d="M14.3571 19.2133C13.9823 18.2421 13.0856 17.6143 12.0784 17.6143C11.0914 17.6143 10.2013 18.2248 9.81652 19.1682C9.74291 19.3486 9.7998 19.5532 9.95706 19.6642C10.1143 19.7752 10.3184 19.7579 10.4556 19.6226C11.1917 18.8838 12.3528 18.2907 13.7146 19.6642C13.7916 19.7405 13.892 19.7822 13.989 19.7822C14.066 19.7822 14.1429 19.7579 14.2098 19.7128C14.3671 19.5983 14.4273 19.3972 14.3571 19.2133Z" fill="#F17961"/>
<path d="M25.7404 19.2133C25.3656 18.2421 24.4689 17.6143 23.4617 17.6143C22.4747 17.6143 21.5846 18.2248 21.1998 19.1682C21.1262 19.3486 21.1831 19.5532 21.3404 19.6642C21.4976 19.7752 21.7017 19.7579 21.8389 19.6226C22.575 18.8838 23.7361 18.2907 25.0979 19.6642C25.1749 19.7405 25.2753 19.7822 25.3723 19.7822C25.4493 19.7822 25.5262 19.7579 25.5931 19.7128C25.7504 19.5983 25.8106 19.3972 25.7404 19.2133Z" fill="#F17961"/>
</svg>
