<svg width="342" height="48" viewBox="0 0 342 48" fill="none" xmlns="http://www.w3.org/2000/svg">
<rect width="342" height="48" rx="10" fill="#F17961"/>
<path d="M66.3843 23.88C66.3843 23.1433 66.5147 22.4237 66.7753 21.721C67.0473 21.007 67.4383 20.361 67.9483 19.783C68.4583 19.1937 69.0817 18.729 69.8183 18.389C70.555 18.0377 71.3937 17.862 72.3343 17.862C73.445 17.862 74.4027 18.1057 75.2073 18.593C76.0233 19.0803 76.6297 19.715 77.0263 20.497L75.2243 21.738C75.0203 21.2847 74.754 20.9277 74.4253 20.667C74.0967 20.395 73.7453 20.208 73.3713 20.106C72.9973 19.9927 72.629 19.936 72.2663 19.936C71.677 19.936 71.1613 20.055 70.7193 20.293C70.2887 20.531 69.926 20.8427 69.6313 21.228C69.3367 21.6133 69.1157 22.044 68.9683 22.52C68.8323 22.996 68.7643 23.472 68.7643 23.948C68.7643 24.4807 68.8493 24.9963 69.0193 25.495C69.1893 25.9823 69.4273 26.4187 69.7333 26.804C70.0507 27.178 70.4247 27.4783 70.8553 27.705C71.2973 27.9203 71.779 28.028 72.3003 28.028C72.6743 28.028 73.054 27.9657 73.4393 27.841C73.8247 27.7163 74.1817 27.518 74.5103 27.246C74.839 26.974 75.094 26.6227 75.2753 26.192L77.1963 27.297C76.9583 27.8977 76.5673 28.4077 76.0233 28.827C75.4907 29.2463 74.89 29.5637 74.2213 29.779C73.5527 29.9943 72.8897 30.102 72.2323 30.102C71.371 30.102 70.5833 29.9263 69.8693 29.575C69.1553 29.2123 68.5377 28.7363 68.0163 28.147C67.5063 27.5463 67.104 26.8777 66.8093 26.141C66.526 25.393 66.3843 24.6393 66.3843 23.88ZM82.2214 30.17C81.4961 30.17 80.8444 30.051 80.2664 29.813C79.6884 29.5637 79.1954 29.2237 78.7874 28.793C78.3907 28.3623 78.0847 27.8693 77.8694 27.314C77.6541 26.7587 77.5464 26.175 77.5464 25.563C77.5464 24.9397 77.6541 24.3503 77.8694 23.795C78.0847 23.2397 78.3907 22.7467 78.7874 22.316C79.1954 21.8853 79.6884 21.551 80.2664 21.313C80.8444 21.0637 81.4961 20.939 82.2214 20.939C82.9467 20.939 83.5928 21.0637 84.1594 21.313C84.7374 21.551 85.2304 21.8853 85.6384 22.316C86.0464 22.7467 86.3524 23.2397 86.5564 23.795C86.7718 24.3503 86.8794 24.9397 86.8794 25.563C86.8794 26.175 86.7718 26.7587 86.5564 27.314C86.3524 27.8693 86.0464 28.3623 85.6384 28.793C85.2417 29.2237 84.7544 29.5637 84.1764 29.813C83.5984 30.051 82.9467 30.17 82.2214 30.17ZM79.8924 25.563C79.8924 26.0843 79.9944 26.549 80.1984 26.957C80.4024 27.3537 80.6801 27.6653 81.0314 27.892C81.3827 28.1187 81.7794 28.232 82.2214 28.232C82.6521 28.232 83.0431 28.1187 83.3944 27.892C83.7458 27.654 84.0234 27.3367 84.2274 26.94C84.4428 26.532 84.5504 26.0673 84.5504 25.546C84.5504 25.036 84.4428 24.577 84.2274 24.169C84.0234 23.761 83.7458 23.4437 83.3944 23.217C83.0431 22.9903 82.6521 22.877 82.2214 22.877C81.7794 22.877 81.3827 22.996 81.0314 23.234C80.6801 23.4607 80.4024 23.778 80.1984 24.186C79.9944 24.5827 79.8924 25.0417 79.8924 25.563ZM96.288 30H94.01V25.002C94.01 24.288 93.8853 23.7667 93.636 23.438C93.3867 23.1093 93.041 22.945 92.599 22.945C92.293 22.945 91.9813 23.0243 91.664 23.183C91.358 23.3417 91.0803 23.5627 90.831 23.846C90.5817 24.118 90.4003 24.4353 90.287 24.798V30H88.009V21.092H90.066V22.741C90.2927 22.3557 90.5817 22.0327 90.933 21.772C91.2843 21.5 91.6867 21.296 92.14 21.16C92.6047 21.0127 93.092 20.939 93.602 20.939C94.1573 20.939 94.6107 21.041 94.962 21.245C95.3247 21.4377 95.5967 21.704 95.778 22.044C95.9707 22.3727 96.101 22.7467 96.169 23.166C96.2483 23.5853 96.288 24.0103 96.288 24.441V30ZM106.14 30H103.862V25.002C103.862 24.288 103.737 23.7667 103.488 23.438C103.238 23.1093 102.893 22.945 102.451 22.945C102.145 22.945 101.833 23.0243 101.516 23.183C101.21 23.3417 100.932 23.5627 100.683 23.846C100.433 24.118 100.252 24.4353 100.139 24.798V30H97.8608V21.092H99.9178V22.741C100.144 22.3557 100.433 22.0327 100.785 21.772C101.136 21.5 101.538 21.296 101.992 21.16C102.456 21.0127 102.944 20.939 103.454 20.939C104.009 20.939 104.462 21.041 104.814 21.245C105.176 21.4377 105.448 21.704 105.63 22.044C105.822 22.3727 105.953 22.7467 106.021 23.166C106.1 23.5853 106.14 24.0103 106.14 24.441V30ZM111.844 30.17C111.13 30.17 110.484 30.051 109.906 29.813C109.328 29.5637 108.835 29.2293 108.427 28.81C108.019 28.3793 107.701 27.892 107.475 27.348C107.259 26.7927 107.152 26.209 107.152 25.597C107.152 24.747 107.339 23.9707 107.713 23.268C108.098 22.5653 108.642 22.0043 109.345 21.585C110.059 21.1543 110.897 20.939 111.861 20.939C112.835 20.939 113.668 21.1543 114.36 21.585C115.051 22.0043 115.578 22.5653 115.941 23.268C116.315 23.9593 116.502 24.7073 116.502 25.512C116.502 25.648 116.496 25.7897 116.485 25.937C116.473 26.073 116.462 26.1863 116.451 26.277H109.566C109.611 26.7303 109.741 27.127 109.957 27.467C110.183 27.807 110.467 28.0677 110.807 28.249C111.158 28.419 111.532 28.504 111.929 28.504C112.382 28.504 112.807 28.3963 113.204 28.181C113.612 27.9543 113.889 27.6597 114.037 27.297L115.992 27.841C115.776 28.2943 115.465 28.6967 115.057 29.048C114.66 29.3993 114.19 29.677 113.646 29.881C113.102 30.0737 112.501 30.17 111.844 30.17ZM109.515 24.832H114.173C114.127 24.3787 113.997 23.9877 113.782 23.659C113.578 23.319 113.306 23.0583 112.966 22.877C112.626 22.6843 112.246 22.588 111.827 22.588C111.419 22.588 111.045 22.6843 110.705 22.877C110.376 23.0583 110.104 23.319 109.889 23.659C109.685 23.9877 109.56 24.3787 109.515 24.832ZM121.629 30.17C120.904 30.17 120.252 30.051 119.674 29.813C119.096 29.5637 118.603 29.2237 118.195 28.793C117.787 28.351 117.47 27.8523 117.243 27.297C117.028 26.7417 116.92 26.158 116.92 25.546C116.92 24.7073 117.107 23.9423 117.481 23.251C117.867 22.5483 118.411 21.9873 119.113 21.568C119.816 21.1487 120.649 20.939 121.612 20.939C122.576 20.939 123.403 21.1487 124.094 21.568C124.786 21.9873 125.301 22.537 125.641 23.217L123.414 23.897C123.222 23.5683 122.967 23.319 122.649 23.149C122.332 22.9677 121.981 22.877 121.595 22.877C121.165 22.877 120.768 22.9903 120.405 23.217C120.054 23.4323 119.776 23.744 119.572 24.152C119.368 24.5487 119.266 25.0133 119.266 25.546C119.266 26.0673 119.368 26.532 119.572 26.94C119.788 27.3367 120.071 27.654 120.422 27.892C120.774 28.1187 121.165 28.232 121.595 28.232C121.867 28.232 122.122 28.1867 122.36 28.096C122.61 28.0053 122.831 27.8807 123.023 27.722C123.216 27.5633 123.358 27.382 123.448 27.178L125.675 27.858C125.471 28.3 125.171 28.6967 124.774 29.048C124.389 29.3993 123.93 29.677 123.397 29.881C122.876 30.0737 122.287 30.17 121.629 30.17ZM132.007 29.541C131.814 29.6203 131.582 29.711 131.31 29.813C131.038 29.915 130.743 29.9943 130.426 30.051C130.12 30.119 129.808 30.153 129.491 30.153C129.072 30.153 128.686 30.0793 128.335 29.932C127.984 29.7847 127.7 29.5523 127.485 29.235C127.281 28.9063 127.179 28.4813 127.179 27.96V22.843H126.006V21.092H127.179V18.202H129.457V21.092H131.327V22.843H129.457V27.195C129.468 27.501 129.553 27.722 129.712 27.858C129.871 27.994 130.069 28.062 130.307 28.062C130.545 28.062 130.777 28.0223 131.004 27.943C131.231 27.8637 131.412 27.7957 131.548 27.739L132.007 29.541ZM145.063 27.943V30H136.682V17.93H144.91V19.987H139.028V22.894H144.111V24.798H139.028V27.943H145.063ZM148.511 30L145.23 21.092H147.593L149.837 27.926L152.098 21.092H154.257L150.993 30H148.511ZM158.868 30.17C158.142 30.17 157.491 30.051 156.913 29.813C156.335 29.5637 155.842 29.2237 155.434 28.793C155.037 28.3623 154.731 27.8693 154.516 27.314C154.3 26.7587 154.193 26.175 154.193 25.563C154.193 24.9397 154.3 24.3503 154.516 23.795C154.731 23.2397 155.037 22.7467 155.434 22.316C155.842 21.8853 156.335 21.551 156.913 21.313C157.491 21.0637 158.142 20.939 158.868 20.939C159.593 20.939 160.239 21.0637 160.806 21.313C161.384 21.551 161.877 21.8853 162.285 22.316C162.693 22.7467 162.999 23.2397 163.203 23.795C163.418 24.3503 163.526 24.9397 163.526 25.563C163.526 26.175 163.418 26.7587 163.203 27.314C162.999 27.8693 162.693 28.3623 162.285 28.793C161.888 29.2237 161.401 29.5637 160.823 29.813C160.245 30.051 159.593 30.17 158.868 30.17ZM156.539 25.563C156.539 26.0843 156.641 26.549 156.845 26.957C157.049 27.3537 157.326 27.6653 157.678 27.892C158.029 28.1187 158.426 28.232 158.868 28.232C159.298 28.232 159.689 28.1187 160.041 27.892C160.392 27.654 160.67 27.3367 160.874 26.94C161.089 26.532 161.197 26.0673 161.197 25.546C161.197 25.036 161.089 24.577 160.874 24.169C160.67 23.761 160.392 23.4437 160.041 23.217C159.689 22.9903 159.298 22.877 158.868 22.877C158.426 22.877 158.029 22.996 157.678 23.234C157.326 23.4607 157.049 23.778 156.845 24.186C156.641 24.5827 156.539 25.0417 156.539 25.563ZM164.638 17.59H166.916V27.144C166.916 27.552 166.984 27.8297 167.12 27.977C167.256 28.113 167.443 28.181 167.681 28.181C167.863 28.181 168.05 28.1583 168.242 28.113C168.435 28.0677 168.605 28.011 168.752 27.943L169.058 29.677C168.752 29.8243 168.395 29.9377 167.987 30.017C167.579 30.0963 167.211 30.136 166.882 30.136C166.168 30.136 165.613 29.949 165.216 29.575C164.831 29.1897 164.638 28.6457 164.638 27.943V17.59ZM171.608 30L168.327 21.092H170.69L172.934 27.926L175.195 21.092H177.354L174.09 30H171.608ZM177.759 30C177.759 29.49 177.799 29.031 177.878 28.623C177.957 28.215 178.093 27.8353 178.286 27.484C178.49 27.1327 178.762 26.804 179.102 26.498C179.453 26.1807 179.895 25.8747 180.428 25.58C180.893 25.3307 181.301 25.1153 181.652 24.934C182.003 24.7413 182.298 24.5657 182.536 24.407C182.785 24.2483 182.972 24.0897 183.097 23.931C183.222 23.761 183.284 23.5683 183.284 23.353C183.284 23.1263 183.222 22.9223 183.097 22.741C182.972 22.5483 182.797 22.3953 182.57 22.282C182.343 22.1687 182.06 22.112 181.72 22.112C181.448 22.112 181.193 22.146 180.955 22.214C180.728 22.282 180.513 22.3783 180.309 22.503C180.116 22.6277 179.935 22.7693 179.765 22.928C179.595 23.0753 179.442 23.234 179.306 23.404L177.861 21.738C178.02 21.5793 178.229 21.4093 178.49 21.228C178.762 21.0353 179.079 20.8597 179.442 20.701C179.816 20.531 180.224 20.395 180.666 20.293C181.119 20.1797 181.601 20.123 182.111 20.123C182.882 20.123 183.539 20.2477 184.083 20.497C184.627 20.735 185.041 21.0693 185.324 21.5C185.619 21.9307 185.766 22.435 185.766 23.013C185.766 23.4097 185.692 23.761 185.545 24.067C185.398 24.373 185.211 24.645 184.984 24.883C184.757 25.1097 184.508 25.3137 184.236 25.495C183.975 25.6763 183.72 25.835 183.471 25.971C183.12 26.1523 182.802 26.3223 182.519 26.481C182.236 26.6283 181.986 26.7813 181.771 26.94C181.556 27.0873 181.363 27.2403 181.193 27.399C181.034 27.5577 180.893 27.739 180.768 27.943H185.953V30H177.759ZM195.821 26.43C195.821 27.178 195.617 27.8297 195.209 28.385C194.812 28.9403 194.279 29.3767 193.611 29.694C192.942 30 192.211 30.153 191.418 30.153C190.613 30.153 189.876 29.9887 189.208 29.66C188.55 29.3313 188.023 28.8837 187.627 28.317C187.241 27.739 187.049 27.0817 187.049 26.345C187.049 25.8917 187.145 25.4837 187.338 25.121C187.53 24.747 187.768 24.4297 188.052 24.169C188.346 23.897 188.641 23.6873 188.936 23.54C188.664 23.404 188.409 23.2227 188.171 22.996C187.944 22.7693 187.763 22.5087 187.627 22.214C187.491 21.9193 187.423 21.6077 187.423 21.279C187.423 20.7463 187.542 20.2703 187.78 19.851C188.018 19.4317 188.335 19.0803 188.732 18.797C189.128 18.5023 189.559 18.287 190.024 18.151C190.5 18.0037 190.97 17.93 191.435 17.93C191.888 17.93 192.353 18.0037 192.829 18.151C193.305 18.287 193.741 18.4967 194.138 18.78C194.534 19.0633 194.852 19.4147 195.09 19.834C195.339 20.242 195.464 20.718 195.464 21.262C195.464 21.5793 195.39 21.891 195.243 22.197C195.107 22.4917 194.92 22.758 194.682 22.996C194.455 23.2227 194.194 23.404 193.9 23.54C194.228 23.71 194.54 23.931 194.835 24.203C195.129 24.475 195.367 24.798 195.549 25.172C195.73 25.546 195.821 25.9653 195.821 26.43ZM193.509 26.294C193.509 25.9993 193.452 25.7443 193.339 25.529C193.225 25.3023 193.067 25.1153 192.863 24.968C192.659 24.8093 192.432 24.6903 192.183 24.611C191.933 24.5317 191.678 24.492 191.418 24.492C191.055 24.492 190.715 24.5657 190.398 24.713C190.092 24.8603 189.842 25.07 189.65 25.342C189.457 25.614 189.361 25.9313 189.361 26.294C189.361 26.566 189.417 26.8153 189.531 27.042C189.655 27.2573 189.814 27.4443 190.007 27.603C190.211 27.7617 190.432 27.8863 190.67 27.977C190.919 28.0563 191.174 28.096 191.435 28.096C191.797 28.096 192.137 28.0167 192.455 27.858C192.772 27.6993 193.027 27.484 193.22 27.212C193.412 26.94 193.509 26.634 193.509 26.294ZM189.735 21.347C189.735 21.653 189.82 21.9137 189.99 22.129C190.16 22.3443 190.375 22.5087 190.636 22.622C190.908 22.724 191.174 22.775 191.435 22.775C191.707 22.775 191.967 22.7183 192.217 22.605C192.477 22.4917 192.693 22.333 192.863 22.129C193.044 21.9137 193.135 21.6473 193.135 21.33C193.135 21.0467 193.055 20.803 192.897 20.599C192.738 20.395 192.528 20.2363 192.268 20.123C192.018 20.0097 191.735 19.953 191.418 19.953C191.123 19.953 190.845 20.0097 190.585 20.123C190.324 20.2363 190.114 20.4007 189.956 20.616C189.808 20.82 189.735 21.0637 189.735 21.347ZM201.086 30V17.93H209.195V19.987H203.432V23.098H208.226V25.002H203.432V30H201.086ZM210.219 30V21.092H212.497V30H210.219ZM210.219 19.851V17.59H212.497V19.851H210.219ZM219.448 23.064C218.757 23.064 218.139 23.2 217.595 23.472C217.051 23.7327 216.66 24.1123 216.422 24.611V30H214.144V21.092H216.235V22.996C216.552 22.384 216.955 21.9023 217.442 21.551C217.929 21.1997 218.445 21.007 218.989 20.973C219.114 20.973 219.21 20.973 219.278 20.973C219.346 20.973 219.403 20.9787 219.448 20.99V23.064ZM223.591 30.17C222.832 30.17 222.107 30.0453 221.415 29.796C220.724 29.5467 220.129 29.1783 219.63 28.691L220.446 27.212C220.979 27.6427 221.5 27.96 222.01 28.164C222.532 28.368 223.03 28.47 223.506 28.47C223.948 28.47 224.3 28.3907 224.56 28.232C224.832 28.0733 224.968 27.8353 224.968 27.518C224.968 27.3027 224.895 27.1383 224.747 27.025C224.6 26.9003 224.385 26.7927 224.101 26.702C223.829 26.6113 223.495 26.5093 223.098 26.396C222.441 26.1807 221.891 25.971 221.449 25.767C221.007 25.563 220.673 25.308 220.446 25.002C220.231 24.6847 220.123 24.2823 220.123 23.795C220.123 23.2057 220.271 22.7013 220.565 22.282C220.871 21.8513 221.291 21.517 221.823 21.279C222.367 21.041 223.002 20.922 223.727 20.922C224.362 20.922 224.963 21.024 225.529 21.228C226.096 21.4207 226.612 21.738 227.076 22.18L226.158 23.625C225.705 23.2737 225.274 23.0187 224.866 22.86C224.458 22.69 224.045 22.605 223.625 22.605C223.387 22.605 223.161 22.6333 222.945 22.69C222.741 22.7467 222.571 22.843 222.435 22.979C222.311 23.1037 222.248 23.285 222.248 23.523C222.248 23.7383 222.305 23.9083 222.418 24.033C222.543 24.1463 222.724 24.2483 222.962 24.339C223.212 24.4297 223.512 24.5317 223.863 24.645C224.577 24.849 225.178 25.0587 225.665 25.274C226.164 25.4893 226.538 25.7557 226.787 26.073C227.037 26.379 227.161 26.804 227.161 27.348C227.161 28.232 226.838 28.9233 226.192 29.422C225.546 29.9207 224.679 30.17 223.591 30.17ZM233.591 29.541C233.398 29.6203 233.166 29.711 232.894 29.813C232.622 29.915 232.327 29.9943 232.01 30.051C231.704 30.119 231.392 30.153 231.075 30.153C230.656 30.153 230.27 30.0793 229.919 29.932C229.568 29.7847 229.284 29.5523 229.069 29.235C228.865 28.9063 228.763 28.4813 228.763 27.96V22.843H227.59V21.092H228.763V18.202H231.041V21.092H232.911V22.843H231.041V27.195C231.052 27.501 231.137 27.722 231.296 27.858C231.455 27.994 231.653 28.062 231.891 28.062C232.129 28.062 232.361 28.0223 232.588 27.943C232.815 27.8637 232.996 27.7957 233.132 27.739L233.591 29.541ZM246.795 19.987H242.936V30H240.607V19.987H236.748V17.93H246.795V19.987ZM247.665 30V21.092H249.943V30H247.665ZM247.665 19.851V17.59H249.943V19.851H247.665ZM265.428 30H263.15V25.002C263.15 24.2993 263.025 23.7837 262.776 23.455C262.538 23.115 262.203 22.945 261.773 22.945C261.331 22.945 260.906 23.1207 260.498 23.472C260.101 23.812 259.818 24.2597 259.648 24.815V30H257.37V25.002C257.37 24.288 257.245 23.7667 256.996 23.438C256.758 23.1093 256.423 22.945 255.993 22.945C255.551 22.945 255.126 23.115 254.718 23.455C254.321 23.795 254.038 24.2427 253.868 24.798V30H251.59V21.092H253.647V22.741C253.987 22.163 254.44 21.721 255.007 21.415C255.573 21.0977 256.225 20.939 256.962 20.939C257.698 20.939 258.271 21.1203 258.679 21.483C259.098 21.8457 259.364 22.2933 259.478 22.826C259.84 22.214 260.299 21.7493 260.855 21.432C261.421 21.1033 262.056 20.939 262.759 20.939C263.314 20.939 263.762 21.041 264.102 21.245C264.453 21.4377 264.725 21.704 264.918 22.044C265.11 22.3727 265.241 22.7467 265.309 23.166C265.388 23.5853 265.428 24.0103 265.428 24.441V30ZM271.134 30.17C270.42 30.17 269.774 30.051 269.196 29.813C268.618 29.5637 268.125 29.2293 267.717 28.81C267.309 28.3793 266.992 27.892 266.765 27.348C266.55 26.7927 266.442 26.209 266.442 25.597C266.442 24.747 266.629 23.9707 267.003 23.268C267.388 22.5653 267.932 22.0043 268.635 21.585C269.349 21.1543 270.188 20.939 271.151 20.939C272.126 20.939 272.959 21.1543 273.65 21.585C274.341 22.0043 274.868 22.5653 275.231 23.268C275.605 23.9593 275.792 24.7073 275.792 25.512C275.792 25.648 275.786 25.7897 275.775 25.937C275.764 26.073 275.752 26.1863 275.741 26.277H268.856C268.901 26.7303 269.032 27.127 269.247 27.467C269.474 27.807 269.757 28.0677 270.097 28.249C270.448 28.419 270.822 28.504 271.219 28.504C271.672 28.504 272.097 28.3963 272.494 28.181C272.902 27.9543 273.18 27.6597 273.327 27.297L275.282 27.841C275.067 28.2943 274.755 28.6967 274.347 29.048C273.95 29.3993 273.48 29.677 272.936 29.881C272.392 30.0737 271.791 30.17 271.134 30.17ZM268.805 24.832H273.463C273.418 24.3787 273.287 23.9877 273.072 23.659C272.868 23.319 272.596 23.0583 272.256 22.877C271.916 22.6843 271.536 22.588 271.117 22.588C270.709 22.588 270.335 22.6843 269.995 22.877C269.666 23.0583 269.394 23.319 269.179 23.659C268.975 23.9877 268.85 24.3787 268.805 24.832Z" fill="white"/>
</svg>
