<svg width="40" height="40" viewBox="0 0 40 40" fill="none" xmlns="http://www.w3.org/2000/svg">
<path d="M19.2942 30.7059C19.1766 30.7059 19.0589 30.7059 18.9413 30.5882C18.5883 30.4706 18.4707 30.1176 18.4707 29.7647V21.2941L14.706 24C14.353 24.2353 13.7648 24.2353 13.5295 23.7647C13.2942 23.4118 13.2942 22.8235 13.7648 22.5882L18.0001 19.5294L13.6472 15.8823C13.2942 15.5294 13.1766 15.0588 13.5295 14.5882C13.8825 14.2353 14.353 14.1176 14.8236 14.4706L18.5883 17.5294V10.2353C18.5883 9.88234 18.8236 9.64704 19.0589 9.41175C19.4119 9.2941 19.7648 9.2941 20.0001 9.5294L26.4707 14.2353C26.706 14.3529 26.8236 14.7059 26.8236 14.9412C26.8236 15.1765 26.706 15.5294 26.4707 15.647L20.8236 19.647L26.4707 24.3529C26.706 24.4706 26.8236 24.8235 26.8236 25.0588C26.8236 25.2941 26.706 25.5294 26.4707 25.7647L20.0001 30.4706C19.6472 30.5882 19.5295 30.7059 19.2942 30.7059ZM20.2354 21.5294V28.1176L24.4707 25.0588L20.2354 21.5294ZM20.2354 11.8823V17.8823L24.353 14.9412L20.2354 11.8823Z" fill="#F58B75"/>
</svg>
