<svg width="40" height="41" viewBox="0 0 40 41" fill="none" xmlns="http://www.w3.org/2000/svg">
<path d="M26.969 22.4125C28.5457 19.187 28.9478 15.782 28.3261 12.918C28.2524 12.5787 27.8867 12.4 27.5737 12.5503C24.932 13.819 22.4921 16.228 20.9154 19.4534C19.2208 22.9201 18.8831 26.5942 19.715 29.581C22.5828 28.4026 25.2745 25.8792 26.969 22.4125Z" fill="#FFCBCE"/>
<path d="M13.0414 22.4125C11.4648 19.187 11.0626 15.782 11.6843 12.918C11.758 12.5787 12.1237 12.4 12.4367 12.5503C15.0784 13.819 17.5183 16.228 19.095 19.4534C20.7896 22.9201 21.1273 26.5942 20.2955 29.581C17.4276 28.4026 14.7359 25.8792 13.0414 22.4125Z" fill="#FFCBCE"/>
<path d="M20.7494 10.5137L20.1094 10.4844C18.1214 12.9684 17.0625 16.1148 17.0625 20.0195C17.0625 24.1806 17.8217 27.9002 20.0421 30.4C22.2624 27.9002 23.6752 24.1806 23.6752 20.0195C23.6752 16.3194 22.5581 12.9684 20.7494 10.5137Z" fill="#FFB3B7"/>
<path d="M17.8063 20.0196C17.8063 16.3198 18.9403 12.9684 20.7487 10.5138C20.6485 10.3778 20.5468 10.2453 20.4425 10.115C20.2393 9.86109 19.8434 9.86109 19.6402 10.115C17.6522 12.599 16.4082 16.1149 16.4082 20.0196C16.4082 24.1807 17.821 27.9003 20.0413 30.4001C20.285 30.1257 20.517 29.8343 20.7404 29.5317C18.928 27.0763 17.8063 23.7242 17.8063 20.0196Z" fill="#FF9A9F"/>
<path d="M29.143 30.1609C32.1592 29.047 34.5315 27.0978 35.9179 24.8634C36.1035 24.5644 35.9609 24.1782 35.6255 24.0716C33.1195 23.2747 30.0498 23.3354 27.0336 24.4492C23.7627 25.6572 21.2491 27.8475 19.9287 30.3186C22.5383 31.3382 25.8722 31.3689 29.143 30.1609Z" fill="#FF8086"/>
<path d="M10.8569 30.1609C7.84075 29.047 5.46849 27.0978 4.08205 24.8634C3.89649 24.5644 4.03912 24.1782 4.37449 24.0716C6.88043 23.2747 9.95019 23.3354 12.9664 24.4492C16.2373 25.6572 18.7509 27.8475 20.0713 30.3186C17.4617 31.3382 14.1278 31.3689 10.8569 30.1609Z" fill="#FF8086"/>
<path d="M24.7763 20.7018C27.5374 17.9408 30.9031 16.3343 34.0653 15.9836C34.3885 15.9477 34.6684 16.2276 34.6325 16.5508C34.2818 19.713 32.6754 23.0788 29.9143 25.8398C26.9719 28.7822 23.3428 30.4133 20.0052 30.6109L19.6133 29.8087L20 29.2768C20 29.2768 20.2025 29.0278 20.2037 29.0213C20.7472 26.1508 22.2958 23.1823 24.7763 20.7018Z" fill="#FF9A9F"/>
<path d="M15.2341 20.7019C12.6835 18.1513 9.61688 16.5859 6.67138 16.0857L6.15625 16.6252C6.507 19.7874 7.83269 22.5829 10.5938 25.344C13.5361 28.2863 16.2874 30.0162 19.625 30.2138L19.8508 29.277C19.3527 26.3277 17.7882 23.256 15.2341 20.7019Z" fill="#FF9A9F"/>
<path d="M20.0003 29.2769C17.051 28.7789 13.8302 27.2144 11.276 24.6602C8.72549 22.1098 7.17199 19.031 6.67161 16.0856C6.42842 16.0443 6.18655 16.0103 5.94536 15.9836C5.62217 15.9477 5.34223 16.2276 5.37811 16.5508C5.72886 19.7131 7.3353 23.0788 10.0964 25.8399C13.0387 28.7823 16.6678 30.4134 20.0054 30.611L20.0003 29.2769Z" fill="#FF8086"/>
</svg>
