<svg width="124" height="89" viewBox="0 0 124 89" fill="none" xmlns="http://www.w3.org/2000/svg">
<g clip-path="url(#clip0_3556_4136)">
<path d="M81.0069 61.7936H46.6094C44.3166 61.7936 42.458 59.9556 42.458 57.6883V4.88406C42.458 2.61679 44.3166 0.778809 46.6094 0.778809H81.0069C83.2997 0.778809 85.1583 2.61679 85.1583 4.88406V57.6883C85.1583 59.9556 83.2996 61.7936 81.0069 61.7936Z" fill="white"/>
<path d="M81.0068 61.8983H46.6093C44.2615 61.8983 42.3516 60.0095 42.3516 57.688V4.88366C42.3516 2.56211 44.2615 0.67334 46.6093 0.67334H81.0068C83.3545 0.67334 85.2645 2.56211 85.2645 4.88366V57.6879C85.2645 60.0095 83.3545 61.8983 81.0068 61.8983ZM46.6093 0.883521C44.3787 0.883521 42.5641 2.67797 42.5641 4.88366V57.6879C42.5641 59.8936 44.3787 61.6881 46.6093 61.6881H81.0068C83.2373 61.6881 85.0519 59.8936 85.0519 57.6879V4.88366C85.0519 2.67797 83.2373 0.883521 81.0068 0.883521H46.6093Z" fill="black"/>
<path d="M46.6097 58.6409C46.0785 58.6409 45.6465 58.2137 45.6465 57.6884V4.88412C45.6465 4.35888 46.0785 3.93164 46.6097 3.93164H81.0072C81.5384 3.93164 81.9704 4.35888 81.9704 4.88412V57.6884C81.9704 58.2136 81.5384 58.6409 81.0072 58.6409L46.6097 58.6409Z" fill="#EFEFEF"/>
<path d="M24.776 65.7911C35.5383 65.7911 44.2629 59.3698 44.2629 51.4489C44.2629 43.5279 35.5383 37.1067 24.776 37.1067C14.0136 37.1067 5.28906 43.5279 5.28906 51.4489C5.28906 59.3698 14.0136 65.7911 24.776 65.7911Z" fill="white"/>
<path d="M24.7759 65.8963C13.9721 65.8963 5.18262 59.4153 5.18262 51.4491C5.18262 43.4828 13.9721 37.0017 24.7759 37.0017C35.5795 37.0017 44.369 43.4828 44.369 51.4491C44.369 59.4153 35.5795 65.8963 24.7759 65.8963ZM24.7759 37.2119C14.0892 37.2119 5.39516 43.5987 5.39516 51.4491C5.39516 59.2994 14.0893 65.6861 24.7759 65.6861C35.4624 65.6861 44.1565 59.2994 44.1565 51.4491C44.1565 43.5987 35.4624 37.2119 24.7759 37.2119Z" fill="black"/>
<path d="M1.91196 86.8786C1.89911 86.8786 1.88607 86.8763 1.87336 86.8714C1.81871 86.8504 1.79161 86.7894 1.81296 86.7353L11.4834 62.1911C11.5048 62.1369 11.5665 62.11 11.621 62.1314C11.6757 62.1524 11.7026 62.2133 11.6814 62.2674L2.01096 86.8117C1.99463 86.8532 1.95448 86.8786 1.91196 86.8786Z" fill="black"/>
<path d="M1.89443 88.0041C2.59444 88.0041 3.16191 87.443 3.16191 86.7507C3.16191 86.0585 2.59444 85.4973 1.89443 85.4973C1.19442 85.4973 0.626953 86.0585 0.626953 86.7507C0.626953 87.443 1.19442 88.0041 1.89443 88.0041Z" fill="black"/>
<path d="M47.6399 86.8788C47.5974 86.8788 47.5573 86.8534 47.541 86.8119L37.8705 62.2676C37.8493 62.2136 37.8762 62.1526 37.9309 62.1316C37.9855 62.1103 38.0472 62.1371 38.0685 62.1913L47.739 86.7355C47.7602 86.7896 47.7333 86.8506 47.6786 86.8716C47.6659 86.8765 47.6529 86.8788 47.6399 86.8788Z" fill="black"/>
<path d="M47.6571 88.0046C48.3571 88.0046 48.9246 87.4434 48.9246 86.7512C48.9246 86.059 48.3571 85.4978 47.6571 85.4978C46.9571 85.4978 46.3896 86.059 46.3896 86.7512C46.3896 87.4434 46.9571 88.0046 47.6571 88.0046Z" fill="black"/>
<path d="M10.8224 46.8403C10.723 47.2169 7.5254 64.1629 29.932 63.61L32.774 54.8567L10.8224 46.8403Z" fill="white"/>
<path d="M28.8687 63.7286C21.595 63.7286 16.3794 61.819 13.3543 58.0452C9.39069 53.1008 10.7044 46.8737 10.7201 46.8139C10.7277 46.7852 10.7472 46.761 10.7738 46.7472C10.8006 46.7335 10.8318 46.7317 10.8598 46.7418L32.8115 54.7581C32.8648 54.7776 32.8933 54.8353 32.8758 54.8889L30.0339 63.6423C30.02 63.6848 29.9805 63.7141 29.9353 63.7152C29.5753 63.724 29.2192 63.7286 28.8687 63.7286ZM10.9043 46.9821C10.7541 47.8543 9.97426 53.4904 13.5209 57.9146C16.5034 61.6351 21.6641 63.5181 28.8681 63.5183C29.1932 63.5183 29.5212 63.5144 29.8546 63.5068L32.6423 54.9204L10.9043 46.9821Z" fill="black"/>
<path d="M27.5121 56.9216L25.854 85.8233C25.7861 87.0073 26.7387 88.0043 27.9379 88.0043H42.265C42.8385 88.0043 43.187 87.379 42.8807 86.8995L41.457 84.6708C41.2103 84.2846 41.0791 83.838 41.0788 83.3811C41.0759 79.5809 40.9334 61.3892 38.488 58.3188L27.5121 56.9216Z" fill="white"/>
<path d="M42.2649 88.1098H27.9379C27.3284 88.1098 26.7622 87.8685 26.3435 87.4304C25.9248 86.9923 25.7132 86.4196 25.7478 85.8177L27.406 56.9162C27.4077 56.887 27.4215 56.8599 27.4442 56.8412C27.4669 56.8228 27.4958 56.8146 27.5256 56.8178L38.5014 58.2149C38.529 58.2185 38.5541 58.2326 38.5713 58.2541C41.0436 61.3582 41.1822 79.7301 41.1849 83.3814C41.1853 83.8186 41.3104 84.2451 41.5467 84.615L42.9705 86.8438C43.1353 87.1019 43.1447 87.4157 42.9957 87.683C42.8468 87.9502 42.5735 88.1098 42.2649 88.1098ZM27.6117 57.0407L25.96 85.8296C25.9288 86.3731 26.1199 86.8903 26.498 87.286C26.876 87.6817 27.3875 87.8996 27.9379 87.8996H42.2649C42.495 87.8996 42.6986 87.7807 42.8097 87.5815C42.9207 87.3823 42.9136 87.1483 42.7908 86.956L41.367 84.7273C41.1093 84.3238 40.9728 83.8585 40.9724 83.3816C40.9697 79.7554 40.8344 61.5656 38.4306 58.4178L27.6117 57.0407Z" fill="black"/>
<path d="M33.6525 84.8016C31.2317 84.8016 28.8111 84.4745 26.4604 83.8203C26.4038 83.8046 26.3709 83.7465 26.3868 83.6907C26.4027 83.6348 26.4621 83.6023 26.5179 83.6179C31.108 84.8953 35.966 84.9159 40.5669 83.6782C40.6235 83.6628 40.682 83.6959 40.6974 83.7519C40.7128 83.808 40.6794 83.8657 40.6228 83.8809C38.341 84.4949 35.9966 84.8016 33.6525 84.8016Z" fill="black"/>
<path d="M10.917 46.8359L10.7885 47.4689C10.2234 50.2522 11.8309 53.0188 14.5471 53.9377L35.9413 61.1754C39.3924 62.343 43.1941 61.8862 46.2606 59.9331C47.4115 59.2001 48.6165 58.3976 49.7083 57.6018C51.1639 56.5409 50.9816 54.3374 49.3696 53.5272C43.8238 50.7401 31.5074 45.3036 16.1757 43.1625C13.7142 42.8187 11.4063 44.4256 10.917 46.8359Z" fill="white"/>
<path d="M39.82 61.9223C38.5084 61.9223 37.1881 61.7085 35.9065 61.2748L14.5123 54.0371C11.7564 53.1048 10.1105 50.2722 10.6839 47.4481L10.8124 46.8151C11.3114 44.3569 13.6736 42.7069 16.1902 43.0584C31.351 45.1756 43.5156 50.4675 49.4173 53.4335C50.2069 53.8303 50.7218 54.588 50.7947 55.4604C50.8678 56.3338 50.485 57.166 49.771 57.6864C48.791 58.4006 47.6292 59.1863 46.3177 60.0214C44.3438 61.2786 42.095 61.9223 39.82 61.9223ZM11.0209 46.8565L10.8924 47.4896C10.3399 50.2106 11.9257 52.9399 14.5811 53.8382L35.9754 61.0759C39.4178 62.2407 43.1454 61.7919 46.2028 59.8447C47.5105 59.0119 48.6686 58.2288 49.6449 57.5173C50.2993 57.0403 50.6499 56.2779 50.583 55.4776C50.5162 54.6785 50.0445 53.9844 49.3211 53.6209C43.4311 50.6607 31.2909 45.3795 16.1606 43.2664C13.7554 42.9309 11.4978 44.5075 11.0209 46.8565Z" fill="black"/>
<path d="M38.821 61.4692C38.7978 61.4692 38.7745 61.4617 38.7549 61.4463C38.709 61.4102 38.7014 61.3441 38.738 61.2986C41.2046 58.2357 42.0977 53.984 41.0687 50.2028C41.0534 50.1468 41.087 50.0891 41.1437 50.074C41.2002 50.0587 41.2587 50.0922 41.274 50.1482C42.3201 53.9926 41.4121 58.3153 38.9042 61.4296C38.8832 61.4556 38.8522 61.4692 38.821 61.4692Z" fill="black"/>
<path d="M23.236 45.3665C23.236 45.3665 18.0099 48.4105 17.3915 50.6692C16.7732 52.9279 18.0922 53.6227 18.3889 52.5764C18.3889 52.5764 18.3736 53.855 19.1492 54.1312C19.9248 54.4073 19.85 53.3816 19.85 53.3816C19.85 53.3816 19.9774 54.4467 20.6592 54.6046C21.341 54.7624 21.4607 53.1844 21.4607 53.1844C21.4607 53.1844 21.4806 53.9339 21.8197 54.0917C22.1588 54.2495 22.6961 54.1312 22.9276 53.0247C23.0105 52.6282 24.2094 52.3787 25.6178 51.8781C27.0263 51.3775 28.6443 50.626 28.6443 50.626C28.6443 50.626 28.0831 45.6161 23.236 45.3665Z" fill="white"/>
<path d="M20.7538 54.7206C20.7151 54.7206 20.6754 54.7158 20.635 54.7065C20.2284 54.6124 20.0023 54.2449 19.8796 53.9222C19.8395 54.025 19.7793 54.1209 19.6895 54.1883C19.5413 54.2991 19.3477 54.3131 19.1132 54.2296C18.5543 54.0307 18.3712 53.3844 18.3113 52.9603C18.1584 53.1393 17.9576 53.187 17.7851 53.1399C17.2527 52.9948 16.8979 52.0699 17.2891 50.6414C17.9116 48.3675 22.9672 45.4007 23.1821 45.2756C23.2002 45.2652 23.2205 45.2599 23.2416 45.2612C28.1224 45.5125 28.7442 50.5631 28.7499 50.6141C28.7549 50.6589 28.7306 50.7017 28.6894 50.7208C28.6732 50.7283 27.0508 51.4803 25.6538 51.9768C25.2764 52.1109 24.909 52.2286 24.585 52.3325C23.7773 52.5913 23.0799 52.815 23.0316 53.0458C22.8757 53.7913 22.585 54.0752 22.3687 54.1821C22.1798 54.2756 21.9688 54.2768 21.7745 54.1865C21.6254 54.1172 21.5292 53.9654 21.4672 53.8003C21.3905 54.1145 21.2588 54.4648 21.0375 54.6253C20.95 54.6888 20.855 54.7206 20.7538 54.7206ZM19.8502 53.2763C19.9034 53.2763 19.9492 53.3156 19.9556 53.3689C19.9567 53.3788 20.0826 54.3629 20.6833 54.5019C20.7688 54.5216 20.8412 54.5071 20.9118 54.4559C21.212 54.238 21.3333 53.4583 21.3547 53.1762C21.3588 53.1213 21.4051 53.079 21.4606 53.079C21.4615 53.079 21.4623 53.079 21.4632 53.0791C21.5197 53.0805 21.5654 53.1254 21.5669 53.1812C21.5718 53.3591 21.6372 53.8903 21.8649 53.9964C21.9427 54.0327 22.0993 54.0803 22.2736 53.9941C22.4478 53.908 22.6848 53.6661 22.8234 53.0032C22.8968 52.6527 23.5422 52.4458 24.5193 52.1326C24.8419 52.0291 25.2076 51.912 25.582 51.7789C26.8037 51.3448 28.2009 50.713 28.5281 50.5631C28.4321 49.9475 27.6138 45.7171 23.2627 45.4728C22.8547 45.7146 18.0714 48.5879 17.4942 50.6964C17.1212 52.0588 17.481 52.839 17.8416 52.9374C18.0335 52.9893 18.2037 52.8402 18.2865 52.5478C18.3008 52.497 18.3509 52.4643 18.4039 52.4721C18.4566 52.4795 18.4956 52.5246 18.4951 52.5772C18.495 52.5893 18.4904 53.7846 19.1852 54.032C19.3476 54.0897 19.474 54.0861 19.5608 54.021C19.7384 53.8883 19.7532 53.5195 19.7441 53.3887C19.74 53.3318 19.7826 53.2821 19.8401 53.2768C19.8434 53.2764 19.8468 53.2763 19.8502 53.2763Z" fill="black"/>
<path d="M22.4375 51.5105C21.8939 51.8959 21.5261 52.5149 21.4502 53.1721L22.4375 51.5105Z" fill="white"/>
<path d="M21.4501 53.2774C21.446 53.2774 21.442 53.2773 21.438 53.2767C21.3796 53.2702 21.3377 53.2181 21.3445 53.1604C21.4235 52.4756 21.8089 51.827 22.3753 51.4253C22.4233 51.3913 22.4895 51.4023 22.5237 51.4494C22.5579 51.4966 22.5469 51.5623 22.4993 51.596C21.9808 51.9637 21.628 52.5575 21.5556 53.1842C21.5494 53.2379 21.5034 53.2774 21.4501 53.2774Z" fill="black"/>
<path d="M20.7281 51.0681C20.1451 51.6901 19.8181 52.5402 19.8356 53.3881L20.7281 51.0681Z" fill="white"/>
<path d="M19.8355 53.4934C19.7778 53.4934 19.7305 53.4477 19.7292 53.3905C19.711 52.513 20.0467 51.6405 20.65 50.9968C20.6898 50.9542 20.7571 50.9517 20.8001 50.9912C20.8432 51.0306 20.8457 51.0971 20.8058 51.1397C20.2396 51.7439 19.9248 52.5627 19.9418 53.3862C19.9429 53.4442 19.8963 53.4922 19.8377 53.4934C19.837 53.4934 19.8362 53.4934 19.8355 53.4934Z" fill="black"/>
<path d="M19.1866 50.2195C18.7538 50.945 18.4773 51.7612 18.3809 52.5982L19.1866 50.2195Z" fill="white"/>
<path d="M18.3807 52.7033C18.3768 52.7033 18.3726 52.7031 18.3686 52.7026C18.3103 52.696 18.2684 52.644 18.2751 52.5863C18.3729 51.7381 18.6564 50.9013 19.095 50.1662C19.1248 50.1162 19.1899 50.0996 19.2405 50.1291C19.291 50.1586 19.3078 50.223 19.2781 50.2729C18.8545 50.9828 18.5808 51.791 18.4862 52.6101C18.48 52.6637 18.4341 52.7033 18.3807 52.7033Z" fill="black"/>
<path d="M23.8046 45.6705C23.959 45.7029 27.487 46.6126 28.6448 50.6257C28.6448 50.6257 33.2275 49.0379 36.9287 47.8409C39.269 47.084 40.7669 44.8225 40.5295 42.399C40.2365 39.4081 39.5192 35.3062 37.7847 31.6094C36.9059 29.7364 34.9173 28.6246 32.8408 28.8403C29.2219 29.2163 23.1681 30.0494 18.1303 31.7401C16.3278 32.345 15.0623 33.9482 14.912 35.8246C14.6852 38.6565 14.6768 42.8175 16.2037 45.1015C18.666 48.7846 23.8046 45.6705 23.8046 45.6705Z" fill="#F58B75"/>
<path d="M24.0253 45.5883C23.9894 45.5883 23.9544 45.5702 23.9343 45.5376C23.9039 45.4879 23.92 45.4234 23.9702 45.3933C25.7845 44.3072 27.3074 42.775 28.3741 40.9621C28.4036 40.9119 28.4687 40.8951 28.5194 40.9241C28.5701 40.9533 28.5873 41.0176 28.5578 41.0678C27.4733 42.9109 25.9249 44.4689 24.0802 45.5731C24.063 45.5834 24.0441 45.5883 24.0253 45.5883Z" fill="black"/>
<path d="M19.5487 40.9151C19.5212 40.9151 19.4937 40.9046 19.4728 40.8836C19.4317 40.8422 19.4323 40.7756 19.4743 40.735L23.3203 37.0016C23.362 36.961 23.4293 36.9613 23.4706 37.003C23.5117 37.0444 23.5111 37.111 23.4691 37.1516L19.6231 40.885C19.6024 40.905 19.5756 40.9151 19.5487 40.9151Z" fill="black"/>
<path d="M26.7782 43.4518C26.7355 43.4518 26.6952 43.4262 26.679 43.3844C26.6579 43.3302 26.6853 43.2695 26.7401 43.2486C29.2067 42.3122 31.7621 41.5368 34.3354 40.9441C34.3923 40.9304 34.4496 40.9661 34.4629 41.0226C34.4763 41.079 34.4407 41.1356 34.3835 41.1487C31.8198 41.7394 29.2738 42.5118 26.8163 43.4449C26.8037 43.4496 26.7908 43.4518 26.7782 43.4518Z" fill="black"/>
<path d="M33.4999 41.1958C33.451 41.1958 33.407 41.1624 33.3962 41.1132L32.5933 37.4827C32.5807 37.426 32.6171 37.3699 32.6744 37.3577C32.732 37.3453 32.7885 37.3812 32.8009 37.4378L33.6037 41.0683C33.6163 41.1251 33.58 41.1811 33.5227 41.1934C33.515 41.195 33.5074 41.1958 33.4999 41.1958Z" fill="black"/>
<path d="M24.484 29.5283L24.3564 31.246C24.3564 31.246 22.458 31.5903 22.6744 32.6281C22.8908 33.6658 25.2338 34.2587 27.2817 34.0101C29.7168 33.7145 31.7547 30.9818 29.556 30.2893C27.3572 29.5967 24.484 29.5283 24.484 29.5283Z" fill="white"/>
<path d="M24.2675 32.3283C24.2638 32.3283 24.2599 32.3281 24.2561 32.3276C24.1978 32.3215 24.1555 32.2696 24.1617 32.212L24.2619 31.2874C24.268 31.2297 24.3196 31.1872 24.3789 31.1941C24.4372 31.2002 24.4794 31.2521 24.4732 31.3098L24.3731 32.2343C24.3672 32.2882 24.3211 32.3283 24.2675 32.3283Z" fill="black"/>
<path d="M23.8379 36.5923C23.8379 36.5923 25.6295 39.354 28.5874 40.3885L31.9201 35.4123C31.9201 35.4123 32.8276 35.0001 33.2708 34.3818C33.2708 34.3818 33.313 34.8487 33.693 34.9531C34.0729 35.0574 35.221 33.5339 34.6364 32.6573C34.6364 32.6573 34.706 31.8333 33.9885 31.5357C33.9885 31.5357 33.7686 30.5573 31.9129 30.7919C30.1369 31.0164 27.2824 31.9465 23.8379 36.5923Z" fill="white"/>
<path d="M25.3504 34.8434C25.3251 34.8434 25.2998 34.8345 25.2795 34.8166C25.2358 34.7779 25.2321 34.7113 25.2712 34.6682C27.4332 32.2802 29.6014 30.9781 31.8998 30.6877C31.9583 30.6812 32.0112 30.721 32.0187 30.7786C32.0261 30.8362 31.985 30.8888 31.9268 30.8963C29.6812 31.18 27.5561 32.4596 25.4296 34.8083C25.4086 34.8315 25.3796 34.8434 25.3504 34.8434Z" fill="black"/>
<path d="M34.6677 32.8259C34.6244 32.8259 34.5837 32.7996 34.5679 32.7571C34.5102 32.6018 34.317 32.5217 34.1535 32.5217C34.1513 32.5217 34.1491 32.5218 34.1469 32.5218C33.9499 32.5244 33.7501 32.6136 33.5738 32.6923C33.5201 32.7162 33.4573 32.6925 33.4333 32.6397C33.4091 32.5869 33.4328 32.5246 33.4864 32.5008C33.6816 32.4136 33.9028 32.3148 34.144 32.3116C34.147 32.3116 34.1501 32.3115 34.1531 32.3115C34.384 32.3115 34.6716 32.4273 34.7674 32.6845C34.7877 32.739 34.7595 32.7994 34.7044 32.8195C34.6923 32.8238 34.6799 32.8259 34.6677 32.8259Z" fill="black"/>
<path d="M33.082 31.8733C33.0464 31.8733 33.0116 31.8557 32.9915 31.8235C32.9607 31.7742 32.976 31.7094 33.0259 31.6788C33.3199 31.4988 33.6837 31.4296 34.0244 31.4896C34.0823 31.4998 34.1207 31.5543 34.1105 31.6115C34.1002 31.6685 34.0449 31.7069 33.9873 31.6966C33.6978 31.6459 33.3882 31.7043 33.1378 31.8576C33.1203 31.8683 33.1011 31.8733 33.082 31.8733Z" fill="black"/>
<path d="M22.8934 31.0918C22.5375 31.0031 22.1802 30.8796 21.8992 30.646C21.6182 30.4124 21.4248 30.0495 21.4781 29.6903C21.5314 29.3312 21.8833 29.0158 22.2458 29.0727C21.7485 29.1273 21.2588 28.8246 20.9913 28.4065C20.7238 27.9883 20.6484 27.4752 20.6616 26.9806C20.6917 25.8473 21.1565 24.7516 21.8436 23.8441C22.5307 22.9367 23.4314 22.2053 24.392 21.5866C25.1193 21.1183 25.9105 20.7014 26.7728 20.6044C27.6351 20.5073 28.5841 20.7872 29.0903 21.4843C29.5964 22.1814 29.4808 23.3086 28.7341 23.7459C29.4769 23.9378 29.8758 24.9186 29.4742 25.5657C29.099 26.1701 28.2736 26.3522 27.8241 26.9049C27.4322 27.3867 27.3979 28.0513 27.2288 28.6466C26.99 29.4878 24.4773 29.6288 24.4127 30.4981C24.3572 31.2456 23.9549 31.3563 22.8934 31.0918Z" fill="black"/>
<path d="M27.2825 24.2229C27.2825 24.2229 30.9231 29.9761 29.2909 31.2987C27.6587 32.6214 26.1594 31.7063 25.1469 30.4421C25.1469 30.4421 23.906 31.4079 23.1672 30.2965C22.4284 29.1851 23.6394 28.9434 24.1635 29.2394C24.1635 29.2394 25.1877 29.15 24.699 28.6147C23.9935 27.8422 22.9977 26.914 27.2825 24.2229Z" fill="white"/>
<path d="M27.6584 32.0514C27.5791 32.0514 27.4998 32.0472 27.4202 32.0387C26.4402 31.9345 25.6416 31.2083 25.1269 30.5855C24.93 30.7168 24.4236 31.006 23.8997 30.9214C23.5694 30.8682 23.2929 30.6775 23.0781 30.3545C22.676 29.7494 22.8493 29.4135 22.9883 29.2671C23.2673 28.9733 23.8383 28.9556 24.185 29.1317C24.3887 29.1085 24.6715 29.0293 24.7182 28.9114C24.7453 28.8432 24.6797 28.7508 24.6199 28.6853L24.5754 28.6368C24.2558 28.2884 23.8936 27.8934 23.9732 27.3102C24.0887 26.4644 25.1221 25.4553 27.2253 24.1344C27.2492 24.1193 27.2784 24.1143 27.3058 24.1205C27.3334 24.1268 27.3574 24.1436 27.3724 24.1673C27.5231 24.4054 31.0432 30.0145 29.3581 31.3801C28.8076 31.8263 28.2368 32.0514 27.6584 32.0514ZM25.1466 30.3371C25.1781 30.3371 25.2091 30.3508 25.2301 30.3769C25.7162 30.984 26.4948 31.7287 27.4429 31.8297C28.0448 31.8939 28.6431 31.6877 29.2234 31.2176C30.6572 30.0556 27.6981 25.1021 27.2483 24.3691C25.2899 25.6093 24.2873 26.581 24.1839 27.3382C24.1175 27.8246 24.4303 28.1657 24.7329 28.4956L24.7777 28.5445C24.9232 28.7038 24.9697 28.8531 24.916 28.9883C24.7998 29.2813 24.2365 29.3387 24.1726 29.3442C24.1512 29.3466 24.1293 29.3414 24.1106 29.3308C23.8478 29.1823 23.3578 29.1852 23.1432 29.4111C22.9304 29.6351 23.087 29.9849 23.2559 30.2391C23.4363 30.5106 23.6642 30.6703 23.9331 30.7138C24.4977 30.8054 25.0754 30.3641 25.0811 30.3596C25.1005 30.3445 25.1237 30.3371 25.1466 30.3371Z" fill="black"/>
<path d="M24.8679 30.0611C24.8496 30.0611 24.8312 30.0565 24.8143 30.0466C24.5633 29.9012 24.2501 29.8736 23.977 29.9733C23.9221 29.9932 23.8609 29.9655 23.8406 29.9109C23.8203 29.8566 23.8484 29.7961 23.9036 29.776C24.2356 29.6549 24.6163 29.6882 24.9218 29.8654C24.9724 29.8947 24.9893 29.9591 24.9597 30.0091C24.9399 30.0425 24.9044 30.0611 24.8679 30.0611Z" fill="black"/>
<path d="M100.364 28.676C100.364 28.676 98.4975 27.0182 98.9773 24.9805C99.6323 22.1993 103.215 20.8659 103.966 22.4375C103.966 22.4375 110.15 21.0564 106.943 28.8951L108.85 34.6954L103.259 34.0954L102.676 29.1712L100.364 28.676Z" fill="black"/>
<path d="M117.608 85.9758C117.568 85.9758 117.53 85.9531 117.512 85.9146L104.219 57.3539C104.194 57.3012 104.218 57.2388 104.271 57.2145C104.324 57.1901 104.387 57.2134 104.412 57.266L117.705 85.8268C117.729 85.8795 117.706 85.9419 117.653 85.9661C117.638 85.9727 117.623 85.9758 117.608 85.9758Z" fill="black"/>
<path d="M118.269 87.9679C118.774 87.8499 119.087 87.3491 118.968 86.8494C118.849 86.3496 118.342 86.0402 117.837 86.1582C117.332 86.2762 117.019 86.7769 117.138 87.2767C117.257 87.7764 117.764 88.0859 118.269 87.9679Z" fill="black"/>
<path d="M91.7419 85.9754C91.7271 85.9754 91.712 85.9723 91.6976 85.9657C91.6443 85.9415 91.6209 85.8791 91.6455 85.8263L104.939 57.2656C104.963 57.213 105.026 57.1896 105.079 57.2141C105.133 57.2383 105.156 57.3007 105.132 57.3535L91.8386 85.9142C91.8207 85.9527 91.7822 85.9754 91.7419 85.9754Z" fill="black"/>
<path d="M91.9584 87.7319C92.3256 87.3688 92.3256 86.7801 91.9584 86.417C91.5912 86.0539 90.9959 86.0539 90.6287 86.417C90.2615 86.7801 90.2615 87.3688 90.6287 87.7319C90.9959 88.095 91.5912 88.095 91.9584 87.7319Z" fill="black"/>
<path d="M88.165 59.0733C88.165 66.0367 95.154 70.1616 103.775 70.1616C112.397 70.1616 119.386 66.0368 119.386 59.0733C119.386 52.1098 112.397 44.9448 103.775 44.9448C95.154 44.9448 88.165 52.1098 88.165 59.0733Z" fill="white"/>
<path d="M103.775 70.2666C99.4456 70.2666 95.5042 69.2186 92.6772 67.3155C89.6557 65.2815 88.0586 62.4313 88.0586 59.0732C88.0586 55.6333 89.7371 52.079 92.6637 49.3216C95.7312 46.4314 99.6774 44.8396 103.775 44.8396C107.873 44.8396 111.819 46.4314 114.887 49.3216C117.813 52.079 119.492 55.6333 119.492 59.0732C119.492 62.4313 117.895 65.2815 114.873 67.3155C112.046 69.2186 108.105 70.2666 103.775 70.2666ZM103.775 45.0498C94.9016 45.0498 88.2711 52.4534 88.2711 59.0732C88.2711 62.3586 89.8361 65.1486 92.7968 67.1417C95.5889 69.0213 99.4879 70.0564 103.775 70.0564C108.063 70.0564 111.962 69.0213 114.754 67.1417C117.714 65.1486 119.279 62.3585 119.279 59.0732C119.279 52.4534 112.649 45.0498 103.775 45.0498Z" fill="black"/>
<path d="M115.138 57.4016C114.819 59.2684 113.928 61.0005 112.657 62.2247C111.385 63.4488 109.741 64.1565 108.08 64.1952L115.138 57.4016Z" fill="white"/>
<path d="M108.08 64.2998C108.022 64.2998 107.975 64.2543 107.974 64.1971C107.972 64.1391 108.019 64.091 108.077 64.0896C109.722 64.0512 111.322 63.3619 112.583 62.1488C113.846 60.9325 114.716 59.2402 115.033 57.3836C115.042 57.3265 115.097 57.2885 115.155 57.2974C115.213 57.3071 115.252 57.3614 115.242 57.4186C114.918 59.3188 114.026 61.0522 112.731 62.2995C111.432 63.5497 109.781 64.2601 108.082 64.2998C108.082 64.2998 108.081 64.2998 108.08 64.2998Z" fill="black"/>
<path d="M96.6795 49.1387C96.6795 49.1387 90.2711 52.3217 87.129 51.8196C83.9869 51.3175 82.0897 45.6174 81.3784 41.1282C81.3784 41.1282 76.8731 41.5417 75.4501 39.8878C75.4501 39.8878 75.0801 39.3641 75.4501 39.1789C75.4501 39.1789 74.7473 38.3513 75.2789 37.9666C75.8105 37.5819 76.1966 37.7468 76.546 37.9666C76.546 37.9666 76.7928 37.5233 77.9013 37.7358C79.0099 37.9483 81.0877 38.2691 82.4299 37.6781C83.7722 37.0872 83.3493 35.7315 83.4228 35.1086C83.4964 34.4858 84.3054 34.1743 84.5996 35.6582C84.8938 37.1422 89.1229 43.1695 89.1229 43.1695C89.1229 43.1695 93.1649 38.4279 95.2592 36.1445C95.8908 35.456 96.742 35.0077 97.6686 34.8746L99.694 34.843L96.6795 49.1387Z" fill="white"/>
<path d="M87.8728 51.9788C87.6041 51.9788 87.3493 51.9612 87.1118 51.9233C85.6478 51.6893 84.347 50.3737 83.2455 48.013C82.1056 45.5697 81.5343 42.7596 81.2886 41.2408C80.5985 41.2937 76.7096 41.514 75.3689 39.9558C75.3382 39.9131 75.1249 39.6007 75.1922 39.3357C75.21 39.2658 75.246 39.2052 75.2983 39.1562C75.175 38.9876 74.9372 38.6129 74.9784 38.2767C74.9982 38.1142 75.0782 37.9813 75.2159 37.8816C75.7467 37.4974 76.1594 37.6162 76.5239 37.8297C76.6654 37.6944 77.0456 37.4649 77.9214 37.6325C79.9325 38.018 81.4351 38.001 82.3864 37.5821C83.3784 37.1454 83.3433 36.2849 83.3151 35.5934C83.3073 35.4019 83.3005 35.2366 83.3171 35.0963C83.3576 34.7533 83.5893 34.4965 83.8681 34.4859C84.0517 34.4794 84.4936 34.5776 84.7038 35.6379C84.9684 36.9728 88.5511 42.1625 89.1313 42.9965C89.7398 42.284 93.2814 38.1441 95.1805 36.0738C95.8264 35.3696 96.7045 34.9068 97.6532 34.7705C97.6577 34.7698 97.6623 34.7695 97.6668 34.7693L99.6922 34.7379C99.7243 34.7379 99.7553 34.7514 99.7758 34.776C99.7964 34.8007 99.8045 34.8332 99.7979 34.8644L96.7834 49.1599C96.7769 49.1913 96.7561 49.218 96.7272 49.2324C96.484 49.3532 91.157 51.9788 87.8728 51.9788ZM81.3783 41.023C81.4301 41.023 81.475 41.0602 81.4832 41.1117C82.2106 45.7023 84.1301 51.2339 87.1456 51.7157C90.08 52.1854 96.0039 49.3503 96.5858 49.067L99.5626 34.9501L97.6768 34.9795C96.7795 35.11 95.949 35.5486 95.3377 36.215C93.2686 38.4709 89.2443 43.1897 89.2039 43.2371C89.1827 43.2621 89.1499 43.2758 89.1177 43.2744C89.0847 43.2729 89.0542 43.2563 89.0354 43.2294C88.8622 42.9825 84.7902 37.1668 84.4952 35.6784C84.3514 34.9531 84.0876 34.6958 83.8852 34.6958C83.8822 34.6958 83.8792 34.6958 83.8762 34.696C83.7056 34.7024 83.5559 34.8851 83.5281 35.1207C83.5135 35.2446 83.5199 35.4022 83.5274 35.5849C83.5549 36.2597 83.5965 37.2794 82.4729 37.774C81.4808 38.2108 79.9359 38.2325 77.881 37.8387C76.8789 37.6468 76.6401 38.0152 76.6379 38.0189C76.623 38.043 76.5983 38.0613 76.5705 38.0677C76.5424 38.0741 76.5127 38.0702 76.4887 38.055C76.1639 37.8506 75.8317 37.6964 75.3415 38.0511C75.2519 38.116 75.2021 38.1979 75.1895 38.3014C75.1464 38.6519 75.5275 39.1067 75.5313 39.1112C75.552 39.1358 75.5605 39.1684 75.5539 39.1998C75.5474 39.2312 75.5267 39.258 75.4978 39.2725C75.4428 39.3 75.4112 39.3363 75.3983 39.3868C75.3611 39.5335 75.4892 39.7597 75.5369 39.8274C76.9017 41.4127 81.324 41.0274 81.3683 41.0232C81.3717 41.0231 81.375 41.023 81.3783 41.023Z" fill="black"/>
<path d="M83.2185 44.7795C82.905 44.7795 82.5922 44.7536 82.2833 44.6999C82.2254 44.6898 82.1868 44.6353 82.1969 44.5781C82.2072 44.521 82.2624 44.4834 82.32 44.4927C84.44 44.8613 86.7627 43.8784 87.9688 42.1029C88.0016 42.0548 88.0676 42.0418 88.1163 42.0743C88.1649 42.1066 88.1779 42.172 88.1452 42.2201C87.0694 43.8037 85.137 44.7795 83.2185 44.7795Z" fill="black"/>
<path d="M90.9116 46.4262C90.8744 46.4262 90.8381 46.4068 90.8187 46.3723L89.0663 43.2683C89.0376 43.2176 89.056 43.1537 89.1072 43.1253C89.1585 43.0972 89.2233 43.1152 89.2518 43.1659L91.0043 46.2699C91.0329 46.3206 91.0146 46.3845 90.9633 46.4129C90.9469 46.4218 90.9291 46.4262 90.9116 46.4262Z" fill="black"/>
<path d="M78.8598 40.1093C78.4165 40.1093 77.9732 40.0646 77.541 39.975L77.4174 39.9487C77.0817 39.8764 76.7346 39.8016 76.4353 39.9184C76.3808 39.9393 76.3191 39.9131 76.2975 39.8591C76.276 39.8051 76.3028 39.7441 76.3575 39.7227C76.7168 39.5828 77.096 39.6643 77.4626 39.7433L77.5846 39.7693C78.4726 39.9533 79.4086 39.9416 80.2912 39.7352C80.3489 39.7225 80.4056 39.7569 80.4192 39.8133C80.4326 39.8699 80.3973 39.9264 80.3402 39.9399C79.857 40.0528 79.3583 40.1093 78.8598 40.1093Z" fill="black"/>
<path d="M79.5907 38.6533C78.6409 38.6533 77.6853 38.5239 76.7785 38.2696C76.7221 38.2538 76.6893 38.1957 76.7052 38.1399C76.7213 38.0838 76.7802 38.0511 76.8364 38.0674C78.0693 38.4131 79.3941 38.5232 80.6679 38.3856C80.7273 38.3792 80.7788 38.4209 80.7851 38.4787C80.7914 38.5363 80.7493 38.5883 80.691 38.5945C80.3273 38.6338 79.9593 38.6533 79.5907 38.6533Z" fill="black"/>
<path d="M78.9328 39.4966C78.5303 39.4966 78.1279 39.4563 77.7367 39.3757C77.611 39.3498 77.4861 39.3199 77.3613 39.2898C77.1589 39.2411 76.9496 39.1908 76.7426 39.1609C76.3626 39.1063 76.051 39.1318 75.7907 39.2386C75.7363 39.2608 75.6743 39.2355 75.6517 39.1818C75.6292 39.1282 75.6549 39.0667 75.7092 39.0445C76.0059 38.9228 76.3541 38.8927 76.7733 38.953C76.9902 38.9842 77.2043 39.0357 77.4114 39.0855C77.5341 39.1149 77.6567 39.1445 77.7801 39.17C78.5313 39.3244 79.3255 39.3252 80.0769 39.1717C80.1344 39.1603 80.1906 39.1965 80.2025 39.2534C80.2143 39.3103 80.1774 39.3658 80.1199 39.3776C79.7315 39.4569 79.3322 39.4966 78.9328 39.4966Z" fill="black"/>
<path d="M114.828 52.8282L111.685 35.228C111.685 35.228 105.72 33.1554 97.1863 34.9605C97.1863 34.9605 95.2835 48.4802 95.123 51.5587L114.828 52.8282Z" fill="white"/>
<path d="M114.828 52.9331C114.826 52.9331 114.824 52.933 114.821 52.9329L95.1159 51.6634C95.0579 51.6595 95.0138 51.6105 95.0167 51.553C95.1155 49.6598 95.8623 43.8873 96.4714 39.3781C96.4791 39.3206 96.5319 39.2806 96.5908 39.2879C96.6489 39.2956 96.6898 39.3484 96.682 39.406C96.0841 43.8317 95.3536 49.4746 95.2349 51.4604L114.7 52.7144L111.591 35.3079C110.952 35.1036 105.168 33.3793 97.2083 35.0631C97.1509 35.0755 97.0945 35.039 97.0822 34.9823C97.0698 34.9255 97.1065 34.8697 97.1639 34.8576C105.629 33.0667 111.66 35.1079 111.72 35.1287C111.756 35.1413 111.783 35.1723 111.79 35.2096L114.933 52.8097C114.939 52.8416 114.929 52.8741 114.907 52.8981C114.887 52.9204 114.858 52.9331 114.828 52.9331Z" fill="black"/>
<path d="M71.6483 59.3357C71.6483 59.3357 65.0905 73.7245 64.6924 74.1155C64.4316 74.3717 62.8343 75.5579 61.7631 76.346C61.3837 76.6252 61.5164 77.2163 61.9796 77.3111L76.9965 80.3841L80.8172 63.4916L71.6483 59.3357Z" fill="white"/>
<path d="M76.9966 80.4893C76.9894 80.4893 76.9821 80.4886 76.975 80.4872L61.958 77.4142C61.702 77.3617 61.508 77.1724 61.4515 76.9201C61.3952 76.6682 61.4902 76.4159 61.6997 76.2618C63.3873 75.0203 64.4235 74.2316 64.6175 74.041C64.9148 73.7303 68.9272 65.0507 71.5514 59.2926C71.5631 59.2672 71.5845 59.2473 71.6109 59.2374C71.6375 59.2276 71.6666 59.2285 71.6926 59.2403L80.8615 63.3962C80.9071 63.4169 80.9319 63.4663 80.9209 63.5147L77.1002 80.4072C77.0892 80.456 77.0453 80.4893 76.9966 80.4893ZM71.7012 59.4754C70.8503 61.3418 65.1602 73.8043 64.7674 74.1902C64.5099 74.4431 63.026 75.548 61.8265 76.4305C61.6851 76.5345 61.621 76.7047 61.659 76.8748C61.6972 77.0452 61.8282 77.1729 62.0012 77.2083L76.9156 80.2604L80.6947 63.5519L71.7012 59.4754Z" fill="black"/>
<path d="M77.2071 77.3582C77.1977 77.3582 77.188 77.3569 77.1785 77.3544L66.031 74.2883C65.9744 74.2727 65.9413 74.2147 65.957 74.1589C65.9728 74.1029 66.032 74.0706 66.0879 74.0857L77.2354 77.1518C77.292 77.1674 77.3251 77.2254 77.3094 77.2812C77.2963 77.3277 77.2536 77.3582 77.2071 77.3582Z" fill="black"/>
<path d="M90.7639 74.6158L88.796 86.2336C88.6229 87.2556 87.7284 88.0043 86.6805 88.0043H72.2164C71.7277 88.0043 71.4823 87.4206 71.827 87.078L75.1902 83.7353L78.0321 69.5747L90.7639 74.6158Z" fill="white"/>
<path d="M86.6809 88.1096H72.2168C71.947 88.1096 71.715 87.9565 71.6115 87.7101C71.5079 87.4637 71.5617 87.1932 71.7521 87.0041L75.0926 83.6839L77.9283 69.5544C77.9344 69.5237 77.954 69.4973 77.9818 69.4824C78.0095 69.4676 78.0425 69.4656 78.072 69.4772L90.8039 74.5183C90.8503 74.5367 90.8774 74.5845 90.8692 74.6333L88.9012 86.2511C88.7187 87.328 87.785 88.1096 86.6809 88.1096ZM78.1117 69.7195L75.2948 83.756C75.2907 83.7763 75.2807 83.795 75.2659 83.8097L71.9028 87.1523C71.7491 87.3051 71.7529 87.4989 71.8078 87.6295C71.8626 87.7599 71.9989 87.8994 72.2169 87.8994H86.6809C87.6809 87.8994 88.5264 87.1915 88.6916 86.2164L90.6455 74.682L78.1117 69.7195Z" fill="black"/>
<path d="M88.4571 85.0512C88.4567 85.0512 88.4563 85.0512 88.4558 85.0512C84.4058 85.0021 80.3324 84.608 76.3487 83.8798C76.291 83.8692 76.2528 83.8144 76.2635 83.7573C76.2741 83.7003 76.3297 83.6619 76.3874 83.6731C80.3592 84.3992 84.4205 84.7921 88.4585 84.841C88.5172 84.8417 88.5642 84.8894 88.5635 84.9475C88.5627 85.005 88.5153 85.0512 88.4571 85.0512Z" fill="black"/>
<path d="M115.088 54.3372C115.088 54.3372 118.299 62.296 111.252 64.5278C104.204 66.7596 92.6578 63.802 92.6578 63.802L90.7142 75.8077L64.6396 68.8386C64.6396 68.8386 71.1332 58.3629 75.9993 51.4976C78.5374 47.9168 83.0335 46.2384 87.3316 47.2669C96.8695 49.5492 113.664 53.6219 115.088 54.3372Z" fill="#F58B75"/>
<path d="M74.6484 71.6188C74.6407 71.6188 74.6328 71.618 74.6249 71.6162C74.5677 71.6035 74.5317 71.5473 74.5446 71.4906C74.5537 71.4505 75.4754 67.4208 76.9488 63.1781C78.9339 57.462 80.9227 54.1008 82.8603 53.1881C84.9555 52.2011 87.6103 52.5404 90.7504 54.1964C93.8846 55.8493 96.6996 58.4153 98.0987 59.7978C102.018 63.6709 103.955 64.8261 103.974 64.8373C104.025 64.867 104.041 64.9314 104.011 64.9813C103.981 65.0313 103.916 65.0476 103.866 65.0182C103.847 65.0069 101.891 63.8428 97.9484 59.9465C95.7567 57.7807 88.1979 50.9068 82.9516 53.3778C78.4432 55.5017 74.7884 71.3767 74.7519 71.5368C74.7408 71.5856 74.6969 71.6188 74.6484 71.6188Z" fill="black"/>
<path d="M104.305 27.9485L106.386 34.2221L100.095 39.0952L100.122 35.1339L101.417 34.4096L101.424 30.409L104.305 27.9485Z" fill="white"/>
<path d="M100.095 39.2003C100.079 39.2003 100.063 39.1967 100.048 39.1895C100.011 39.1718 99.988 39.1348 99.9883 39.0945L100.015 35.1332C100.015 35.0955 100.036 35.0609 100.069 35.0424L101.311 34.3481L101.317 30.4087C101.317 30.3782 101.331 30.3493 101.354 30.3294L104.236 27.8689C104.262 27.8458 104.299 27.8377 104.333 27.8471C104.368 27.8566 104.395 27.8822 104.406 27.9157L106.487 34.1894C106.501 34.2314 106.487 34.2775 106.451 34.3048L100.16 39.1779C100.141 39.1927 100.118 39.2003 100.095 39.2003ZM100.227 35.1955L100.202 38.8783L106.262 34.1849L104.254 28.1311L101.53 30.4571L101.524 34.4098C101.523 34.4475 101.503 34.4824 101.47 34.501L100.227 35.1955Z" fill="black"/>
<path d="M105.057 26.4747C105.334 26.1716 105.846 26.1404 106.188 26.3683C106.531 26.5962 106.697 27.0366 106.642 27.4414C106.586 27.8461 106.333 28.2089 106.002 28.4528C105.671 28.6967 105.267 28.8303 104.859 28.8949C104.428 29.7667 103.875 30.6191 103.054 31.1504C102.233 31.6818 101.09 31.8204 100.281 31.2717C99.7641 30.9218 99.443 30.3401 99.3015 29.7371C99.16 29.1341 99.1575 28.5034 99.2328 27.8889C99.4301 26.2803 99.0341 27.0756 99.5745 25.5326C100.326 25.2326 101.636 24.2754 101.636 24.2754C101.636 24.2754 102.021 25.1326 102.445 25.6279C103.27 26.5918 104.073 26.982 104.515 26.9518C104.813 26.9315 104.882 26.6665 105.057 26.4747Z" fill="white"/>
<path d="M101.483 31.7303C101.047 31.7303 100.608 31.6212 100.221 31.3587C99.7244 31.0223 99.3613 30.4549 99.1984 29.7611C99.0669 29.2008 99.0431 28.5668 99.1277 27.8766C99.2072 27.2272 99.1892 26.9824 99.176 26.8037C99.156 26.5312 99.1484 26.4292 99.4744 25.4985C99.4844 25.4698 99.5065 25.4467 99.535 25.4355C100.265 25.1437 101.56 24.2006 101.573 24.191C101.599 24.1722 101.632 24.1656 101.663 24.1739C101.694 24.1821 101.72 24.2037 101.733 24.2329C101.737 24.2413 102.117 25.0824 102.526 25.5603C103.32 26.4884 104.093 26.8765 104.508 26.8471C104.663 26.8366 104.731 26.7468 104.839 26.589C104.881 26.5277 104.924 26.4641 104.979 26.4045C105.282 26.0725 105.851 26.0175 106.248 26.2812C106.61 26.5217 106.81 26.9936 106.747 27.4556C106.691 27.8652 106.443 28.2595 106.066 28.5372C105.764 28.7592 105.383 28.9115 104.931 28.9899C104.583 29.6851 104.021 30.6509 103.113 31.2386C102.663 31.5295 102.075 31.7302 101.483 31.7303ZM99.6597 25.6119C99.3639 26.4602 99.3705 26.5515 99.3881 26.7884C99.4012 26.9651 99.4208 27.2322 99.3388 27.9018C99.2571 28.5676 99.2796 29.1772 99.4054 29.7134C99.5563 30.3559 99.8885 30.8786 100.341 31.1852C101.05 31.6657 102.142 31.6151 102.996 31.0626C103.882 30.4896 104.43 29.5248 104.764 28.8489C104.78 28.8182 104.809 28.7968 104.843 28.7913C105.284 28.7214 105.653 28.5791 105.939 28.3686C106.271 28.1244 106.489 27.7814 106.537 27.4274C106.589 27.043 106.425 26.6524 106.129 26.4557C105.822 26.2513 105.368 26.2923 105.137 26.5452C105.092 26.594 105.055 26.6487 105.015 26.7067C104.909 26.8623 104.788 27.0387 104.523 27.0569C104.087 27.0847 103.264 26.7476 102.364 25.6959C102.025 25.2998 101.716 24.691 101.594 24.4358C101.273 24.665 100.3 25.3427 99.6597 25.6119Z" fill="black"/>
<path d="M104.588 28.4168C104.567 28.4168 104.546 28.4108 104.528 28.3986C104.479 28.3657 104.467 28.3003 104.5 28.2524C104.744 27.8994 105.146 27.6574 105.575 27.605C105.632 27.5968 105.686 27.6388 105.693 27.6965C105.701 27.7541 105.659 27.8065 105.601 27.8136C105.231 27.8587 104.886 28.0671 104.676 28.3711C104.655 28.4008 104.622 28.4168 104.588 28.4168Z" fill="black"/>
<path d="M106.048 30.8305C106.033 30.8305 106.017 30.8298 106.001 30.8287C105.792 30.8139 105.581 30.694 105.421 30.4999C105.285 30.3342 105.201 30.1419 105.119 29.9559C105.096 29.9026 105.12 29.8408 105.174 29.8177C105.228 29.7943 105.291 29.8189 105.314 29.8722C105.39 30.0452 105.469 30.2241 105.586 30.3676C105.709 30.5167 105.866 30.6084 106.017 30.6192C106.296 30.6383 106.531 30.3843 106.588 30.1366C106.659 29.8242 106.528 29.5069 106.405 29.2959C106.182 28.9135 105.838 28.5959 105.438 28.4017C105.385 28.3762 105.363 28.3131 105.389 28.2611C105.415 28.209 105.479 28.1873 105.531 28.2129C105.97 28.4253 106.345 28.7727 106.589 29.191C106.731 29.4345 106.882 29.8043 106.795 30.1829C106.72 30.5091 106.424 30.8305 106.048 30.8305Z" fill="#F58B75"/>
<path d="M110.108 60.2729L103.621 61.6745C103.292 61.7456 102.958 61.5788 102.818 61.2736L98.6647 52.2133C98.4722 51.7934 98.7184 51.3037 99.1712 51.2058L105.491 49.8402C105.824 49.7681 106.163 49.9373 106.305 50.2467L110.523 59.4474C110.68 59.7915 110.479 60.1927 110.108 60.2729Z" fill="#EFEFEF"/>
<path d="M109.203 61.248L102.717 62.6496C102.388 62.7207 102.054 62.5539 101.914 62.2487L97.7604 53.1884C97.5679 52.7685 97.8141 52.2788 98.2669 52.1809L104.586 50.8153C104.92 50.7432 105.259 50.9124 105.401 51.2218L109.618 60.4225C109.776 60.7666 109.574 61.1678 109.203 61.248Z" fill="#EFEFEF"/>
<path d="M109.203 61.2477L102.717 62.6494C102.388 62.7205 102.054 62.5536 101.914 62.2484L97.7604 53.1882C97.5679 52.7683 97.8141 52.2785 98.2669 52.1807L104.586 50.8151C104.92 50.743 105.259 50.9122 105.401 51.2215L109.618 60.4223C109.776 60.7664 109.574 61.1676 109.203 61.2477Z" fill="#EFEFEF"/>
<path d="M102.568 62.7706C102.251 62.7706 101.952 62.5867 101.817 62.292L97.6634 53.2318C97.558 53.0017 97.5632 52.7402 97.6776 52.5144C97.7913 52.2905 97.9977 52.1315 98.2439 52.0782L104.563 50.7126C104.943 50.6307 105.336 50.8266 105.497 51.1784L109.715 60.3791C109.804 60.5729 109.799 60.793 109.703 60.9832C109.607 61.1718 109.433 61.3058 109.226 61.3505L102.74 62.7522C102.682 62.7647 102.625 62.7706 102.568 62.7706ZM104.738 50.9042C104.695 50.9042 104.652 50.9087 104.609 50.918L98.2894 52.2835C98.1061 52.3232 97.9523 52.4417 97.8677 52.6087C97.7821 52.7775 97.7782 52.973 97.8571 53.145L102.01 62.2053C102.129 62.4634 102.417 62.607 102.694 62.547L109.181 61.1453C109.325 61.114 109.446 61.0206 109.513 60.889C109.58 60.7558 109.584 60.6017 109.521 60.466L105.304 51.2652C105.202 51.0429 104.976 50.9042 104.738 50.9042Z" fill="#F58B75"/>
<path d="M108.46 42.1671C108.46 42.1671 111.583 35.1361 111.685 35.2279C111.787 35.3198 118.138 41.3581 119.219 47.7949C120.299 54.2316 116.05 56.5567 109.295 59.0041C102.54 61.4516 100.877 61.7329 101.107 60.6867C101.107 60.6867 100.304 60.595 100.157 59.8852C100.157 59.8852 99.371 59.5671 99.2727 58.8573C99.2727 58.8573 97.5418 58.1144 99.1442 56.4055L99.5361 57.2605C99.5361 57.2605 101.631 56.9238 102.417 56.214C103.203 55.5043 102.687 54.9903 102.27 54.7945C101.852 54.5988 100.624 53.7177 100.845 53.2282C101.066 52.7387 103.031 53.4974 103.743 53.4729C104.456 53.4484 110.646 50.4618 112.243 49.3089C112.243 49.3089 110.155 44.3957 108.46 42.1671Z" fill="white"/>
<path d="M105.966 52.5912C105.918 52.5912 105.875 52.5598 105.863 52.5125C105.848 52.4563 105.882 52.399 105.939 52.3844C107.106 52.0853 111.356 49.763 112.11 49.2709C111.834 48.6314 109.925 44.2694 108.374 42.2303C108.339 42.1839 108.349 42.118 108.396 42.0832C108.442 42.0481 108.509 42.0577 108.544 42.1039C110.228 44.3174 112.319 49.2189 112.34 49.2682C112.359 49.3131 112.345 49.3651 112.305 49.3938C111.796 49.7615 107.219 52.2734 105.992 52.5878C105.983 52.5902 105.974 52.5912 105.966 52.5912Z" fill="black"/>
<path d="M115.594 56.2453C115.56 56.2453 115.526 56.2286 115.505 56.1977C115.473 56.1492 115.487 56.084 115.536 56.0522C118.63 54.0491 119.734 51.5078 119.113 47.8123C118.042 41.4321 111.676 35.3631 111.613 35.3058C111.569 35.2667 111.566 35.2003 111.606 35.1574C111.646 35.1145 111.713 35.1113 111.756 35.1504C111.82 35.2082 118.24 41.33 119.323 47.7778C119.959 51.5669 118.827 54.1731 115.652 56.2281C115.634 56.2397 115.614 56.2453 115.594 56.2453Z" fill="black"/>
<path d="M109.189 58.7175C109.189 58.7175 109.188 58.7175 109.187 58.7175C109.128 58.7162 109.082 58.6681 109.083 58.6101C109.131 56.4139 108.325 54.2069 106.872 52.5551C106.833 52.5113 106.838 52.445 106.882 52.4068C106.926 52.3689 106.994 52.3734 107.032 52.4172C108.52 54.1079 109.345 56.3669 109.296 58.6146C109.294 58.6719 109.247 58.7175 109.189 58.7175Z" fill="black"/>
<path d="M112.459 49.3482C112.425 49.3482 112.393 49.3327 112.372 49.3036C112.338 49.2562 112.35 49.1906 112.398 49.1572C112.851 48.8409 113.282 48.4845 113.676 48.0978C113.718 48.057 113.785 48.0572 113.827 48.0986C113.868 48.1397 113.868 48.2063 113.826 48.2472C113.423 48.642 112.983 49.0059 112.52 49.329C112.501 49.3419 112.48 49.3482 112.459 49.3482Z" fill="black"/>
<path d="M101.364 60.7992C101.265 60.7992 101.166 60.796 101.067 60.7895C101.008 60.7856 100.964 60.7355 100.968 60.6776C100.972 60.6196 101.023 60.5766 101.081 60.5797C101.965 60.6383 102.869 60.4208 103.628 59.9674C103.678 59.9372 103.744 59.9533 103.774 60.003C103.805 60.0527 103.788 60.1173 103.738 60.1473C103.027 60.5719 102.194 60.7992 101.364 60.7992Z" fill="black"/>
<path d="M100.486 59.9919C100.363 59.9919 100.241 59.9873 100.118 59.9778C100.06 59.9734 100.016 59.9228 100.021 59.8649C100.025 59.8071 100.076 59.7636 100.135 59.7683C101.072 59.841 102.036 59.6201 102.848 59.1472C102.898 59.1177 102.963 59.1342 102.993 59.1843C103.023 59.2344 103.006 59.2987 102.956 59.3281C102.212 59.7612 101.347 59.9919 100.486 59.9919Z" fill="black"/>
<path d="M100.322 59.1374C99.9703 59.1374 99.6185 59.0916 99.2779 58.9978C99.2214 58.9823 99.1883 58.9243 99.2041 58.8684C99.2199 58.8124 99.2785 58.7797 99.335 58.7954C100.384 59.0839 101.548 58.8929 102.449 58.2839C102.498 58.2512 102.564 58.2635 102.597 58.3113C102.63 58.3592 102.618 58.4246 102.569 58.4574C101.91 58.9035 101.116 59.1374 100.322 59.1374Z" fill="black"/>
<path d="M47.91 4.9231H40.2869C35.1725 4.9231 31.0264 9.02309 31.0264 14.0807C31.0264 19.1382 35.1725 23.2383 40.2869 23.2383H47.91C53.0244 23.2383 57.1705 19.1383 57.1705 14.0807C57.1704 9.02314 53.0244 4.9231 47.91 4.9231Z" fill="white"/>
<path d="M47.9097 23.3433H40.2868C35.1218 23.3433 30.9199 19.1881 30.9199 14.0806C30.9199 8.9731 35.1218 4.81787 40.2868 4.81787H47.9097C53.0746 4.81787 57.2765 8.9731 57.2765 14.0806C57.2765 19.1881 53.0746 23.3433 47.9097 23.3433ZM40.2868 5.0281C35.239 5.0281 31.1325 9.08902 31.1325 14.0807C31.1325 19.0722 35.239 23.1332 40.2868 23.1332H47.9097C52.9574 23.1332 57.064 19.0722 57.064 14.0807C57.064 9.08902 52.9574 5.0281 47.9097 5.0281H40.2868Z" fill="black"/>
<path d="M31.4786 26.5096C31.135 26.5096 30.7919 26.4691 30.4592 26.3863C30.4024 26.3722 30.3678 26.3151 30.3821 26.2587C30.3964 26.2025 30.4542 26.1683 30.5111 26.1825C31.5999 26.4534 32.8081 26.2477 33.7428 25.6327C34.6774 25.0174 35.3355 23.9946 35.5028 22.8968C35.5117 22.8395 35.5657 22.8009 35.6239 22.8086C35.6819 22.8173 35.7219 22.8709 35.7131 22.9283C35.5368 24.0837 34.8442 25.1602 33.8605 25.8076C33.1623 26.2672 32.319 26.5096 31.4786 26.5096Z" fill="black"/>
<path d="M40.4765 15.2259C41.1161 14.5933 41.1161 13.5678 40.4765 12.9353C39.8368 12.3027 38.7998 12.3027 38.1601 12.9353C37.5205 13.5678 37.5205 14.5933 38.1601 15.2259C38.7998 15.8584 39.8368 15.8584 40.4765 15.2259Z" fill="#EFEFEF"/>
<path d="M45.6676 14.5497C45.9297 13.6935 45.4404 12.7893 44.5746 12.5301C43.7088 12.2708 42.7944 12.7547 42.5323 13.6109C42.2701 14.4671 42.7595 15.3713 43.6253 15.6305C44.4911 15.8898 45.4054 15.4059 45.6676 14.5497Z" fill="#EFEFEF"/>
<path d="M50.036 15.2259C50.6757 14.5933 50.6757 13.5678 50.036 12.9353C49.3964 12.3027 48.3593 12.3027 47.7197 12.9353C47.0801 13.5678 47.0801 14.5933 47.7197 15.2259C48.3593 15.8584 49.3964 15.8584 50.036 15.2259Z" fill="#EFEFEF"/>
<path d="M122.936 88.1094H25.6083C25.5495 88.1094 25.502 88.0624 25.502 88.0044C25.502 87.9463 25.5495 87.8993 25.6083 87.8993H122.83V14.1858H98.6227C98.5639 14.1858 98.5164 14.1388 98.5164 14.0807C98.5164 14.0226 98.5639 13.9756 98.6227 13.9756H122.936C122.995 13.9756 123.043 14.0226 123.043 14.0807V88.0043C123.043 88.0624 122.995 88.1094 122.936 88.1094Z" fill="black"/>
</g>
<defs>
<clipPath id="clip0_3556_4136">
<rect width="124" height="88" fill="white" transform="translate(0 0.5)"/>
</clipPath>
</defs>
</svg>
