<svg width="40" height="40" viewBox="0 0 40 40" fill="none" xmlns="http://www.w3.org/2000/svg">
<path d="M14.2271 22.7156H10.0696C9.39416 22.7156 8.84668 23.2631 8.84668 23.9385V33.1847C8.84668 33.8601 9.39416 34.4075 10.0696 34.4075H14.2271C14.9025 34.4075 15.4499 33.8601 15.4499 33.1847V23.9385C15.4499 23.2631 14.9025 22.7156 14.2271 22.7156Z" fill="#FADC60"/>
<path d="M10.586 33.1847V23.9385C10.586 23.2631 11.1335 22.7156 11.8089 22.7156H10.0696C9.39416 22.7156 8.84668 23.2631 8.84668 23.9385V33.1847C8.84668 33.8601 9.39416 34.4076 10.0696 34.4076H11.8088C11.1335 34.4075 10.586 33.8601 10.586 33.1847Z" fill="#F2C42C"/>
<path d="M23.1929 18.4749H19.0354C18.36 18.4749 17.8125 19.0223 17.8125 19.6977V33.1846C17.8125 33.86 18.36 34.4075 19.0354 34.4075H23.1929C23.8683 34.4075 24.4158 33.86 24.4158 33.1846V19.6977C24.4158 19.0223 23.8683 18.4749 23.1929 18.4749Z" fill="#FD6F71"/>
<path d="M19.5518 33.1843V19.6975C19.5518 19.0221 20.0993 18.4746 20.7747 18.4746H19.0354C18.36 18.4746 17.8125 19.0221 17.8125 19.6975V33.1843C17.8125 33.8597 18.36 34.4072 19.0354 34.4072H20.7747C20.0993 34.4072 19.5518 33.8597 19.5518 33.1843Z" fill="#E34B4C"/>
<path d="M32.1587 14.2339H28.0012C27.3258 14.2339 26.7783 14.7814 26.7783 15.4568V33.1842C26.7783 33.8596 27.3258 34.4071 28.0012 34.4071H32.1587C32.8341 34.4071 33.3816 33.8596 33.3816 33.1842V15.4568C33.3815 14.7814 32.8341 14.2339 32.1587 14.2339Z" fill="#57D0E6"/>
<path d="M28.5176 33.1842V15.4568C28.5176 14.7814 29.0651 14.2339 29.7405 14.2339H28.0012C27.3258 14.2339 26.7783 14.7814 26.7783 15.4568V33.1842C26.7783 33.8596 27.3258 34.4071 28.0012 34.4071H29.7405C29.0651 34.4071 28.5176 33.8596 28.5176 33.1842Z" fill="#4DB8CC"/>
<path d="M33.3154 5.5981L29.1154 6.14546L30.1306 7.50335L26.5339 10.1926L24.642 8.52452C24.3193 8.24004 23.8415 8.22085 23.4969 8.47838L15.4528 14.4925L13.571 13.0829C13.2483 12.8411 12.8049 12.8409 12.482 13.0823L6 17.9288L7.0882 19.3844L13.0256 14.9452L14.9074 16.3548C15.2301 16.5966 15.6735 16.5968 15.9964 16.3553L23.9937 10.3759L25.8857 12.044C26.2083 12.3284 26.6863 12.3477 27.0308 12.0901L31.2188 8.95883L32.235 10.3179L33.9474 6.44312C34.1382 6.01141 33.7834 5.53709 33.3154 5.5981Z" fill="#58B78C"/>
</svg>
