<svg width="19" height="16" viewBox="0 0 19 16" fill="none" xmlns="http://www.w3.org/2000/svg">
<path opacity="0.994" d="M4.68652 0.501953C5.79272 0.468393 6.77883 0.777214 7.66309 1.43164C8.03957 1.77798 8.41073 2.1314 8.77539 2.49219L9.13281 2.8457L9.48438 2.48535C9.88008 2.08005 10.2931 1.69598 10.7227 1.33301C11.5402 0.809654 12.3458 0.544678 13.1445 0.514648C13.944 0.484666 14.7687 0.68883 15.626 1.15039C16.4597 1.71722 17.0308 2.37933 17.3672 3.13184C17.7049 3.88759 17.8198 4.76763 17.6895 5.78906C17.5605 6.4834 17.297 7.1131 16.8984 7.68457C14.3465 10.2962 11.7798 12.8952 9.19922 15.4824C9.14743 15.5027 9.10561 15.503 9.05371 15.4824C6.53967 12.9493 4.02576 10.416 1.51172 7.88281C0.437183 6.43838 0.21932 4.89659 0.855469 3.19434C1.644 1.57288 2.90398 0.688568 4.68652 0.501953Z" stroke="#547D81"/>
</svg>
