<svg width="19" height="16" viewBox="0 0 19 16" fill="none" xmlns="http://www.w3.org/2000/svg">
<path opacity="0.994" fill-rule="evenodd" clip-rule="evenodd" d="M4.64926 0.003412C5.88717 -0.0387534 6.99982 0.30989 7.98726 1.04934C8.37333 1.40416 8.75329 1.76648 9.12707 2.13629C9.54294 1.71033 9.97716 1.30698 10.4297 0.926293C12.2056 -0.220192 14.0239 -0.28855 15.8845 0.721208C17.704 1.94819 18.4707 3.66405 18.1845 5.86883C18.0413 6.64926 17.7427 7.36021 17.2889 8.00171C14.7051 10.6462 12.1066 13.2781 9.49344 15.8975C9.24919 16.0342 9.00495 16.0342 8.7607 15.8975C6.21649 13.3339 3.67228 10.7704 1.12807 8.2068C-0.0691824 6.6121 -0.313427 4.87573 0.395338 2.99765C1.26017 1.2036 2.67814 0.205515 4.64926 0.003412Z" fill="#FF1111"/>
</svg>
