<svg width="310" height="48" viewBox="0 0 310 48" fill="none" xmlns="http://www.w3.org/2000/svg">
<rect width="310" height="48" rx="10" fill="#1877F2"/>
<path fill-rule="evenodd" clip-rule="evenodd" d="M64 24C64 29.1917 67.7917 33.5083 72.75 34.3833L72.8085 34.3365C72.789 34.3327 72.7695 34.3289 72.75 34.325V26.9167H70.125V24H72.75V21.6667C72.75 19.0417 74.4417 17.5833 76.8333 17.5833C77.5917 17.5833 78.4083 17.7 79.1667 17.8167V20.5H77.825C76.5417 20.5 76.25 21.1417 76.25 21.9583V24H79.05L78.5833 26.9167H76.25V34.325C76.2305 34.3289 76.211 34.3327 76.1915 34.3365L76.25 34.3833C81.2083 33.5083 85 29.1917 85 24C85 18.225 80.275 13.5 74.5 13.5C68.725 13.5 64 18.225 64 24Z" fill="white"/>
<path d="M101.488 29.2324C99.3281 29.2324 97.9336 28.0977 97.79 26.4912L97.7832 26.416H99.0137L99.0205 26.4912C99.1094 27.4756 100.135 28.0977 101.557 28.0977C102.896 28.0977 103.874 27.4072 103.874 26.4023V26.3955C103.874 25.5752 103.307 25.0146 101.953 24.7139L100.859 24.4746C98.8838 24.0371 98.0293 23.1279 98.0293 21.6992V21.6924C98.0361 20.0586 99.4648 18.9033 101.502 18.9033C103.471 18.9033 104.845 20.0654 104.947 21.5352L104.954 21.6309H103.724L103.71 21.542C103.573 20.6738 102.753 20.0312 101.468 20.0381C100.237 20.0449 99.2871 20.626 99.2871 21.6582V21.665C99.2871 22.4512 99.8271 22.9844 101.167 23.2783L102.261 23.5244C104.318 23.9824 105.132 24.8096 105.132 26.2314V26.2383C105.132 28.084 103.689 29.2324 101.488 29.2324ZM107.661 20.209C107.21 20.209 106.841 19.8398 106.841 19.3887C106.841 18.9375 107.21 18.5684 107.661 18.5684C108.112 18.5684 108.481 18.9375 108.481 19.3887C108.481 19.8398 108.112 20.209 107.661 20.209ZM107.06 29V21.6309H108.249V29H107.06ZM113.526 31.5977C111.749 31.5977 110.614 30.7979 110.43 29.5879L110.443 29.5811H111.674L111.681 29.5879C111.811 30.1484 112.467 30.5449 113.526 30.5449C114.846 30.5449 115.632 29.9229 115.632 28.8359V27.3457H115.522C115.058 28.1592 114.224 28.6172 113.212 28.6172C111.305 28.6172 110.122 27.1406 110.122 25.0762V25.0625C110.122 22.998 111.312 21.501 113.239 21.501C114.278 21.501 115.085 22.0137 115.536 22.8477H115.618V21.6309H116.808V28.8975C116.808 30.5449 115.536 31.5977 113.526 31.5977ZM113.472 27.5645C114.839 27.5645 115.659 26.5391 115.659 25.0762V25.0625C115.659 23.5996 114.832 22.5537 113.472 22.5537C112.104 22.5537 111.339 23.5996 111.339 25.0625V25.0762C111.339 26.5391 112.104 27.5645 113.472 27.5645ZM119.022 29V21.6309H120.212V22.7383H120.321C120.69 21.959 121.381 21.501 122.468 21.501C124.122 21.501 125.045 22.4785 125.045 24.2285V29H123.855V24.5156C123.855 23.1895 123.309 22.5537 122.133 22.5537C120.957 22.5537 120.212 23.3467 120.212 24.6387V29H119.022ZM131.765 20.209C131.313 20.209 130.944 19.8398 130.944 19.3887C130.944 18.9375 131.313 18.5684 131.765 18.5684C132.216 18.5684 132.585 18.9375 132.585 19.3887C132.585 19.8398 132.216 20.209 131.765 20.209ZM131.163 29V21.6309H132.353V29H131.163ZM134.595 29V21.6309H135.784V22.7383H135.894C136.263 21.959 136.953 21.501 138.04 21.501C139.694 21.501 140.617 22.4785 140.617 24.2285V29H139.428V24.5156C139.428 23.1895 138.881 22.5537 137.705 22.5537C136.529 22.5537 135.784 23.3467 135.784 24.6387V29H134.595ZM148.13 29L146.065 21.6309H147.255L148.704 27.5234H148.813L150.461 21.6309H151.589L153.236 27.5234H153.346L154.795 21.6309H155.978L153.913 29H152.717L151.069 23.2988H150.96L149.319 29H148.13ZM158.179 20.209C157.728 20.209 157.358 19.8398 157.358 19.3887C157.358 18.9375 157.728 18.5684 158.179 18.5684C158.63 18.5684 158.999 18.9375 158.999 19.3887C158.999 19.8398 158.63 20.209 158.179 20.209ZM157.577 29V21.6309H158.767V29H157.577ZM163.627 29.0547C162.109 29.0547 161.474 28.4941 161.474 27.0859V22.6152H160.312V21.6309H161.474V19.7236H162.704V21.6309H164.317V22.6152H162.704V26.7852C162.704 27.6533 163.005 28.002 163.771 28.002C163.982 28.002 164.099 27.9951 164.317 27.9746V28.9863C164.085 29.0273 163.859 29.0547 163.627 29.0547ZM166.163 29V18.7051H167.353V22.7383H167.462C167.831 21.959 168.521 21.501 169.608 21.501C171.263 21.501 172.186 22.4785 172.186 24.2285V29H170.996V24.5156C170.996 23.1895 170.449 22.5537 169.273 22.5537C168.098 22.5537 167.353 23.3467 167.353 24.6387V29H166.163ZM178.427 29V19.1357H184.415V20.2432H179.657V23.6338H184.025V24.7275H179.657V29H178.427ZM187.833 29.1299C186.432 29.1299 185.372 28.2822 185.372 26.9424V26.9287C185.372 25.6162 186.343 24.8574 188.059 24.7549L190.171 24.625V23.9551C190.171 23.0459 189.617 22.5537 188.517 22.5537C187.635 22.5537 187.054 22.8818 186.862 23.4561L186.855 23.4766H185.666L185.673 23.4355C185.864 22.2803 186.985 21.501 188.558 21.501C190.355 21.501 191.36 22.4238 191.36 23.9551V29H190.171V27.9131H190.062C189.597 28.6992 188.824 29.1299 187.833 29.1299ZM186.589 26.915C186.589 27.6602 187.225 28.0977 188.079 28.0977C189.289 28.0977 190.171 27.3047 190.171 26.252V25.582L188.202 25.7051C187.081 25.7734 186.589 26.1699 186.589 26.9014V26.915ZM196.549 29.1299C194.484 29.1299 193.165 27.6328 193.165 25.2949V25.2812C193.165 22.9912 194.478 21.501 196.542 21.501C198.333 21.501 199.406 22.5332 199.625 23.8457L199.632 23.8867H198.449L198.442 23.8662C198.258 23.1416 197.602 22.5537 196.542 22.5537C195.216 22.5537 194.382 23.6201 194.382 25.2812V25.2949C194.382 26.9902 195.229 28.0771 196.542 28.0771C197.533 28.0771 198.162 27.6396 198.436 26.8193L198.449 26.7783L199.625 26.7715L199.611 26.8467C199.311 28.1797 198.319 29.1299 196.549 29.1299ZM204.376 29.1299C202.271 29.1299 200.999 27.6533 200.999 25.3428V25.3359C200.999 23.0596 202.298 21.501 204.301 21.501C206.304 21.501 207.521 22.9912 207.521 25.1924V25.6572H202.216C202.25 27.1816 203.091 28.0703 204.403 28.0703C205.401 28.0703 206.017 27.5986 206.215 27.1543L206.242 27.0928H207.432L207.418 27.1475C207.165 28.1455 206.112 29.1299 204.376 29.1299ZM204.294 22.5605C203.2 22.5605 202.366 23.3057 202.236 24.707H206.311C206.188 23.251 205.381 22.5605 204.294 22.5605ZM213.03 29.1299C212.005 29.1299 211.185 28.6445 210.733 27.8242H210.624V29H209.435V18.7051H210.624V22.793H210.733C211.137 22.0068 212.019 21.501 213.03 21.501C214.903 21.501 216.12 22.998 216.12 25.3086V25.3223C216.12 27.6191 214.896 29.1299 213.03 29.1299ZM212.757 28.0771C214.104 28.0771 214.903 27.0381 214.903 25.3223V25.3086C214.903 23.5928 214.104 22.5537 212.757 22.5537C211.417 22.5537 210.597 23.6064 210.597 25.3086V25.3223C210.597 27.0244 211.417 28.0771 212.757 28.0771ZM220.994 29.1299C218.896 29.1299 217.597 27.6807 217.597 25.3223V25.3086C217.597 22.9434 218.896 21.501 220.994 21.501C223.093 21.501 224.392 22.9434 224.392 25.3086V25.3223C224.392 27.6807 223.093 29.1299 220.994 29.1299ZM220.994 28.0771C222.389 28.0771 223.175 27.0586 223.175 25.3223V25.3086C223.175 23.5654 222.389 22.5537 220.994 22.5537C219.6 22.5537 218.813 23.5654 218.813 25.3086V25.3223C218.813 27.0586 219.6 28.0771 220.994 28.0771ZM229.266 29.1299C227.167 29.1299 225.868 27.6807 225.868 25.3223V25.3086C225.868 22.9434 227.167 21.501 229.266 21.501C231.364 21.501 232.663 22.9434 232.663 25.3086V25.3223C232.663 27.6807 231.364 29.1299 229.266 29.1299ZM229.266 28.0771C230.66 28.0771 231.446 27.0586 231.446 25.3223V25.3086C231.446 23.5654 230.66 22.5537 229.266 22.5537C227.871 22.5537 227.085 23.5654 227.085 25.3086V25.3223C227.085 27.0586 227.871 28.0771 229.266 28.0771ZM234.577 29V18.7051H235.767V24.8506H235.876L239.062 21.6309H240.504L237.291 24.7275L240.716 29H239.219L236.457 25.5342L235.767 26.2041V29H234.577Z" fill="white"/>
</svg>
