<svg width="36" height="36" viewBox="0 0 36 36" fill="none" xmlns="http://www.w3.org/2000/svg">
<path d="M17.6479 2.08105C25.3285 2.08105 31.7325 7.51967 33.2343 14.7497C33.3308 15.2324 33.7599 15.5757 34.2534 15.5757C34.9077 15.5757 35.4119 14.975 35.2724 14.3421C33.5883 6.15733 26.3368 0 17.6479 0C8.95897 0 1.70748 6.15733 0.0233309 14.3421C-0.105394 14.9857 0.388052 15.5757 1.0424 15.5757C1.53585 15.5757 1.9542 15.2324 2.06147 14.7497C3.56326 7.50894 9.96731 2.08105 17.6479 2.08105ZM17.6479 33.9189C9.96731 33.9189 3.56326 28.4803 2.06147 21.2503C1.96493 20.7676 1.53585 20.4243 1.0424 20.4243C0.388052 20.4243 -0.116121 21.025 0.0233309 21.6579C1.70748 29.8427 8.95897 36 17.6479 36C26.3368 36 33.5883 29.8427 35.2724 21.6579C35.4012 21.0143 34.9077 20.4243 34.2534 20.4243C33.7599 20.4243 33.3416 20.7676 33.2343 21.2503C31.7325 28.4911 25.3285 33.9189 17.6479 33.9189Z" fill="#FCC497"/>
<path d="M8.85107 14.7173C9.40888 13.8699 10.3958 13.3443 11.4899 13.4086C12.4983 13.473 13.3672 14.0415 13.8392 14.8568" stroke="#09353C" stroke-miterlimit="10" stroke-linecap="round"/>
<path d="M26.2942 14.7173C25.7364 13.8699 24.7495 13.3443 23.6554 13.4086C22.647 13.473 21.7781 14.0415 21.3062 14.8568" stroke="#09353C" stroke-miterlimit="10" stroke-linecap="round"/>
<path d="M12.8633 20.4665C14.7084 21.1316 18.6452 22.1507 22.2495 20.5738C22.743 20.3592 23.29 20.7776 23.2042 21.3139C22.9039 23.2019 21.799 26.5166 17.6905 26.5166C13.5392 26.5166 12.3055 23.1161 11.9408 21.2389C11.8336 20.7132 12.3592 20.2842 12.8633 20.4665Z" stroke="#F07962" stroke-miterlimit="10" stroke-linecap="round" stroke-linejoin="round"/>
</svg>
