<svg width="40" height="35" viewBox="0 0 40 35" fill="none" xmlns="http://www.w3.org/2000/svg">
<path d="M18.6783 0.0330391C14.5417 0.28867 10.6841 1.76047 7.49258 4.30127C0.3737 9.95609 -1.98119 19.701 1.76804 27.9973C2.8138 30.3057 4.57996 32.7381 6.42359 34.3958L7.0278 34.938L7.23695 34.7754C7.53131 34.543 8.5151 33.9775 11.4742 32.374C12.884 31.6071 14.1777 30.8557 14.3558 30.7008C14.534 30.5459 14.7741 30.2205 14.8981 29.9726C15.1072 29.5466 15.115 29.4924 15.1382 28.0515L15.1692 26.572L14.8129 26.084C14.0615 25.0692 13.2868 23.4967 12.9383 22.296C12.7833 21.7693 12.6826 21.5679 12.4502 21.32C11.8693 20.7158 11.8615 20.6925 11.8615 18.57C11.8615 16.5482 11.877 16.432 12.2876 15.975C12.4193 15.8356 12.4347 15.5877 12.4657 13.225C12.4967 10.3124 12.52 10.1807 13.0699 9.04977C14.0073 7.14418 16.0988 6.09842 19.2593 5.96673C22.8691 5.81955 25.4951 6.93502 26.5408 9.06527C27.0908 10.1885 27.1063 10.3047 27.0908 13.1863C27.0753 15.7271 27.0753 15.7504 27.238 15.8975C27.3309 15.9827 27.4859 16.1919 27.5788 16.3623C27.7338 16.6567 27.7415 16.7806 27.7415 18.57C27.7415 20.3749 27.7338 20.4834 27.5711 20.7855C27.3774 21.1496 26.9359 21.5679 26.5796 21.715C26.3782 21.7925 26.3162 21.8932 26.2 22.265C25.9753 23.0164 24.9451 24.9917 24.3718 25.7896L23.8296 26.541V28.0051C23.8296 29.717 23.8916 29.9804 24.4338 30.5846C24.7592 30.9487 25.0458 31.1036 28.1985 32.6838C30.0809 33.6212 31.8161 34.5275 32.064 34.6901L32.5132 35L33.0245 34.5507C34.3646 33.3733 35.8597 31.5451 36.8512 29.8642C39.3997 25.5727 40.2131 20.3904 39.1209 15.4715C37.6413 8.81738 32.7689 3.34847 26.3162 1.10978C23.9071 0.273174 21.1184 -0.121887 18.6783 0.0330391Z" fill="#C1C1C1"/>
</svg>
