<svg width="144" height="144" viewBox="0 0 144 144" fill="none" xmlns="http://www.w3.org/2000/svg">
<g filter="url(#filter0_d_61_2476)">
<g filter="url(#filter1_d_61_2476)">
<circle cx="72" cy="72" r="68" fill="#F58A74"/>
</g>
<g filter="url(#filter2_d_61_2476)">
<path d="M32.7172 77.16C31.7359 77.16 30.8985 76.9893 30.2052 76.648C29.5225 76.3067 28.9892 75.816 28.6052 75.176C28.2319 74.5253 28.0292 73.752 27.9972 72.856C27.9865 72.3973 27.9812 71.9067 27.9812 71.384C27.9812 70.8507 27.9865 70.3493 27.9972 69.88C28.0292 68.9947 28.2319 68.2373 28.6052 67.608C28.9892 66.9787 29.5279 66.4933 30.2212 66.152C30.9252 65.8107 31.7572 65.64 32.7172 65.64C33.4959 65.64 34.1785 65.7467 34.7652 65.96C35.3519 66.1627 35.8372 66.4293 36.2212 66.76C36.6159 67.08 36.9092 67.4267 37.1012 67.8C37.3039 68.1733 37.4105 68.52 37.4212 68.84C37.4319 68.936 37.4052 69.016 37.3412 69.08C37.2772 69.144 37.1919 69.176 37.0852 69.176H35.4372C35.3305 69.176 35.2505 69.1547 35.1972 69.112C35.1439 69.0693 35.0959 69.0053 35.0532 68.92C34.9679 68.696 34.8345 68.4773 34.6532 68.264C34.4719 68.04 34.2265 67.8533 33.9172 67.704C33.6079 67.5547 33.2079 67.48 32.7172 67.48C31.9919 67.48 31.4105 67.672 30.9732 68.056C30.5465 68.44 30.3172 69.0747 30.2852 69.96C30.2532 70.888 30.2532 71.8267 30.2852 72.776C30.3172 73.6827 30.5519 74.3333 30.9892 74.728C31.4372 75.1227 32.0239 75.32 32.7492 75.32C33.2292 75.32 33.6559 75.2347 34.0292 75.064C34.4132 74.8933 34.7119 74.6267 34.9252 74.264C35.1492 73.9013 35.2612 73.4373 35.2612 72.872V72.376H33.3092C33.2025 72.376 33.1119 72.3387 33.0372 72.264C32.9625 72.1893 32.9252 72.0933 32.9252 71.976V71.128C32.9252 71.0107 32.9625 70.9147 33.0372 70.84C33.1119 70.7653 33.2025 70.728 33.3092 70.728H37.1332C37.2505 70.728 37.3412 70.7653 37.4052 70.84C37.4799 70.9147 37.5172 71.0107 37.5172 71.128V72.808C37.5172 73.704 37.3199 74.4773 36.9252 75.128C36.5412 75.7787 35.9865 76.28 35.2612 76.632C34.5465 76.984 33.6985 77.16 32.7172 77.16ZM42.9603 77.16C41.7763 77.16 40.8376 76.8187 40.1443 76.136C39.451 75.4533 39.0776 74.4827 39.0243 73.224C39.0136 73.1173 39.0083 72.984 39.0083 72.824C39.0083 72.6533 39.0136 72.52 39.0243 72.424C39.067 71.624 39.2483 70.9307 39.5683 70.344C39.899 69.7573 40.3523 69.3093 40.9283 69C41.5043 68.68 42.1816 68.52 42.9603 68.52C43.8243 68.52 44.5496 68.7013 45.1363 69.064C45.723 69.416 46.1656 69.912 46.4643 70.552C46.763 71.1813 46.9123 71.912 46.9123 72.744V73.08C46.9123 73.1867 46.875 73.2773 46.8003 73.352C46.7256 73.4267 46.6296 73.464 46.5123 73.464H41.2003C41.2003 73.464 41.2003 73.48 41.2003 73.512C41.2003 73.544 41.2003 73.5707 41.2003 73.592C41.211 73.9653 41.2803 74.312 41.4083 74.632C41.547 74.9413 41.7443 75.192 42.0003 75.384C42.267 75.576 42.5816 75.672 42.9443 75.672C43.243 75.672 43.4936 75.6293 43.6963 75.544C43.899 75.448 44.0643 75.3413 44.1923 75.224C44.3203 75.1067 44.411 75.0107 44.4643 74.936C44.5603 74.808 44.635 74.7333 44.6883 74.712C44.7523 74.68 44.843 74.664 44.9603 74.664H46.3363C46.443 74.664 46.5283 74.696 46.5923 74.76C46.667 74.824 46.699 74.904 46.6883 75C46.6776 75.1707 46.587 75.3787 46.4163 75.624C46.2563 75.8693 46.0216 76.1093 45.7123 76.344C45.403 76.5787 45.0136 76.776 44.5443 76.936C44.0856 77.0853 43.5576 77.16 42.9603 77.16ZM41.2003 72.12H44.7363V72.072C44.7363 71.656 44.667 71.2933 44.5283 70.984C44.3896 70.6747 44.187 70.4293 43.9203 70.248C43.6536 70.0667 43.3336 69.976 42.9603 69.976C42.587 69.976 42.267 70.0667 42.0003 70.248C41.7336 70.4293 41.531 70.6747 41.3923 70.984C41.2643 71.2933 41.2003 71.656 41.2003 72.072V72.12ZM52.3394 77C51.6994 77 51.1608 76.888 50.7234 76.664C50.2861 76.44 49.9608 76.1093 49.7474 75.672C49.5341 75.224 49.4274 74.6693 49.4274 74.008V70.376H48.1634C48.0568 70.376 47.9661 70.3387 47.8914 70.264C47.8168 70.1893 47.7794 70.0987 47.7794 69.992V69.064C47.7794 68.9573 47.8168 68.8667 47.8914 68.792C47.9661 68.7173 48.0568 68.68 48.1634 68.68H49.4274V66.024C49.4274 65.9173 49.4594 65.8267 49.5234 65.752C49.5981 65.6773 49.6941 65.64 49.8114 65.64H51.1074C51.2141 65.64 51.3048 65.6773 51.3794 65.752C51.4541 65.8267 51.4914 65.9173 51.4914 66.024V68.68H53.4914C53.5981 68.68 53.6888 68.7173 53.7634 68.792C53.8381 68.8667 53.8754 68.9573 53.8754 69.064V69.992C53.8754 70.0987 53.8381 70.1893 53.7634 70.264C53.6888 70.3387 53.5981 70.376 53.4914 70.376H51.4914V73.848C51.4914 74.2853 51.5661 74.6267 51.7154 74.872C51.8754 75.1173 52.1474 75.24 52.5314 75.24H53.6354C53.7421 75.24 53.8328 75.2773 53.9074 75.352C53.9821 75.4267 54.0194 75.5173 54.0194 75.624V76.616C54.0194 76.7227 53.9821 76.8133 53.9074 76.888C53.8328 76.9627 53.7421 77 53.6354 77H52.3394ZM63.1751 77.16C62.1831 77.16 61.3511 77.016 60.6791 76.728C60.0177 76.4293 59.5111 76.0453 59.1591 75.576C58.8177 75.096 58.6364 74.5947 58.6151 74.072C58.6151 73.976 58.6471 73.896 58.7111 73.832C58.7751 73.768 58.8551 73.736 58.9511 73.736H60.3751C60.5137 73.736 60.6151 73.768 60.6791 73.832C60.7537 73.8853 60.8177 73.9547 60.8711 74.04C60.9351 74.2427 61.0577 74.4453 61.2391 74.648C61.4204 74.84 61.6657 75 61.9751 75.128C62.2951 75.256 62.6951 75.32 63.1751 75.32C63.9431 75.32 64.5137 75.192 64.8871 74.936C65.2711 74.68 65.4631 74.3333 65.4631 73.896C65.4631 73.5867 65.3617 73.3413 65.1591 73.16C64.9564 72.968 64.6417 72.7973 64.2151 72.648C63.7991 72.488 63.2444 72.3227 62.5511 72.152C61.7511 71.96 61.0791 71.7307 60.5351 71.464C60.0017 71.1867 59.5964 70.84 59.3191 70.424C59.0524 70.008 58.9191 69.48 58.9191 68.84C58.9191 68.2213 59.0844 67.672 59.4151 67.192C59.7564 66.712 60.2364 66.3333 60.8551 66.056C61.4844 65.7787 62.2311 65.64 63.0951 65.64C63.7884 65.64 64.4017 65.736 64.9351 65.928C65.4684 66.1093 65.9111 66.3547 66.2631 66.664C66.6151 66.9627 66.8817 67.288 67.0631 67.64C67.2551 67.9813 67.3564 68.3173 67.3671 68.648C67.3671 68.7333 67.3351 68.8133 67.2711 68.888C67.2177 68.952 67.1377 68.984 67.0311 68.984H65.5431C65.4577 68.984 65.3724 68.9627 65.2871 68.92C65.2017 68.8773 65.1324 68.7973 65.0791 68.68C65.0151 68.3493 64.8071 68.0667 64.4551 67.832C64.1031 67.5973 63.6497 67.48 63.0951 67.48C62.5191 67.48 62.0551 67.5867 61.7031 67.8C61.3511 68.0133 61.1751 68.344 61.1751 68.792C61.1751 69.0907 61.2604 69.3413 61.4311 69.544C61.6124 69.736 61.8951 69.9067 62.2791 70.056C62.6737 70.2053 63.1911 70.3653 63.8311 70.536C64.7377 70.7387 65.4791 70.9733 66.0551 71.24C66.6311 71.5067 67.0524 71.848 67.3191 72.264C67.5857 72.6693 67.7191 73.1867 67.7191 73.816C67.7191 74.52 67.5271 75.1227 67.1431 75.624C66.7697 76.1147 66.2417 76.4933 65.5591 76.76C64.8764 77.0267 64.0817 77.16 63.1751 77.16ZM73.1207 77C72.4807 77 71.942 76.888 71.5047 76.664C71.0674 76.44 70.742 76.1093 70.5287 75.672C70.3154 75.224 70.2087 74.6693 70.2087 74.008V70.376H68.9447C68.838 70.376 68.7474 70.3387 68.6727 70.264C68.598 70.1893 68.5607 70.0987 68.5607 69.992V69.064C68.5607 68.9573 68.598 68.8667 68.6727 68.792C68.7474 68.7173 68.838 68.68 68.9447 68.68H70.2087V66.024C70.2087 65.9173 70.2407 65.8267 70.3047 65.752C70.3794 65.6773 70.4754 65.64 70.5927 65.64H71.8887C71.9954 65.64 72.086 65.6773 72.1607 65.752C72.2354 65.8267 72.2727 65.9173 72.2727 66.024V68.68H74.2727C74.3794 68.68 74.47 68.7173 74.5447 68.792C74.6194 68.8667 74.6567 68.9573 74.6567 69.064V69.992C74.6567 70.0987 74.6194 70.1893 74.5447 70.264C74.47 70.3387 74.3794 70.376 74.2727 70.376H72.2727V73.848C72.2727 74.2853 72.3474 74.6267 72.4967 74.872C72.6567 75.1173 72.9287 75.24 73.3127 75.24H74.4167C74.5234 75.24 74.614 75.2773 74.6887 75.352C74.7634 75.4267 74.8007 75.5173 74.8007 75.624V76.616C74.8007 76.7227 74.7634 76.8133 74.6887 76.888C74.614 76.9627 74.5234 77 74.4167 77H73.1207ZM78.6361 77.16C78.0814 77.16 77.5801 77.0533 77.1321 76.84C76.6841 76.616 76.3267 76.3227 76.0601 75.96C75.8041 75.5867 75.6761 75.1707 75.6761 74.712C75.6761 73.9653 75.9747 73.3733 76.5721 72.936C77.1801 72.488 77.9801 72.1893 78.9721 72.04L81.1641 71.72V71.384C81.1641 70.936 81.0521 70.5893 80.8281 70.344C80.6041 70.0987 80.2201 69.976 79.6761 69.976C79.2921 69.976 78.9774 70.056 78.7321 70.216C78.4974 70.3653 78.3214 70.568 78.2041 70.824C78.1187 70.9627 77.9961 71.032 77.8361 71.032H76.5721C76.4547 71.032 76.3641 71 76.3001 70.936C76.2467 70.872 76.2201 70.7867 76.2201 70.68C76.2307 70.5093 76.3001 70.3013 76.4281 70.056C76.5561 69.8107 76.7587 69.576 77.0361 69.352C77.3134 69.1173 77.6707 68.92 78.1081 68.76C78.5454 68.6 79.0734 68.52 79.6921 68.52C80.3641 68.52 80.9294 68.6053 81.3881 68.776C81.8574 68.936 82.2307 69.1547 82.5081 69.432C82.7854 69.7093 82.9881 70.0347 83.1161 70.408C83.2441 70.7813 83.3081 71.176 83.3081 71.592V76.616C83.3081 76.7227 83.2707 76.8133 83.1961 76.888C83.1214 76.9627 83.0307 77 82.9241 77H81.6281C81.5107 77 81.4147 76.9627 81.3401 76.888C81.2761 76.8133 81.2441 76.7227 81.2441 76.616V75.992C81.1054 76.1947 80.9187 76.3867 80.6841 76.568C80.4494 76.7387 80.1614 76.8827 79.8201 77C79.4894 77.1067 79.0947 77.16 78.6361 77.16ZM79.1801 75.64C79.5534 75.64 79.8894 75.56 80.1881 75.4C80.4974 75.24 80.7374 74.9947 80.9081 74.664C81.0894 74.3227 81.1801 73.896 81.1801 73.384V73.048L79.5801 73.304C78.9507 73.4 78.4814 73.5547 78.1721 73.768C77.8627 73.9813 77.7081 74.2427 77.7081 74.552C77.7081 74.7867 77.7774 74.9893 77.9161 75.16C78.0654 75.32 78.2521 75.4427 78.4761 75.528C78.7001 75.6027 78.9347 75.64 79.1801 75.64ZM85.7447 77C85.638 77 85.5474 76.9627 85.4727 76.888C85.398 76.8133 85.3607 76.7227 85.3607 76.616V69.08C85.3607 68.9627 85.398 68.8667 85.4727 68.792C85.5474 68.7173 85.638 68.68 85.7447 68.68H87.0407C87.1474 68.68 87.238 68.7173 87.3127 68.792C87.398 68.8667 87.4407 68.9627 87.4407 69.08V69.736C87.686 69.3947 88.0007 69.1333 88.3847 68.952C88.7794 68.7707 89.2327 68.68 89.7447 68.68H90.4007C90.518 68.68 90.6087 68.7173 90.6727 68.792C90.7474 68.8667 90.7847 68.9573 90.7847 69.064V70.216C90.7847 70.3227 90.7474 70.4133 90.6727 70.488C90.6087 70.5627 90.518 70.6 90.4007 70.6H89.1527C88.6407 70.6 88.2407 70.744 87.9527 71.032C87.6754 71.32 87.5367 71.7147 87.5367 72.216V76.616C87.5367 76.7227 87.4994 76.8133 87.4247 76.888C87.35 76.9627 87.254 77 87.1367 77H85.7447ZM95.7926 77C95.1526 77 94.6139 76.888 94.1766 76.664C93.7392 76.44 93.4139 76.1093 93.2006 75.672C92.9872 75.224 92.8806 74.6693 92.8806 74.008V70.376H91.6166C91.5099 70.376 91.4192 70.3387 91.3446 70.264C91.2699 70.1893 91.2326 70.0987 91.2326 69.992V69.064C91.2326 68.9573 91.2699 68.8667 91.3446 68.792C91.4192 68.7173 91.5099 68.68 91.6166 68.68H92.8806V66.024C92.8806 65.9173 92.9126 65.8267 92.9766 65.752C93.0512 65.6773 93.1472 65.64 93.2646 65.64H94.5606C94.6672 65.64 94.7579 65.6773 94.8326 65.752C94.9072 65.8267 94.9446 65.9173 94.9446 66.024V68.68H96.9446C97.0512 68.68 97.1419 68.7173 97.2166 68.792C97.2912 68.8667 97.3286 68.9573 97.3286 69.064V69.992C97.3286 70.0987 97.2912 70.1893 97.2166 70.264C97.1419 70.3387 97.0512 70.376 96.9446 70.376H94.9446V73.848C94.9446 74.2853 95.0192 74.6267 95.1686 74.872C95.3286 75.1173 95.6006 75.24 95.9846 75.24H97.0886C97.1952 75.24 97.2859 75.2773 97.3606 75.352C97.4352 75.4267 97.4726 75.5173 97.4726 75.624V76.616C97.4726 76.7227 97.4352 76.8133 97.3606 76.888C97.2859 76.9627 97.1952 77 97.0886 77H95.7926ZM102.476 77.16C101.292 77.16 100.353 76.8187 99.6599 76.136C98.9666 75.4533 98.5933 74.4827 98.5399 73.224C98.5293 73.1173 98.5239 72.984 98.5239 72.824C98.5239 72.6533 98.5293 72.52 98.5399 72.424C98.5826 71.624 98.7639 70.9307 99.0839 70.344C99.4146 69.7573 99.8679 69.3093 100.444 69C101.02 68.68 101.697 68.52 102.476 68.52C103.34 68.52 104.065 68.7013 104.652 69.064C105.239 69.416 105.681 69.912 105.98 70.552C106.279 71.1813 106.428 71.912 106.428 72.744V73.08C106.428 73.1867 106.391 73.2773 106.316 73.352C106.241 73.4267 106.145 73.464 106.028 73.464H100.716C100.716 73.464 100.716 73.48 100.716 73.512C100.716 73.544 100.716 73.5707 100.716 73.592C100.727 73.9653 100.796 74.312 100.924 74.632C101.063 74.9413 101.26 75.192 101.516 75.384C101.783 75.576 102.097 75.672 102.46 75.672C102.759 75.672 103.009 75.6293 103.212 75.544C103.415 75.448 103.58 75.3413 103.708 75.224C103.836 75.1067 103.927 75.0107 103.98 74.936C104.076 74.808 104.151 74.7333 104.204 74.712C104.268 74.68 104.359 74.664 104.476 74.664H105.852C105.959 74.664 106.044 74.696 106.108 74.76C106.183 74.824 106.215 74.904 106.204 75C106.193 75.1707 106.103 75.3787 105.932 75.624C105.772 75.8693 105.537 76.1093 105.228 76.344C104.919 76.5787 104.529 76.776 104.06 76.936C103.601 77.0853 103.073 77.16 102.476 77.16ZM100.716 72.12H104.252V72.072C104.252 71.656 104.183 71.2933 104.044 70.984C103.905 70.6747 103.703 70.4293 103.436 70.248C103.169 70.0667 102.849 69.976 102.476 69.976C102.103 69.976 101.783 70.0667 101.516 70.248C101.249 70.4293 101.047 70.6747 100.908 70.984C100.78 71.2933 100.716 71.656 100.716 72.072V72.12ZM111.214 77.16C110.66 77.16 110.169 77.0693 109.742 76.888C109.326 76.696 108.98 76.4293 108.702 76.088C108.425 75.7467 108.212 75.3467 108.062 74.888C107.913 74.4187 107.828 73.9067 107.806 73.352C107.796 73.16 107.79 72.9893 107.79 72.84C107.79 72.68 107.796 72.504 107.806 72.312C107.828 71.7787 107.908 71.2827 108.046 70.824C108.196 70.3653 108.409 69.9653 108.686 69.624C108.974 69.272 109.326 69 109.742 68.808C110.169 68.616 110.66 68.52 111.214 68.52C111.79 68.52 112.276 68.6213 112.67 68.824C113.076 69.016 113.412 69.2667 113.678 69.576V66.024C113.678 65.9173 113.71 65.8267 113.774 65.752C113.849 65.6773 113.945 65.64 114.062 65.64H115.422C115.529 65.64 115.62 65.6773 115.694 65.752C115.769 65.8267 115.806 65.9173 115.806 66.024V76.616C115.806 76.7227 115.769 76.8133 115.694 76.888C115.62 76.9627 115.529 77 115.422 77H114.158C114.041 77 113.945 76.9627 113.87 76.888C113.806 76.8133 113.774 76.7227 113.774 76.616V76.024C113.508 76.3547 113.166 76.6267 112.75 76.84C112.345 77.0533 111.833 77.16 111.214 77.16ZM111.806 75.448C112.254 75.448 112.612 75.3467 112.878 75.144C113.145 74.9413 113.342 74.6853 113.47 74.376C113.598 74.056 113.668 73.7307 113.678 73.4C113.689 73.208 113.694 73.0053 113.694 72.792C113.694 72.568 113.689 72.36 113.678 72.168C113.668 71.848 113.593 71.544 113.454 71.256C113.316 70.9573 113.113 70.712 112.846 70.52C112.58 70.328 112.233 70.232 111.806 70.232C111.358 70.232 111.001 70.3333 110.734 70.536C110.478 70.728 110.292 70.984 110.174 71.304C110.057 71.624 109.988 71.976 109.966 72.36C109.956 72.68 109.956 73 109.966 73.32C109.988 73.704 110.057 74.056 110.174 74.376C110.292 74.696 110.478 74.9573 110.734 75.16C111.001 75.352 111.358 75.448 111.806 75.448Z" fill="white"/>
</g>
</g>
<defs>
<filter id="filter0_d_61_2476" x="0" y="0" width="144" height="144" filterUnits="userSpaceOnUse" color-interpolation-filters="sRGB">
<feFlood flood-opacity="0" result="BackgroundImageFix"/>
<feColorMatrix in="SourceAlpha" type="matrix" values="0 0 0 0 0 0 0 0 0 0 0 0 0 0 0 0 0 0 127 0" result="hardAlpha"/>
<feOffset/>
<feGaussianBlur stdDeviation="2"/>
<feComposite in2="hardAlpha" operator="out"/>
<feColorMatrix type="matrix" values="0 0 0 0 0 0 0 0 0 0 0 0 0 0 0 0 0 0 0.25 0"/>
<feBlend mode="normal" in2="BackgroundImageFix" result="effect1_dropShadow_61_2476"/>
<feBlend mode="normal" in="SourceGraphic" in2="effect1_dropShadow_61_2476" result="shape"/>
</filter>
<filter id="filter1_d_61_2476" x="2" y="2" width="140" height="140" filterUnits="userSpaceOnUse" color-interpolation-filters="sRGB">
<feFlood flood-opacity="0" result="BackgroundImageFix"/>
<feColorMatrix in="SourceAlpha" type="matrix" values="0 0 0 0 0 0 0 0 0 0 0 0 0 0 0 0 0 0 127 0" result="hardAlpha"/>
<feOffset/>
<feGaussianBlur stdDeviation="1"/>
<feComposite in2="hardAlpha" operator="out"/>
<feColorMatrix type="matrix" values="0 0 0 0 0 0 0 0 0 0 0 0 0 0 0 0 0 0 0.25 0"/>
<feBlend mode="normal" in2="BackgroundImageFix" result="effect1_dropShadow_61_2476"/>
<feBlend mode="normal" in="SourceGraphic" in2="effect1_dropShadow_61_2476" result="shape"/>
</filter>
<filter id="filter2_d_61_2476" x="23.981" y="61.6396" width="95.8252" height="19.5205" filterUnits="userSpaceOnUse" color-interpolation-filters="sRGB">
<feFlood flood-opacity="0" result="BackgroundImageFix"/>
<feColorMatrix in="SourceAlpha" type="matrix" values="0 0 0 0 0 0 0 0 0 0 0 0 0 0 0 0 0 0 127 0" result="hardAlpha"/>
<feOffset/>
<feGaussianBlur stdDeviation="2"/>
<feComposite in2="hardAlpha" operator="out"/>
<feColorMatrix type="matrix" values="0 0 0 0 0 0 0 0 0 0 0 0 0 0 0 0 0 0 0.25 0"/>
<feBlend mode="normal" in2="BackgroundImageFix" result="effect1_dropShadow_61_2476"/>
<feBlend mode="normal" in="SourceGraphic" in2="effect1_dropShadow_61_2476" result="shape"/>
</filter>
</defs>
</svg>
