<svg width="310" height="48" viewBox="0 0 310 48" fill="none" xmlns="http://www.w3.org/2000/svg">
<rect x="0.5" y="0.5" width="309" height="47" rx="9.5" fill="white"/>
<path fill-rule="evenodd" clip-rule="evenodd" d="M91.4 24.199C91.4 23.5785 91.3443 22.9819 91.2409 22.4092H83V25.7938H87.7091C87.5063 26.8876 86.8898 27.8143 85.9631 28.4348V30.6302H88.7909C90.4455 29.1069 91.4 26.8637 91.4 24.199Z" fill="#4285F4"/>
<path fill-rule="evenodd" clip-rule="evenodd" d="M83 32.7496C85.3625 32.7496 87.3432 31.9661 88.7909 30.6297L85.9631 28.4343C85.1795 28.9593 84.1773 29.2695 83 29.2695C80.721 29.2695 78.792 27.7303 78.104 25.6621H75.1807V27.9292C76.6204 30.7888 79.5795 32.7496 83 32.7496Z" fill="#34A853"/>
<path fill-rule="evenodd" clip-rule="evenodd" d="M78.104 25.6624C77.929 25.1374 77.8296 24.5766 77.8296 23.9999C77.8296 23.4232 77.929 22.8624 78.104 22.3374V20.0703H75.1807C74.5881 21.2516 74.25 22.5879 74.25 23.9999C74.25 25.4118 74.5881 26.7482 75.1807 27.9294L78.104 25.6624Z" fill="#FBBC05"/>
<path fill-rule="evenodd" clip-rule="evenodd" d="M83 18.7301C84.2847 18.7301 85.4381 19.1716 86.3449 20.0386L88.8546 17.529C87.3392 16.117 85.3585 15.25 83 15.25C79.5795 15.25 76.6204 17.2108 75.1807 20.0705L78.104 22.3375C78.792 20.2693 80.721 18.7301 83 18.7301Z" fill="#EA4335"/>
<path d="M109.869 29.2324C107.709 29.2324 106.314 28.0977 106.171 26.4912L106.164 26.416H107.395L107.401 26.4912C107.49 27.4756 108.516 28.0977 109.938 28.0977C111.277 28.0977 112.255 27.4072 112.255 26.4023V26.3955C112.255 25.5752 111.688 25.0146 110.334 24.7139L109.24 24.4746C107.265 24.0371 106.41 23.1279 106.41 21.6992V21.6924C106.417 20.0586 107.846 18.9033 109.883 18.9033C111.852 18.9033 113.226 20.0654 113.328 21.5352L113.335 21.6309H112.104L112.091 21.542C111.954 20.6738 111.134 20.0312 109.849 20.0381C108.618 20.0449 107.668 20.626 107.668 21.6582V21.665C107.668 22.4512 108.208 22.9844 109.548 23.2783L110.642 23.5244C112.699 23.9824 113.513 24.8096 113.513 26.2314V26.2383C113.513 28.084 112.07 29.2324 109.869 29.2324ZM116.042 20.209C115.591 20.209 115.222 19.8398 115.222 19.3887C115.222 18.9375 115.591 18.5684 116.042 18.5684C116.493 18.5684 116.862 18.9375 116.862 19.3887C116.862 19.8398 116.493 20.209 116.042 20.209ZM115.44 29V21.6309H116.63V29H115.44ZM121.907 31.5977C120.13 31.5977 118.995 30.7979 118.811 29.5879L118.824 29.5811H120.055L120.062 29.5879C120.191 30.1484 120.848 30.5449 121.907 30.5449C123.227 30.5449 124.013 29.9229 124.013 28.8359V27.3457H123.903C123.438 28.1592 122.604 28.6172 121.593 28.6172C119.686 28.6172 118.503 27.1406 118.503 25.0762V25.0625C118.503 22.998 119.692 21.501 121.62 21.501C122.659 21.501 123.466 22.0137 123.917 22.8477H123.999V21.6309H125.188V28.8975C125.188 30.5449 123.917 31.5977 121.907 31.5977ZM121.853 27.5645C123.22 27.5645 124.04 26.5391 124.04 25.0762V25.0625C124.04 23.5996 123.213 22.5537 121.853 22.5537C120.485 22.5537 119.72 23.5996 119.72 25.0625V25.0762C119.72 26.5391 120.485 27.5645 121.853 27.5645ZM127.403 29V21.6309H128.593V22.7383H128.702C129.071 21.959 129.762 21.501 130.849 21.501C132.503 21.501 133.426 22.4785 133.426 24.2285V29H132.236V24.5156C132.236 23.1895 131.689 22.5537 130.514 22.5537C129.338 22.5537 128.593 23.3467 128.593 24.6387V29H127.403ZM140.146 20.209C139.694 20.209 139.325 19.8398 139.325 19.3887C139.325 18.9375 139.694 18.5684 140.146 18.5684C140.597 18.5684 140.966 18.9375 140.966 19.3887C140.966 19.8398 140.597 20.209 140.146 20.209ZM139.544 29V21.6309H140.733V29H139.544ZM142.976 29V21.6309H144.165V22.7383H144.274C144.644 21.959 145.334 21.501 146.421 21.501C148.075 21.501 148.998 22.4785 148.998 24.2285V29H147.809V24.5156C147.809 23.1895 147.262 22.5537 146.086 22.5537C144.91 22.5537 144.165 23.3467 144.165 24.6387V29H142.976ZM156.511 29L154.446 21.6309H155.636L157.085 27.5234H157.194L158.842 21.6309H159.97L161.617 27.5234H161.727L163.176 21.6309H164.358L162.294 29H161.098L159.45 23.2988H159.341L157.7 29H156.511ZM166.56 20.209C166.108 20.209 165.739 19.8398 165.739 19.3887C165.739 18.9375 166.108 18.5684 166.56 18.5684C167.011 18.5684 167.38 18.9375 167.38 19.3887C167.38 19.8398 167.011 20.209 166.56 20.209ZM165.958 29V21.6309H167.147V29H165.958ZM172.008 29.0547C170.49 29.0547 169.854 28.4941 169.854 27.0859V22.6152H168.692V21.6309H169.854V19.7236H171.085V21.6309H172.698V22.6152H171.085V26.7852C171.085 27.6533 171.386 28.002 172.151 28.002C172.363 28.002 172.479 27.9951 172.698 27.9746V28.9863C172.466 29.0273 172.24 29.0547 172.008 29.0547ZM174.544 29V18.7051H175.733V22.7383H175.843C176.212 21.959 176.902 21.501 177.989 21.501C179.644 21.501 180.566 22.4785 180.566 24.2285V29H179.377V24.5156C179.377 23.1895 178.83 22.5537 177.654 22.5537C176.479 22.5537 175.733 23.3467 175.733 24.6387V29H174.544ZM190.896 29.2324C188.168 29.2324 186.425 27.2227 186.425 24.0713V24.0576C186.425 20.9473 188.195 18.9033 190.896 18.9033C193.083 18.9033 194.621 20.1338 195.011 22.0068L195.024 22.0752H193.78L193.76 22.0068C193.356 20.7354 192.365 20.0381 190.896 20.0381C188.94 20.0381 187.683 21.6104 187.683 24.0576V24.0713C187.683 26.5527 188.92 28.0977 190.902 28.0977C192.666 28.0977 193.855 26.9697 193.855 25.3018V25.0625H191.087V23.9824H195.086V25.1855C195.086 27.6191 193.418 29.2324 190.896 29.2324ZM200.145 29.1299C198.046 29.1299 196.747 27.6807 196.747 25.3223V25.3086C196.747 22.9434 198.046 21.501 200.145 21.501C202.243 21.501 203.542 22.9434 203.542 25.3086V25.3223C203.542 27.6807 202.243 29.1299 200.145 29.1299ZM200.145 28.0771C201.539 28.0771 202.325 27.0586 202.325 25.3223V25.3086C202.325 23.5654 201.539 22.5537 200.145 22.5537C198.75 22.5537 197.964 23.5654 197.964 25.3086V25.3223C197.964 27.0586 198.75 28.0771 200.145 28.0771ZM208.416 29.1299C206.317 29.1299 205.019 27.6807 205.019 25.3223V25.3086C205.019 22.9434 206.317 21.501 208.416 21.501C210.515 21.501 211.813 22.9434 211.813 25.3086V25.3223C211.813 27.6807 210.515 29.1299 208.416 29.1299ZM208.416 28.0771C209.811 28.0771 210.597 27.0586 210.597 25.3223V25.3086C210.597 23.5654 209.811 22.5537 208.416 22.5537C207.021 22.5537 206.235 23.5654 206.235 25.3086V25.3223C206.235 27.0586 207.021 28.0771 208.416 28.0771ZM216.694 31.5977C214.917 31.5977 213.782 30.7979 213.598 29.5879L213.611 29.5811H214.842L214.849 29.5879C214.979 30.1484 215.635 30.5449 216.694 30.5449C218.014 30.5449 218.8 29.9229 218.8 28.8359V27.3457H218.69C218.226 28.1592 217.392 28.6172 216.38 28.6172C214.473 28.6172 213.29 27.1406 213.29 25.0762V25.0625C213.29 22.998 214.479 21.501 216.407 21.501C217.446 21.501 218.253 22.0137 218.704 22.8477H218.786V21.6309H219.976V28.8975C219.976 30.5449 218.704 31.5977 216.694 31.5977ZM216.64 27.5645C218.007 27.5645 218.827 26.5391 218.827 25.0762V25.0625C218.827 23.5996 218 22.5537 216.64 22.5537C215.272 22.5537 214.507 23.5996 214.507 25.0625V25.0762C214.507 26.5391 215.272 27.5645 216.64 27.5645ZM222.259 29V18.7051H223.448V29H222.259ZM228.739 29.1299C226.634 29.1299 225.362 27.6533 225.362 25.3428V25.3359C225.362 23.0596 226.661 21.501 228.664 21.501C230.667 21.501 231.884 22.9912 231.884 25.1924V25.6572H226.579C226.613 27.1816 227.454 28.0703 228.767 28.0703C229.765 28.0703 230.38 27.5986 230.578 27.1543L230.605 27.0928H231.795L231.781 27.1475C231.528 28.1455 230.476 29.1299 228.739 29.1299ZM228.657 22.5605C227.563 22.5605 226.729 23.3057 226.6 24.707H230.674C230.551 23.251 229.744 22.5605 228.657 22.5605Z" fill="#334155"/>
</svg>
