<svg width="36" height="38" viewBox="0 0 36 38" fill="none" xmlns="http://www.w3.org/2000/svg">
<path d="M18.1123 31.6083C24.9379 31.6083 30.4712 26.0751 30.4712 19.2495C30.4712 12.4239 24.9379 6.89062 18.1123 6.89062C11.2867 6.89062 5.75342 12.4239 5.75342 19.2495C5.75342 26.0751 11.2867 31.6083 18.1123 31.6083Z" stroke="#09353C" stroke-width="0.5" stroke-miterlimit="10" stroke-linecap="round"/>
<path d="M24.3007 20.501C23.4954 23.0918 21.0796 24.9736 18.2263 24.9736C15.3729 24.9736 12.9571 23.0918 12.1519 20.501" stroke="#F07962" stroke-miterlimit="10" stroke-linecap="round" stroke-linejoin="round"/>
<path d="M11.1274 16.5625C11.3725 16.1424 11.8189 15.8623 12.3441 15.8623C12.8255 15.8623 13.2544 16.1074 13.5082 16.4837" stroke="#09353C" stroke-miterlimit="10" stroke-linecap="round" stroke-linejoin="round"/>
<path d="M22.7339 16.5625C22.979 16.1424 23.4254 15.8623 23.9505 15.8623C24.4319 15.8623 24.8608 16.1074 25.1146 16.4837" stroke="#09353C" stroke-miterlimit="10" stroke-linecap="round" stroke-linejoin="round"/>
<path d="M18.1121 4.23893C25.3506 4.23893 31.39 9.35928 32.808 16.1777C32.9042 16.6328 33.2981 16.9567 33.762 16.9567C34.3747 16.9567 34.8474 16.3965 34.7248 15.7925C33.1318 8.08139 26.3047 2.27832 18.1121 2.27832C9.91956 2.27832 3.10118 8.08138 1.50818 15.8013C1.38564 16.4052 1.85829 16.9654 2.47098 16.9654C2.93488 16.9654 3.32875 16.6416 3.42503 16.1864C4.83422 9.35928 10.8736 4.23893 18.1121 4.23893ZM18.1121 34.2521C10.8736 34.2521 4.83422 29.1317 3.41628 22.3133C3.32 21.8582 2.92613 21.5343 2.46223 21.5343C1.84954 21.5343 1.37689 22.0945 1.49943 22.6985C3.09243 30.4096 9.91956 36.2127 18.1121 36.2127C26.3047 36.2127 33.1318 30.4096 34.7248 22.6985C34.8474 22.0945 34.3747 21.5343 33.762 21.5343C33.2981 21.5343 32.9042 21.8582 32.808 22.3133C31.39 29.1317 25.3506 34.2521 18.1121 34.2521Z" fill="#FCC497"/>
<path d="M7.7046 19.249H1" stroke="#09353C" stroke-width="0.5" stroke-miterlimit="10" stroke-linecap="round"/>
<path d="M35.2319 19.249H28.5273" stroke="#09353C" stroke-width="0.5" stroke-miterlimit="10" stroke-linecap="round"/>
<path d="M18.1123 7.7046V1" stroke="#09353C" stroke-width="0.5" stroke-miterlimit="10" stroke-linecap="round"/>
<path d="M18.1123 37.0005V30.2871" stroke="#09353C" stroke-width="0.5" stroke-miterlimit="10" stroke-linecap="round"/>
</svg>
