<svg width="20" height="20" viewBox="0 0 20 20" fill="none" xmlns="http://www.w3.org/2000/svg">
<g clip-path="url(#clip0_3583_5577)">
<path opacity="0.967" fill-rule="evenodd" clip-rule="evenodd" d="M9.82423 -0.0195312C9.92841 -0.0195312 10.0325 -0.0195312 10.1367 -0.0195312C10.1742 0.0375625 10.2197 0.0896457 10.2734 0.136719C10.2995 0.865887 10.2995 1.59505 10.2734 2.32422C10.0969 2.56657 9.90157 2.57959 9.68751 2.36328C9.66146 1.62109 9.66146 0.878906 9.68751 0.136719C9.71446 0.0644441 9.76001 0.0123607 9.82423 -0.0195312Z" fill="#FF6A4D"/>
<path opacity="0.957" fill-rule="evenodd" clip-rule="evenodd" d="M4.98055 1.26954C5.2107 1.21381 5.37348 1.29193 5.46883 1.50391C5.76832 2.02475 6.06777 2.54558 6.36727 3.06641C6.45191 3.45053 6.30215 3.60027 5.91805 3.51563C5.83293 3.44344 5.76129 3.3588 5.7032 3.26173C5.42664 2.74759 5.1402 2.23977 4.84383 1.73829C4.78887 1.54516 4.83441 1.38891 4.98055 1.26954Z" fill="#FF6A4D"/>
<path opacity="0.961" fill-rule="evenodd" clip-rule="evenodd" d="M14.6679 1.26952C15.0256 1.23004 15.1754 1.38629 15.1172 1.73827C14.7738 2.34046 14.4158 2.93291 14.0429 3.51562C13.7071 3.60887 13.5443 3.48517 13.5547 3.14452C13.8967 2.49909 14.2678 1.87409 14.6679 1.26952Z" fill="#FF6A4D"/>
<path opacity="0.996" fill-rule="evenodd" clip-rule="evenodd" d="M9.43362 3.45702C12.1343 3.35201 14.1981 4.43276 15.625 6.6992C16.781 8.85409 16.794 11.0156 15.6641 13.1836C14.0919 15.6785 11.8328 16.7527 8.88675 16.4062C6.67608 15.9757 5.068 14.7583 4.06253 12.7539C3.20053 10.7441 3.26563 8.76499 4.25784 6.81639C5.42229 4.83909 7.14753 3.71929 9.43362 3.45702Z" fill="#FF6A4D"/>
<path opacity="0.962" fill-rule="evenodd" clip-rule="evenodd" d="M1.42586 4.82422C1.53084 4.81781 1.635 4.82434 1.73836 4.84375C2.28524 5.15625 2.83211 5.46875 3.37899 5.78125C3.52852 5.90875 3.57409 6.07152 3.51571 6.26953C3.38291 6.40102 3.23317 6.43359 3.06649 6.36719C2.4643 6.02383 1.87185 5.66578 1.28914 5.29297C1.23417 5.09984 1.27974 4.94359 1.42586 4.82422Z" fill="#FF6A4D"/>
<path opacity="0.96" fill-rule="evenodd" clip-rule="evenodd" d="M18.2225 4.82422C18.5588 4.77641 18.7085 4.91965 18.6718 5.25391C18.6411 5.32367 18.5955 5.38227 18.535 5.42969C17.9411 5.77219 17.3422 6.10422 16.7382 6.42578C16.4428 6.37676 16.3452 6.2075 16.4452 5.91797C16.4598 5.88219 16.4793 5.84961 16.5038 5.82031C17.0855 5.49711 17.6585 5.16508 18.2225 4.82422Z" fill="#FF6A4D"/>
<path fill-rule="evenodd" clip-rule="evenodd" d="M9.824 6.30859C9.98088 6.28516 10.1176 6.32422 10.2342 6.42578C10.6289 7.06781 11.0391 7.69934 11.4646 8.32031C12.1938 8.51562 12.9229 8.71094 13.6521 8.90625C13.8449 9.01035 13.8904 9.16008 13.7888 9.35547C13.3201 9.9284 12.8513 10.5013 12.3826 11.0742C12.3968 11.8102 12.4293 12.5458 12.4803 13.2812C12.4531 13.6459 12.2708 13.7501 11.9334 13.5938C11.282 13.3245 10.6244 13.0706 9.96072 12.832C9.27932 13.1044 8.59572 13.3713 7.90994 13.6328C7.71744 13.697 7.58072 13.6384 7.49979 13.457C7.52432 12.6627 7.55033 11.8684 7.57791 11.0742C7.08131 10.4866 6.59955 9.88758 6.1326 9.27734C6.09279 9.06406 6.1774 8.92734 6.3865 8.86719C7.08963 8.68488 7.79275 8.50262 8.49588 8.32031C8.94385 7.65199 9.38654 6.98141 9.824 6.30859Z" fill="#FFDBD3"/>
<path opacity="0.966" fill-rule="evenodd" clip-rule="evenodd" d="M-0.0195312 10.1367C-0.0195312 10.0325 -0.0195312 9.92841 -0.0195312 9.82423C0.0123607 9.76001 0.0644441 9.71446 0.136719 9.68751C0.865887 9.66146 1.59505 9.66146 2.32422 9.68751C2.51167 9.80747 2.55725 9.97024 2.46094 10.1758C2.42568 10.2227 2.38011 10.2553 2.32422 10.2734C1.59505 10.2995 0.865887 10.2995 0.136719 10.2734C0.0896457 10.2197 0.0375625 10.1742 -0.0195312 10.1367Z" fill="#FF6A4D"/>
<path opacity="0.966" fill-rule="evenodd" clip-rule="evenodd" d="M19.9804 9.82423C19.9804 9.92841 19.9804 10.0325 19.9804 10.1367C19.9233 10.1742 19.8713 10.2197 19.8242 10.2734C19.095 10.2995 18.3659 10.2995 17.6367 10.2734C17.3927 10.0971 17.3797 9.90181 17.5976 9.68751C18.3398 9.66146 19.082 9.66146 19.8242 9.68751C19.8965 9.71446 19.9486 9.76001 19.9804 9.82423Z" fill="#FF6A4D"/>
<path opacity="0.961" fill-rule="evenodd" clip-rule="evenodd" d="M16.66 13.5352C16.8008 13.5468 16.931 13.5924 17.0506 13.6719C17.5454 13.9583 18.0402 14.2448 18.535 14.5312C18.7433 14.7266 18.7433 14.9219 18.535 15.1172C18.4308 15.1432 18.3266 15.1432 18.2225 15.1172C17.6626 14.7917 17.1027 14.4661 16.5428 14.1406C16.4284 14.0134 16.3958 13.8636 16.4451 13.6914C16.5037 13.6145 16.5753 13.5624 16.66 13.5352Z" fill="#FF6A4D"/>
<path opacity="0.963" fill-rule="evenodd" clip-rule="evenodd" d="M3.14468 13.5352C3.48503 13.5437 3.60873 13.713 3.51578 14.043C3.4702 14.0886 3.42463 14.1341 3.37906 14.1797C2.83218 14.4922 2.28531 14.8047 1.73843 15.1172C1.38036 15.1758 1.23062 15.0261 1.28922 14.668C1.89391 14.2648 2.5124 13.8873 3.14468 13.5352Z" fill="#FF6A4D"/>
<path opacity="0.963" fill-rule="evenodd" clip-rule="evenodd" d="M6.03517 16.3867C6.33966 16.4218 6.45036 16.5911 6.3672 16.8945C6.04169 17.4544 5.71614 18.0143 5.39063 18.5742C5.19403 18.7414 5.01173 18.7284 4.84376 18.5352C4.81771 18.431 4.81771 18.3268 4.84376 18.2227C5.16927 17.6497 5.49481 17.0768 5.82032 16.5039C5.8936 16.4606 5.96521 16.4215 6.03517 16.3867Z" fill="#FF6A4D"/>
<path opacity="0.958" fill-rule="evenodd" clip-rule="evenodd" d="M13.6914 16.4258C13.8881 16.3868 14.0509 16.4389 14.1797 16.582C14.4636 17.1129 14.763 17.6338 15.0781 18.1445C15.2241 18.5187 15.1004 18.6945 14.707 18.6719C14.6511 18.6537 14.6056 18.6211 14.5703 18.5742C14.2048 17.9734 13.8598 17.3615 13.5352 16.7383C13.5505 16.6132 13.6026 16.5091 13.6914 16.4258Z" fill="#FF6A4D"/>
<path opacity="0.964" fill-rule="evenodd" clip-rule="evenodd" d="M10.1367 19.9805C10.0325 19.9805 9.92841 19.9805 9.82423 19.9805C9.76001 19.9486 9.71446 19.8965 9.68751 19.8242C9.66146 19.082 9.66146 18.3398 9.68751 17.5977C9.90181 17.3797 10.0971 17.3927 10.2734 17.6367C10.2995 18.3659 10.2995 19.095 10.2734 19.8242C10.2197 19.8713 10.1742 19.9234 10.1367 19.9805Z" fill="#FF6A4D"/>
</g>
<defs>
<clipPath id="clip0_3583_5577">
<rect width="20" height="20" fill="white"/>
</clipPath>
</defs>
</svg>
