<svg width="20" height="20" viewBox="0 0 20 20" fill="none" xmlns="http://www.w3.org/2000/svg">
<path d="M10.8873 8.44376C10.8873 8.44376 15.4139 1.1922 15.517 1.01095C15.6201 0.8297 15.642 0.496887 15.3576 0.496887C15.0733 0.496887 8.02169 7.69532 8.02169 7.69532L3.01388 10.6641C3.01388 10.6641 2.67794 10.8703 2.7295 11.1281C2.78107 11.386 3.00607 11.3969 3.10919 11.3969C3.21232 11.3969 8.5545 11.3688 8.86544 11.3594C9.25138 11.3484 9.15606 11.8969 9.15606 11.8969L5.77482 17.2125C5.77482 17.2125 4.29825 19.2563 4.29825 19.3953C4.29825 19.6 4.54513 19.7016 4.77482 19.5641C4.95294 19.4578 16.4686 9.70001 16.9764 9.0297C17.1139 8.84689 17.1842 8.36564 16.617 8.36564C16.0498 8.36564 11.5326 9.68126 11.5326 9.68126L10.8873 8.44376Z" fill="#FF9985"/>
<path d="M10.0954 7.8672C9.95635 8.05782 9.91885 8.37657 10.2188 8.39532C10.5173 8.41251 16.6173 8.3672 16.6173 8.3672C16.6173 8.3672 12.2595 12.3719 10.9407 13.5672C9.62197 14.7625 5.25479 18.6344 4.96104 18.9078C4.67353 19.1766 4.4126 19.4234 4.30635 19.3891C4.28916 19.3844 4.26729 19.2922 4.67822 18.6156C5.05322 17.9984 8.65322 11.9656 8.79385 11.7375C8.93447 11.5094 9.05791 11.3156 9.12822 11.2094C9.19853 11.1031 9.42666 10.5234 8.95166 10.5234C8.47666 10.5234 3.01416 10.6641 3.01416 10.6641C3.01416 10.6641 6.7876 7.46251 7.87822 6.60157C8.96885 5.74064 15.1501 0.496887 15.3579 0.496887C15.5657 0.496887 10.236 7.67501 10.0954 7.8672Z" fill="#FF6B4D"/>
<path d="M9.91414 11.0547C10.1954 10.65 10.4719 10.6203 10.6391 10.7203C10.8548 10.85 10.8766 11.1484 10.6048 11.5094C10.1766 12.0812 7.02976 16.2922 6.90945 16.4406C6.68132 16.7219 6.34539 16.5984 6.56414 16.1906C6.74695 15.8531 9.62351 11.4734 9.91414 11.0547Z" fill="#FF947E"/>
<path d="M5.4421 10.2328C4.90304 10.5938 4.40147 10.0547 4.76241 9.65939C5.12335 9.26407 7.4921 7.2922 7.97179 6.88439C8.45147 6.47657 11.2515 4.04064 11.4687 3.86564C11.7562 3.63439 11.9343 3.86876 11.753 4.10939C11.5733 4.35001 9.59366 6.32814 8.72022 7.13126C8.04522 7.75314 5.9546 9.88907 5.4421 10.2328Z" fill="#FF947E"/>
</svg>
