<svg width="20" height="20" viewBox="0 0 20 20" fill="none" xmlns="http://www.w3.org/2000/svg">
<path d="M17.4501 11.7141C16.6141 10.1641 13.9329 8.57345 11.0094 9.77189C8.74068 10.7016 8.18287 12.4188 7.98131 12.7563C7.70631 13.2172 7.19849 13.1141 7.19849 13.1141C7.50006 12.1469 7.54693 10.9703 7.43912 10.1281C7.33599 9.22814 7.33756 8.46407 7.45474 7.73439C7.52349 7.30782 7.63756 6.88282 7.83443 6.49689C7.89068 6.38595 8.37349 5.66407 8.53912 5.73595C9.13287 5.99064 9.65318 6.10314 10.4719 5.99064C10.9313 5.92814 11.8016 5.75157 11.961 5.64845C12.1579 5.52032 12.1891 5.43751 12.1891 5.43751C12.261 4.91095 12.0047 4.56876 12.0047 4.56876C12.0047 4.56876 12.8001 4.41251 13.036 3.76407C13.1063 3.57032 12.8172 3.11095 12.7126 2.92189C12.361 2.28439 11.8422 1.40626 11.3516 0.987511C11.1126 0.781261 10.3157 0.317198 9.26256 0.934386C7.73131 1.83282 5.67193 2.82657 3.09693 9.03282C2.31881 10.9078 1.91724 14.6453 1.89224 15.7109C1.86256 16.9641 2.10474 18.2391 5.35006 18.8578C7.78131 19.3219 9.55006 19.375 12.4063 19.375C13.2922 19.375 16.3501 19.136 17.4688 17.0203C18.4985 15.0734 18.1313 12.9781 17.4501 11.7141Z" fill="#F17961"/>
<path d="M12.1894 5.43594C12.2456 5.02032 12.1003 4.72344 12.0347 4.61563L11.2597 4.86563C11.2597 4.86563 11.2347 5.07501 11.2597 5.39219C11.2831 5.70938 10.4722 5.99063 10.4722 5.99063C10.9315 5.92813 11.8019 5.75157 11.9612 5.64844C12.1581 5.52032 12.1894 5.43594 12.1894 5.43594Z" fill="#F17961"/>
<path d="M12.3983 3.5C12.3514 3.37656 11.6077 3.19844 11.4046 3.1C11.1921 2.99063 11.0249 2.78594 10.9311 2.60469L10.9389 2.58438C10.9405 2.57813 11.1593 1.95469 10.9764 1.875C10.8764 1.83125 10.8014 1.95781 10.7827 2.01094C10.5264 2.71094 9.88269 3.00938 9.69832 3.79063L9.378 3.54688C9.28738 3.47813 9.23425 3.50156 9.20457 3.53281C9.08738 3.66094 9.43894 4.04844 9.44363 4.05156C9.89988 4.54688 10.3718 5.05781 10.8889 5.10938C11.128 5.13438 11.6671 4.97344 11.8483 4.91563C11.8811 5.05 11.8905 5.4125 11.8811 5.68594C12.4343 5.50781 12.4171 4.97188 12.303 4.47031C12.303 4.47031 11.2311 4.84531 10.9014 4.66094C10.5905 4.5125 10.2983 4.37188 10.1749 4.15938C10.1061 4.04063 10.3202 3.57188 10.5686 3.17969C10.8921 3.34688 10.9436 3.49375 10.9233 3.96719C10.9093 4.08438 10.8764 4.2625 10.9639 4.26406C11.0936 4.27969 11.1686 4.0625 11.1905 3.94063C11.203 3.87812 11.2718 3.70313 11.328 3.65156C11.4608 3.52969 11.5936 3.56875 11.6561 3.58125C12.128 3.66406 12.4655 3.69375 12.3983 3.5Z" fill="#F17961"/>
<path d="M7.44062 10.1266C7.3375 9.22657 7.33906 8.46251 7.45625 7.73282C7.525 7.30626 7.63906 6.88126 7.83594 6.49532C7.89219 6.38595 8.36406 5.67814 8.53437 5.73282L8.33594 5.48126C8.33594 5.48126 7.58906 5.92032 7.10469 6.7547C6.62188 7.59064 6.79687 9.10626 6.6875 10.536C6.57812 11.9641 5.5 13.5719 5.5 13.5719L7.19844 13.1125C7.2 13.1125 7.64531 11.7313 7.44062 10.1266Z" fill="#F17961"/>
<path d="M5.1609 14.7016C5.04215 14.8703 4.77965 14.7406 4.84059 14.5422C4.87028 14.4469 4.90778 14.3422 4.95465 14.2281C5.17965 13.6734 5.56872 13.0344 6.15934 12.8484C7.15934 12.5344 7.19997 13.1125 7.19997 13.1125C6.24059 13.5172 5.58903 14.0922 5.1609 14.7016Z" fill="#FF9983"/>
<path d="M8.10166 6.10626C7.79697 5.92969 7.62354 5.37344 7.62354 5.02344C7.62354 4.67344 7.83604 4.54688 7.93291 4.85157C8.02979 5.15625 8.25791 5.47969 8.70635 5.78282L8.10166 6.10626Z" fill="#FF9983"/>
<path d="M5.35164 18.8578C7.78289 19.3219 9.55164 19.375 12.4079 19.375C13.2938 19.375 16.3516 19.1359 17.4704 17.0203C18.5001 15.0734 18.0235 12.7281 17.5782 11.9656C17.5094 11.8484 17.0235 10.7047 16.386 11.4422C16.1188 11.75 16.5204 12.3047 16.397 13.2672C15.8688 17.4219 11.7516 16.9531 11.7516 16.9531C9.77351 18.5359 5.04695 17.9891 4.05476 17.9344C3.9407 17.9281 3.66258 17.8531 3.58133 18.0813C3.50008 18.3094 3.78133 18.4297 3.9407 18.4875C4.33289 18.6266 4.79851 18.7516 5.35164 18.8578Z" fill="#FF8C75"/>
<path d="M10.2532 16.3281C10.3501 16.1719 10.5798 16.2516 10.686 16.2953C11.297 16.5484 12.5735 17.1328 14.1595 16.3563C16.2188 15.3484 16.3173 13.5281 16.3173 13.5281C16.3407 13.2891 16.4016 13.2016 16.5798 13.1891C16.7845 13.175 16.872 13.3719 16.8813 13.5422C16.9157 14.2438 16.8954 16.2297 14.6001 17.1922C12.4673 18.0875 10.936 17.1375 10.4579 16.7625C10.3454 16.6734 10.1579 16.4828 10.2532 16.3281Z" fill="#FF9983"/>
</svg>
