<svg width="21" height="21" viewBox="0 0 21 21" fill="none" xmlns="http://www.w3.org/2000/svg">
<path d="M0 0H13C17.4183 0 21 3.58172 21 8V21H8C3.58172 21 0 17.4183 0 13V0Z" fill="#C6D4D6"/>
<path opacity="0.984" fill-rule="evenodd" clip-rule="evenodd" d="M10.3455 5.03036C11.5261 4.87952 12.4475 5.29078 13.1097 6.26416C13.2594 6.52356 13.3622 6.80036 13.4181 7.0946C13.4523 7.67104 13.4641 8.24839 13.4537 8.82666C14.0501 8.84953 14.4258 9.15005 14.5807 9.72828C14.5966 11.0886 14.5966 12.449 14.5807 13.8093C14.3791 14.8335 13.7661 15.4465 12.7419 15.6481C11.4448 15.664 10.1478 15.664 8.8507 15.6481C7.83727 15.4493 7.22434 14.8443 7.01186 13.833C6.99605 12.4648 6.99605 11.0965 7.01186 9.72828C7.16682 9.15005 7.54249 8.84953 8.13889 8.82666C8.13493 8.29669 8.13889 7.7668 8.15075 7.23696C8.31086 6.28601 8.82891 5.6098 9.70486 5.20831C9.91634 5.12982 10.1299 5.0705 10.3455 5.03036ZM10.6539 5.78962C11.5231 5.7474 12.1518 6.11122 12.5402 6.88105C12.5942 7.01943 12.6338 7.16179 12.6589 7.30814C12.6912 7.81369 12.703 8.31988 12.6944 8.82666C11.429 8.82666 10.1636 8.82666 8.89815 8.82666C8.88987 8.312 8.90173 7.79791 8.93374 7.28441C9.16007 6.38159 9.73348 5.88333 10.6539 5.78962ZM8.13889 9.58592C9.9105 9.58195 11.6821 9.58592 13.4537 9.59778C13.6712 9.62547 13.7938 9.74804 13.8215 9.96555C13.8373 11.144 13.8373 12.3224 13.8215 13.5008C13.7416 14.332 13.2869 14.7947 12.4572 14.8889C11.3499 14.9047 10.2427 14.9047 9.13542 14.8889C8.30571 14.7947 7.85096 14.332 7.77112 13.5008C7.7553 12.3224 7.7553 11.144 7.77112 9.96555C7.80306 9.74778 7.92566 9.62125 8.13889 9.58592Z" fill="black"/>
<path opacity="0.977" fill-rule="evenodd" clip-rule="evenodd" d="M10.7216 10.6895C11.3459 10.7167 11.6267 11.0409 11.5639 11.6623C11.509 11.8675 11.3904 12.0257 11.208 12.1368C11.2001 12.5955 11.1921 13.0542 11.1842 13.513C11.1176 13.6787 10.9951 13.7578 10.8165 13.7502C10.6379 13.7578 10.5153 13.6787 10.4487 13.513C10.4408 13.0542 10.4329 12.5955 10.425 12.1368C10.0885 11.9024 9.97775 11.5861 10.0928 11.1877C10.2165 10.9107 10.4261 10.7446 10.7216 10.6895Z" fill="black"/>
</svg>
