<svg width="36" height="36" viewBox="0 0 36 36" fill="none" xmlns="http://www.w3.org/2000/svg">
<rect width="36" height="36" rx="18" fill="white" fill-opacity="0.8"/>
<path d="M20.9166 23C20.9166 24.6108 19.6108 25.9167 17.9999 25.9167C16.3891 25.9167 15.0833 24.6108 15.0833 23" stroke="#222222" stroke-width="1.25" stroke-linecap="round" stroke-linejoin="round"/>
<path d="M24.0259 22.9999H11.9741C11.16 22.9999 10.5 22.3399 10.5 21.5258C10.5 21.1349 10.6553 20.76 10.9317 20.4835L11.4344 19.9808C11.9033 19.512 12.1667 18.8761 12.1667 18.2131V15.9166C12.1667 12.6949 14.7783 10.0833 18 10.0833C21.2217 10.0833 23.8333 12.6949 23.8333 15.9166V18.2131C23.8333 18.8761 24.0967 19.512 24.5656 19.9808L25.0682 20.4835C25.3447 20.76 25.5 21.1349 25.5 21.5258C25.5 22.3399 24.84 22.9999 24.0259 22.9999Z" stroke="#222222" stroke-width="1.25" stroke-linecap="round" stroke-linejoin="round"/>
<circle cx="22.5" cy="11.5" r="1.5" fill="#F17961"/>
</svg>
