<svg width="20" height="20" viewBox="0 0 20 20" fill="none" xmlns="http://www.w3.org/2000/svg">
<g clip-path="url(#clip0_1_7073)">
<path opacity="0.976" fill-rule="evenodd" clip-rule="evenodd" d="M19.9805 1.69897C19.9805 1.97241 19.9805 2.24585 19.9805 2.51928C19.8815 2.87346 19.7188 3.19899 19.4922 3.49585C19.075 3.9196 18.6518 4.33624 18.2227 4.74585C17.22 3.76928 16.2305 2.7797 15.2539 1.7771C15.7311 1.25433 16.2389 0.766051 16.7773 0.312254C17.9006 -0.244391 18.8577 -0.0425684 19.6484 0.917723C19.7943 1.16726 19.9049 1.42768 19.9805 1.69897Z" fill="#F17961"/>
<path opacity="0.981" fill-rule="evenodd" clip-rule="evenodd" d="M14.3555 2.63672C15.3678 3.5904 16.3639 4.56695 17.3438 5.56641C17.3698 5.59246 17.3698 5.61848 17.3438 5.64453C15.1367 7.85156 12.9297 10.0586 10.7227 12.2656C9.65473 12.5183 8.58051 12.7461 7.5 12.9492C7.23301 12.9166 7.08324 12.7668 7.05078 12.5C7.25387 11.4193 7.48176 10.3451 7.73438 9.27734C9.94926 7.06895 12.1563 4.85543 14.3555 2.63672Z" fill="#F17961"/>
<path opacity="0.988" fill-rule="evenodd" clip-rule="evenodd" d="M14.7852 19.9805C10.4753 19.9805 6.16535 19.9805 1.85547 19.9805C0.854965 19.6701 0.229963 19.006 -0.0195312 17.9883C-0.0195312 13.7956 -0.0195312 9.60285 -0.0195312 5.41016C0.244512 4.28086 0.947637 3.59728 2.08984 3.35938C4.51172 3.33333 6.93359 3.33333 9.35547 3.35938C9.87488 3.53183 10.0767 3.8899 9.96094 4.43359C9.87629 4.72656 9.6875 4.91535 9.39453 5C7.07684 5.01301 4.7591 5.02606 2.44141 5.03906C2.03998 5.10192 1.78607 5.32981 1.67969 5.72266C1.64097 9.74777 1.65399 13.7712 1.71875 17.793C1.83782 18.0839 2.05266 18.2596 2.36328 18.3203C6.33465 18.3464 10.306 18.3464 14.2773 18.3203C14.6883 18.2089 14.9161 17.942 14.9609 17.5195C14.9739 15.2018 14.987 12.8841 15 10.5664C15.2137 10.1048 15.5718 9.92899 16.0742 10.0391C16.3824 10.1273 16.5712 10.3291 16.6406 10.6445C16.6667 13.0534 16.6667 15.4622 16.6406 17.8711C16.4286 18.9357 15.8102 19.6388 14.7852 19.9805Z" fill="#F17961"/>
</g>
<defs>
<clipPath id="clip0_1_7073">
<rect width="20" height="20" fill="white"/>
</clipPath>
</defs>
</svg>
