<svg width="54" height="54" viewBox="0 0 54 54" fill="none" xmlns="http://www.w3.org/2000/svg">
<g clip-path="url(#clip0_1_6312)">
<path d="M10.6164 49.2696C15.2064 49.2696 17.6148 48.5892 18.9432 46.9044C20.2176 45.2844 20.2176 43.0272 20.2176 39.8952V39.4308C20.2176 38.0268 20.6388 36.9468 21.5136 36.1368C23.4468 34.344 26.9244 34.5276 26.9784 34.5276C26.9892 34.5276 27 34.5276 27.0108 34.5276C27.0216 34.5276 27.0324 34.5276 27.0432 34.5276C27.0756 34.5276 30.5424 34.3224 32.4972 36.126C33.372 36.936 33.804 38.016 33.804 39.42V39.8844C33.804 43.0164 33.804 45.2736 35.0784 46.8936C36.396 48.5676 38.8044 49.2588 43.4052 49.2588C43.902 49.2588 44.3016 48.8592 44.3016 48.3732C44.3016 47.8872 43.902 47.4876 43.4052 47.4876C39.5496 47.4876 37.422 46.9692 36.504 45.8136C35.6076 44.6688 35.6076 42.6708 35.6076 39.8844V39.42C35.6076 37.5192 34.9812 35.9748 33.7392 34.83C31.3848 32.6592 27.648 32.724 27.0216 32.7564C26.3952 32.7348 22.6584 32.67 20.304 34.83C19.062 35.9748 18.4356 37.5192 18.4356 39.42V39.8844C18.4356 42.66 18.4356 44.6688 17.5392 45.8136C16.632 46.9692 14.5044 47.4876 10.638 47.4876C10.1196 47.4984 9.71997 47.898 9.71997 48.384C9.71997 48.87 10.1196 49.2696 10.6164 49.2696Z" fill="#FCC497"/>
<path d="M23.6196 22.2696C25.542 24.084 28.566 23.9976 30.3696 22.0752" stroke="#F07962" stroke-miterlimit="10" stroke-linecap="round" stroke-linejoin="round"/>
<path d="M20.3147 16.1891C20.7467 16.8371 21.5027 17.2475 22.3343 17.1935C23.1119 17.1395 23.7707 16.7075 24.1379 16.0811" stroke="#09353C" stroke-miterlimit="10" stroke-linecap="round"/>
<path d="M33.685 16.1891C33.253 16.8371 32.497 17.2475 31.6654 17.1935C30.8878 17.1395 30.229 16.7075 29.8618 16.0811" stroke="#09353C" stroke-miterlimit="10" stroke-linecap="round"/>
<path d="M26.9999 6.19927C32.4215 6.19927 36.9467 10.0333 37.9943 15.1417C38.0699 15.4765 38.3615 15.7249 38.7071 15.7249C39.1715 15.7249 39.5171 15.3037 39.4307 14.8501C38.2427 9.07207 33.1343 4.73047 26.9999 4.73047C20.8655 4.73047 15.7571 9.07207 14.5583 14.8501C14.4611 15.3037 14.8175 15.7249 15.2819 15.7249C15.6275 15.7249 15.9299 15.4765 15.9947 15.1417C17.0531 10.0333 21.5783 6.19927 26.9999 6.19927ZM26.9999 28.6633C21.5783 28.6633 17.0531 24.8293 16.0055 19.7209C15.9299 19.3861 15.6383 19.1377 15.2927 19.1377C14.8283 19.1377 14.4827 19.5589 14.5691 20.0125C15.7571 25.7905 20.8763 30.1321 27.0107 30.1321C33.1451 30.1321 38.2535 25.7905 39.4523 20.0125C39.5495 19.5589 39.1931 19.1377 38.7287 19.1377C38.3831 19.1377 38.0807 19.3861 38.0159 19.7209C36.9467 24.8293 32.4215 28.6633 26.9999 28.6633Z" fill="#FCC497"/>
</g>
<defs>
<clipPath id="clip0_1_6312">
<rect width="54" height="54" fill="white"/>
</clipPath>
</defs>
</svg>
