<svg width="37" height="36" viewBox="0 0 37 36" fill="none" xmlns="http://www.w3.org/2000/svg">
<path d="M17.9427 26.4117C19.4402 26.4117 20.654 25.1885 20.654 23.6795C20.654 22.1705 19.4402 20.9473 17.9427 20.9473C16.4453 20.9473 15.2314 22.1705 15.2314 23.6795C15.2314 25.1885 16.4453 26.4117 17.9427 26.4117Z" fill="#09353C"/>
<path d="M28.643 5.27637H30.0563L28.5488 7.33863L30.14 7.32816" stroke="#F07962" stroke-width="0.25" stroke-miterlimit="10"/>
<path d="M26.6016 6.7627H27.6066L26.5283 8.23873L27.6694 8.22826" stroke="#F07962" stroke-width="0.25" stroke-miterlimit="10"/>
<path d="M30.9462 3.63281H32.7049L30.8311 6.18709L32.8096 6.17662" stroke="#F07962" stroke-width="0.25" stroke-miterlimit="10"/>
<path d="M8.14648 15.1795C8.77458 16.1321 9.88423 16.7288 11.109 16.6451C12.2501 16.5718 13.2132 15.9332 13.7575 15.0225" stroke="#09353C" stroke-width="0.75" stroke-miterlimit="10" stroke-linecap="round"/>
<path d="M27.7429 15.1795C27.1148 16.1321 26.0051 16.7288 24.7803 16.6451C23.6393 16.5718 22.6762 15.9332 22.1318 15.0225" stroke="#09353C" stroke-width="0.75" stroke-miterlimit="10" stroke-linecap="round"/>
<path d="M6.66969 6.81559C12.0714 1.35112 20.446 0.607864 26.6538 4.62771C27.062 4.89989 27.6064 4.83708 27.9518 4.49162C28.4124 4.03101 28.3392 3.25635 27.7948 2.90043C20.781 -1.66377 11.2967 -0.836768 5.19365 5.35002C-0.90939 11.5368 -1.63171 21.0211 3.01624 27.9826C3.38263 28.5269 4.15729 28.5897 4.6179 28.1187C4.96335 27.7732 5.01569 27.2289 4.74352 26.8101C0.629456 20.6652 1.26803 12.2801 6.66969 6.81559ZM29.3441 29.1969C23.9425 34.6614 15.5678 35.4046 9.36005 31.3848C8.95179 31.1126 8.40744 31.1754 8.06198 31.5209C7.60137 31.9815 7.67465 32.7561 8.219 33.1121C15.2328 37.6658 24.7171 36.8283 30.8202 30.6415C36.9232 24.4548 37.6455 14.9704 32.9976 8.00898C32.6312 7.46463 31.8565 7.40182 31.3959 7.87289C31.0505 8.21835 30.9981 8.7627 31.2703 9.18144C35.3844 15.3473 34.7458 23.7324 29.3441 29.1969Z" fill="#FCC497"/>
</svg>
