<svg width="390" height="844" viewBox="0 0 390 844" fill="none" xmlns="http://www.w3.org/2000/svg">
<g clip-path="url(#clip0_1_1201)">
<rect width="390" height="844" fill="#E2F9F6"/>
<rect width="390" height="844" fill="#E2F9F6"/>
<g filter="url(#filter0_f_1_1201)">
<ellipse cx="195" cy="387.5" rx="134" ry="43.5" fill="#E2F9F6"/>
</g>
<g filter="url(#filter1_f_1_1201)">
<rect x="-1" y="135" width="391" height="187" fill="#1F8F9A" fill-opacity="0.2"/>
</g>
<g filter="url(#filter2_d_1_1201)">
<path fill-rule="evenodd" clip-rule="evenodd" d="M222.018 109.292C203.333 102.106 191.787 99.7796 167.054 109.292C148.369 116.479 130.965 127.494 114.838 142.338C98.5987 160.577 82.3585 178.816 66.1182 197.056C61.6655 202.057 57.2128 207.057 52.7601 212.058C30.5588 236.992 -2.5177 249.238 -35.6919 245.485C-73.8016 241.174 -112.025 237.518 -150.362 234.517C-207.703 235.986 -248.008 269.612 -271.282 335.392C-284.472 390.278 -298.043 445.017 -311.994 499.611C-317.631 521.673 -330.64 541.127 -348.759 554.918C-385.864 583.162 -422.839 611.654 -459.684 640.395C-465.067 644.595 -470.083 649.277 -474.206 654.718C-488.842 674.03 -499.562 696.202 -506.367 721.231C-508.289 728.302 -509 735.632 -509 742.959V785.406C-509 796.071 -507.309 806.669 -504.001 816.809C-487.724 866.699 -471.558 916.898 -455.503 967.408C-449.17 987.331 -449.22 1008.73 -455.571 1028.65C-472.062 1080.37 -488.344 1131.94 -504.415 1183.36C-507.457 1193.1 -509 1203.24 -509 1213.44V1253.97C-509 1260.73 -508.396 1267.5 -506.752 1274.06C-499.279 1303.85 -486.211 1329.36 -467.549 1350.59C-464.13 1354.48 -460.211 1357.89 -456.091 1361.03C-416.302 1391.35 -376.647 1421.93 -337.127 1452.76C-317.698 1467.92 -304.582 1489.71 -300.009 1513.92C-290.599 1563.75 -280.687 1613.4 -270.272 1662.88C-269.118 1668.37 -267.543 1673.77 -265.315 1678.91C-242.466 1731.61 -207.216 1760.15 -159.565 1764.54C-154.37 1765.02 -149.134 1764.72 -143.953 1764.12C-106.115 1759.71 -68.2778 1755.98 -30.4386 1752.94C0.528442 1750.46 30.7358 1762.93 51.4155 1786.12C56.6119 1791.94 61.8082 1797.77 67.0045 1803.59C82.9489 1821.47 98.8932 1839.34 114.838 1857.22C125.956 1867.45 137.681 1875.86 150.015 1882.46C160.946 1888.3 173.411 1890.26 185.807 1890.26H203.893C214.085 1890.26 224.34 1888.99 233.641 1884.82C248.056 1878.36 261.587 1869.16 274.233 1857.22C290.351 1839.15 306.468 1821.08 322.586 1803.01C327.593 1797.4 332.6 1791.78 337.607 1786.17C358.314 1762.96 388.573 1750.49 419.581 1752.98C457.733 1756.04 495.883 1759.75 534.032 1764.1C539.456 1764.72 544.939 1764.99 550.369 1764.42C597.281 1759.49 631.971 1730.96 654.439 1678.83C656.63 1673.74 658.183 1668.4 659.323 1662.98C669.746 1613.47 679.665 1563.78 689.081 1513.92C693.654 1489.71 706.77 1467.92 726.199 1452.76C765.719 1421.93 805.373 1391.35 845.162 1361.03C849.282 1357.89 853.201 1354.48 856.621 1350.59C875.283 1329.36 888.351 1303.85 895.823 1274.06C897.468 1267.5 898.071 1260.73 898.071 1253.97V1213.44C898.071 1203.24 896.528 1193.1 893.486 1183.36C877.414 1131.94 861.132 1080.37 844.641 1028.65C838.291 1008.73 838.241 987.331 844.573 967.409C860.629 916.899 876.795 866.699 893.072 816.809C896.38 806.669 898.071 796.072 898.071 785.406V742.96C898.071 735.633 897.36 728.301 895.438 721.23C888.598 696.075 877.804 673.806 863.056 654.426C859.068 649.186 854.251 644.652 849.088 640.566C809.069 608.898 768.84 577.627 728.404 546.753C708.516 531.568 694.89 509.614 690.078 485.059C680.294 435.136 670.003 385.367 659.202 335.752C658.141 330.88 656.747 326.07 654.836 321.465C630.822 263.584 592.355 234.601 539.433 234.517C501.096 237.518 462.873 241.174 424.763 245.485C391.589 249.238 358.512 236.992 336.311 212.058C331.858 207.057 327.406 202.057 322.953 197.056C306.713 178.816 290.473 160.577 274.233 142.338C258.107 127.494 240.702 116.479 222.018 109.292Z" fill="url(#paint0_linear_1_1201)" fill-opacity="0.5" shape-rendering="crispEdges"/>
</g>
<g filter="url(#filter3_f_1_1201)">
<rect x="-1" y="294" width="391" height="187" fill="#1F8F9A" fill-opacity="0.2"/>
</g>


<g filter="url(#filter4_d_1_1201)">
<path fill-rule="evenodd" clip-rule="evenodd" d="M217.261 315.012C202.378 309.288 193.182 307.435 173.482 315.012C158.599 320.736 144.736 329.509 131.892 341.333C118.905 355.919 105.917 370.505 92.9297 385.091L84.3968 394.675C65.4927 415.906 37.3291 426.327 9.07822 423.162C-20.3105 419.87 -49.7837 417.068 -79.342 414.754C-125.014 415.925 -157.118 442.707 -175.656 495.102C-186.011 538.191 -196.661 581.167 -207.605 624.031C-212.401 642.817 -223.479 659.381 -238.904 671.127C-267.794 693.126 -296.584 715.314 -325.274 737.692C-329.858 741.267 -334.133 745.251 -337.627 749.898C-348.996 765.023 -357.368 782.338 -362.743 801.842C-364.4 807.856 -365 814.099 -365 820.338V852.656C-365 861.738 -363.56 870.761 -360.743 879.395C-348.053 918.302 -335.446 957.444 -322.924 996.823C-317.53 1013.79 -317.573 1032.01 -322.98 1048.97C-335.846 1089.33 -348.551 1129.57 -361.095 1169.71C-363.686 1178 -365 1186.63 -365 1195.32V1226.2C-365 1231.96 -364.491 1237.72 -363.072 1243.3C-357.136 1266.65 -346.867 1286.68 -332.266 1303.4C-329.365 1306.72 -326.025 1309.62 -322.518 1312.29C-291.496 1335.93 -260.576 1359.77 -229.76 1383.8C-213.214 1396.7 -202.048 1415.26 -198.147 1435.88C-190.797 1474.72 -183.064 1513.43 -174.947 1552.01C-173.965 1556.67 -172.626 1561.28 -170.718 1565.65C-152.583 1607.19 -124.71 1629.77 -87.101 1633.39C-82.6792 1633.81 -78.2213 1633.56 -73.809 1633.04C-44.713 1629.66 -15.6169 1626.78 13.4805 1624.41C39.8461 1622.26 65.5678 1632.89 83.1762 1652.63L93.4629 1664.17C106.272 1678.53 119.082 1692.89 131.892 1707.25C140.474 1715.15 149.511 1721.68 159.003 1726.86C168.269 1731.92 178.895 1733.57 189.45 1733.57H201.979C210.658 1733.57 219.398 1732.5 227.289 1728.89C238.483 1723.76 249.003 1716.55 258.851 1707.25C275.076 1689.06 291.3 1670.87 307.524 1652.68C325.157 1632.91 350.922 1622.29 377.323 1624.44C406.661 1626.82 435.998 1629.68 465.334 1633.03C469.953 1633.55 474.62 1633.79 479.242 1633.29C516.255 1629.24 543.677 1606.67 561.505 1565.58C563.382 1561.25 564.701 1556.7 565.672 1552.09C573.795 1513.48 581.535 1474.75 588.889 1435.88C592.791 1415.26 603.957 1396.7 620.503 1383.8C651.319 1359.77 682.238 1335.93 713.259 1312.29C716.767 1309.62 720.107 1306.72 723.009 1303.4C737.61 1286.68 747.879 1266.65 753.815 1243.3C755.233 1237.72 755.742 1231.96 755.742 1226.2V1195.32C755.742 1186.63 754.428 1178 751.838 1169.71C739.293 1129.57 726.587 1089.33 713.722 1048.97C708.315 1032.01 708.272 1013.79 713.666 996.824C726.188 957.445 738.795 918.302 751.486 879.395C754.302 870.761 755.742 861.738 755.742 852.656V820.339C755.742 814.1 755.142 807.856 753.485 801.841C748.081 782.231 739.646 764.833 728.181 749.649C724.802 745.174 720.697 741.316 716.3 737.837C685.126 713.172 653.792 688.81 622.3 664.75C605.37 651.814 593.768 633.122 589.663 612.215C582.02 573.29 573.988 534.481 565.569 495.791C564.666 491.643 563.48 487.545 561.845 483.627C542.706 437.779 512.12 414.821 470.084 414.754C440.526 417.068 411.053 419.87 381.664 423.162C353.413 426.327 325.25 415.906 306.346 394.675L296.158 383.233C283.722 369.266 271.286 355.299 258.851 341.333C246.006 329.509 232.143 320.736 217.261 315.012Z" fill="url(#paint1_linear_1_1201)" fill-opacity="0.5" shape-rendering="crispEdges"/>
</g>
<g filter="url(#filter5_f_1_1201)">
<rect y="503" width="391" height="187" fill="#1F8F9A" fill-opacity="0.2"/>
</g>
<g filter="url(#filter6_d_1_1201)">
<path fill-rule="evenodd" clip-rule="evenodd" d="M212.463 529.075C200.361 524.421 192.883 522.914 176.864 529.075C164.762 533.73 153.49 540.864 143.045 550.478C132.663 562.139 122.28 573.8 111.897 585.461L110.07 587.512C91.1663 608.744 63.0046 619.142 34.7415 616.089C13.6418 613.81 -7.51138 611.84 -28.7185 610.18C-65.8568 611.132 -91.9619 632.91 -107.036 675.515C-115.02 708.737 -123.219 741.875 -131.633 774.932C-136.415 793.721 -147.499 810.282 -162.915 822.04C-184.481 838.487 -205.979 855.064 -227.409 871.771C-231.994 875.346 -236.286 879.319 -239.714 884.014C-248.142 895.557 -254.467 908.636 -258.688 923.251C-260.419 929.244 -261 935.494 -261 941.733V963.697C-261 972.778 -259.559 981.802 -256.745 990.437C-247.217 1019.67 -237.747 1049.06 -228.336 1078.62C-222.936 1095.58 -222.982 1113.8 -228.383 1130.76C-238.066 1161.16 -247.636 1191.49 -257.095 1221.73C-259.686 1230.02 -261 1238.65 -261 1247.34V1268.39C-261 1274.14 -260.508 1279.91 -259.025 1285.47C-254.257 1303.36 -246.312 1318.81 -235.191 1331.84C-232.328 1335.19 -228.978 1338.09 -225.471 1340.76C-202.186 1358.51 -178.972 1376.39 -155.829 1394.42C-139.274 1407.31 -128.116 1425.87 -124.189 1446.48C-118.636 1475.62 -112.818 1504.67 -106.735 1533.62C-105.754 1538.29 -104.428 1542.89 -102.481 1547.25C-87.9258 1579.8 -65.8534 1597.71 -36.2643 1600.98C-31.8491 1601.47 -27.3934 1601.2 -22.9808 1600.68C-2.33554 1598.29 18.3098 1596.22 38.9558 1594.46C65.313 1592.21 91.0368 1602.86 108.645 1622.6L113.001 1627.48C123.015 1638.71 133.03 1649.94 143.045 1661.16C149.237 1666.86 155.719 1671.69 162.492 1675.65C171.607 1680.97 182.277 1682.57 192.832 1682.57H197.59C206.269 1682.57 215.043 1681.55 222.826 1677.71C231.107 1673.63 238.925 1668.11 246.281 1661.16C257.735 1648.33 269.187 1635.49 280.64 1622.65C298.272 1602.88 324.039 1592.24 350.432 1594.48C371.251 1596.24 392.069 1598.31 412.886 1600.67C417.505 1601.19 422.174 1601.45 426.787 1600.87C455.868 1597.24 477.556 1579.34 491.853 1547.18C493.768 1542.87 495.075 1538.32 496.044 1533.7C502.134 1504.72 507.958 1475.65 513.516 1446.48C517.443 1425.87 528.601 1407.31 545.157 1394.41C568.299 1376.39 591.512 1358.51 614.797 1340.76C618.305 1338.09 621.655 1335.19 624.519 1331.84C635.639 1318.81 643.584 1303.36 648.352 1285.47C649.834 1279.91 650.327 1274.14 650.327 1268.39V1247.34C650.327 1238.65 649.013 1230.02 646.421 1221.73C636.963 1191.49 627.392 1161.16 617.71 1130.76C612.308 1113.8 612.262 1095.58 617.663 1078.62C627.074 1049.06 636.543 1019.67 646.071 990.436C648.886 981.802 650.327 972.779 650.327 963.697V941.734C650.327 935.495 649.746 929.244 648.014 923.25C643.762 908.529 637.376 895.366 628.856 883.762C625.538 879.242 621.417 875.394 617.019 871.917C593.699 853.477 570.27 835.245 546.731 817.221C529.815 804.267 518.216 785.578 514.084 764.677C508.306 735.449 502.258 706.303 495.941 677.239C495.039 673.091 493.862 668.99 492.196 665.085C476.605 628.536 451.889 610.234 418.045 610.18C396.838 611.84 375.685 613.81 354.585 616.089C326.322 619.142 298.16 608.744 279.256 587.512C268.265 575.168 257.273 562.823 246.281 550.478C235.837 540.864 224.564 533.73 212.463 529.075Z" fill="url(#paint2_linear_1_1201)" fill-opacity="0.5" shape-rendering="crispEdges"/>
</g>
<g filter="url(#filter7_f_1_1201)">
<rect x="-2" y="675" width="391" height="187" fill="#1F8F9A" fill-opacity="0.2"/>
</g>
<g filter="url(#filter8_d_1_1201)">
<path fill-rule="evenodd" clip-rule="evenodd" d="M210.453 714.925C205.682 712.597 200.309 712 195 712C189.691 712 184.318 712.597 179.547 714.925C176.853 716.239 174.263 717.8 171.777 719.607C167.04 723.812 162.301 728.016 157.563 732.22C148.505 740.257 136.496 744.09 124.431 743.047C114.481 742.186 104.505 741.447 94.502 740.828C77.7937 741.166 66.0492 748.907 59.2676 764.051C58.2514 767.391 57.2275 770.73 56.1958 774.066C49.0717 797.102 33.4244 816.458 12.8608 829.05C12.0013 829.576 11.142 830.103 10.283 830.63C4.77725 834.008 -0.688267 837.716 -4.32377 843.055C-5.64918 845.002 -6.79878 847.05 -7.77256 849.199C-9.56295 853.151 -10 857.54 -10 861.878C-10 868.135 -8.76481 874.329 -6.38467 880.116C-5.53956 882.171 -4.69549 884.228 -3.85243 886.287C4.09765 905.705 3.99166 927.451 -3.77358 946.944C-4.73119 949.348 -5.68628 951.751 -6.63886 954.152C-8.8644 959.761 -10 965.743 -10 971.778C-10 975.816 -9.63205 979.897 -8.06597 983.619C-6.4693 987.414 -4.32003 990.874 -1.61815 994C1.56017 997.678 5.70557 1000.34 9.86645 1002.85C12.2887 1004.31 14.7093 1005.78 17.1282 1007.24C37.499 1019.61 51.7512 1039.79 57.7673 1062.85C59.2789 1068.64 61.1459 1074.46 64.8188 1079.18C71.7837 1088.15 81.5446 1092.81 94.1016 1093.17C104.422 1092.2 114.742 1091.37 125.063 1090.67C137.034 1089.87 148.782 1094.02 157.764 1101.98C162.435 1106.12 167.106 1110.26 171.777 1114.39C174.161 1116.13 176.641 1117.63 179.217 1118.91C184.19 1121.38 189.815 1122 195.368 1122C199.911 1122 204.505 1121.61 208.695 1119.86C212.042 1118.46 215.218 1116.63 218.223 1114.39C222.894 1110.26 227.565 1106.12 232.236 1101.98C241.217 1094.03 252.966 1089.88 264.937 1090.68C275.391 1091.38 285.845 1092.21 296.299 1093.17C308.72 1092.72 318.368 1088.04 325.245 1079.13C328.869 1074.43 330.714 1068.67 332.212 1062.93C338.243 1039.82 352.526 1019.59 372.942 1007.2C375.337 1005.75 377.734 1004.3 380.133 1002.85C384.294 1000.34 388.44 997.678 391.619 993.999C394.32 990.873 396.469 987.413 398.066 983.619C399.632 979.897 400 975.816 400 971.779C400 965.743 398.864 959.761 396.639 954.151C395.686 951.75 394.731 949.348 393.773 946.944C386.008 927.451 385.902 905.705 393.852 886.287C394.696 884.228 395.54 882.171 396.385 880.116C398.765 874.329 400 868.135 400 861.879C400 857.54 399.563 853.151 397.772 849.199C396.765 846.975 395.569 844.86 394.185 842.853C390.61 837.669 385.306 834.033 379.957 830.709C378.033 829.513 376.107 828.319 374.179 827.128C353.399 814.288 338.46 793.876 332.08 770.297C330.666 765.073 328.971 759.838 325.803 755.451C318.776 745.719 308.675 740.845 295.498 740.828C285.495 741.447 275.519 742.186 265.569 743.047C253.504 744.09 241.495 740.257 232.437 732.22C227.699 728.016 222.96 723.812 218.223 719.607C215.737 717.8 213.147 716.239 210.453 714.925Z" fill="#F3FBFD" fill-opacity="0.5" shape-rendering="crispEdges"/>
</g>

</g>
<defs>
<filter id="filter0_f_1_1201" x="-14" y="269" width="418" height="237" filterUnits="userSpaceOnUse" color-interpolation-filters="sRGB">
<feFlood flood-opacity="0" result="BackgroundImageFix"/>
<feBlend mode="normal" in="SourceGraphic" in2="BackgroundImageFix" result="shape"/>
<feGaussianBlur stdDeviation="37.5" result="effect1_foregroundBlur_1_1201"/>
</filter>
<filter id="filter1_f_1_1201" x="-201" y="-65" width="791" height="587" filterUnits="userSpaceOnUse" color-interpolation-filters="sRGB">
<feFlood flood-opacity="0" result="BackgroundImageFix"/>
<feBlend mode="normal" in="SourceGraphic" in2="BackgroundImageFix" result="shape"/>
<feGaussianBlur stdDeviation="100" result="effect1_foregroundBlur_1_1201"/>
</filter>
<filter id="filter2_d_1_1201" x="-509" y="103" width="1407.07" height="1787.26" filterUnits="userSpaceOnUse" color-interpolation-filters="sRGB">
<feFlood flood-opacity="0" result="BackgroundImageFix"/>
<feColorMatrix in="SourceAlpha" type="matrix" values="0 0 0 0 0 0 0 0 0 0 0 0 0 0 0 0 0 0 127 0" result="hardAlpha"/>
<feOffset/>
<feComposite in2="hardAlpha" operator="out"/>
<feColorMatrix type="matrix" values="0 0 0 0 0 0 0 0 0 0 0 0 0 0 0 0 0 0 0.25 0"/>
<feBlend mode="normal" in2="BackgroundImageFix" result="effect1_dropShadow_1_1201"/>
<feBlend mode="normal" in="SourceGraphic" in2="effect1_dropShadow_1_1201" result="shape"/>
</filter>
<filter id="filter3_f_1_1201" x="-201" y="94" width="791" height="587" filterUnits="userSpaceOnUse" color-interpolation-filters="sRGB">
<feFlood flood-opacity="0" result="BackgroundImageFix"/>
<feBlend mode="normal" in="SourceGraphic" in2="BackgroundImageFix" result="shape"/>
<feGaussianBlur stdDeviation="100" result="effect1_foregroundBlur_1_1201"/>
</filter>
<filter id="filter4_d_1_1201" x="-365" y="310" width="1120.74" height="1423.57" filterUnits="userSpaceOnUse" color-interpolation-filters="sRGB">
<feFlood flood-opacity="0" result="BackgroundImageFix"/>
<feColorMatrix in="SourceAlpha" type="matrix" values="0 0 0 0 0 0 0 0 0 0 0 0 0 0 0 0 0 0 127 0" result="hardAlpha"/>
<feOffset/>
<feComposite in2="hardAlpha" operator="out"/>
<feColorMatrix type="matrix" values="0 0 0 0 0 0 0 0 0 0 0 0 0 0 0 0 0 0 0.25 0"/>
<feBlend mode="normal" in2="BackgroundImageFix" result="effect1_dropShadow_1_1201"/>
<feBlend mode="normal" in="SourceGraphic" in2="effect1_dropShadow_1_1201" result="shape"/>
</filter>
<filter id="filter5_f_1_1201" x="-200" y="303" width="791" height="587" filterUnits="userSpaceOnUse" color-interpolation-filters="sRGB">
<feFlood flood-opacity="0" result="BackgroundImageFix"/>
<feBlend mode="normal" in="SourceGraphic" in2="BackgroundImageFix" result="shape"/>
<feGaussianBlur stdDeviation="100" result="effect1_foregroundBlur_1_1201"/>
</filter>
<filter id="filter6_d_1_1201" x="-261" y="525" width="911.326" height="1157.57" filterUnits="userSpaceOnUse" color-interpolation-filters="sRGB">
<feFlood flood-opacity="0" result="BackgroundImageFix"/>
<feColorMatrix in="SourceAlpha" type="matrix" values="0 0 0 0 0 0 0 0 0 0 0 0 0 0 0 0 0 0 127 0" result="hardAlpha"/>
<feOffset/>
<feComposite in2="hardAlpha" operator="out"/>
<feColorMatrix type="matrix" values="0 0 0 0 0 0 0 0 0 0 0 0 0 0 0 0 0 0 0.25 0"/>
<feBlend mode="normal" in2="BackgroundImageFix" result="effect1_dropShadow_1_1201"/>
<feBlend mode="normal" in="SourceGraphic" in2="effect1_dropShadow_1_1201" result="shape"/>
</filter>
<filter id="filter7_f_1_1201" x="-202" y="475" width="791" height="587" filterUnits="userSpaceOnUse" color-interpolation-filters="sRGB">
<feFlood flood-opacity="0" result="BackgroundImageFix"/>
<feBlend mode="normal" in="SourceGraphic" in2="BackgroundImageFix" result="shape"/>
<feGaussianBlur stdDeviation="100" result="effect1_foregroundBlur_1_1201"/>
</filter>
<filter id="filter8_d_1_1201" x="-10" y="712" width="410" height="410" filterUnits="userSpaceOnUse" color-interpolation-filters="sRGB">
<feFlood flood-opacity="0" result="BackgroundImageFix"/>
<feColorMatrix in="SourceAlpha" type="matrix" values="0 0 0 0 0 0 0 0 0 0 0 0 0 0 0 0 0 0 127 0" result="hardAlpha"/>
<feOffset/>
<feComposite in2="hardAlpha" operator="out"/>
<feColorMatrix type="matrix" values="0 0 0 0 0 0 0 0 0 0 0 0 0 0 0 0 0 0 0.25 0"/>
<feBlend mode="normal" in2="BackgroundImageFix" result="effect1_dropShadow_1_1201"/>
<feBlend mode="normal" in="SourceGraphic" in2="effect1_dropShadow_1_1201" result="shape"/>
</filter>
<linearGradient id="paint0_linear_1_1201" x1="194.536" y1="103" x2="194.536" y2="1890.26" gradientUnits="userSpaceOnUse">
<stop stop-color="#F3FBFD"/>
<stop offset="1" stop-color="white"/>
</linearGradient>
<linearGradient id="paint1_linear_1_1201" x1="195.371" y1="310" x2="195.371" y2="1733.57" gradientUnits="userSpaceOnUse">
<stop stop-color="#F3FBFD"/>
<stop offset="1" stop-color="white"/>
</linearGradient>
<linearGradient id="paint2_linear_1_1201" x1="194.663" y1="525" x2="194.663" y2="1682.57" gradientUnits="userSpaceOnUse">
<stop stop-color="#F3FBFD"/>
<stop offset="1" stop-color="white"/>
</linearGradient>
<clipPath id="clip0_1_1201">
<rect width="390" height="844" fill="white"/>
</clipPath>
<clipPath id="clip1_1_1201">
<rect width="390" height="47" fill="white"/>
</clipPath>
</defs>
</svg>
