<svg width="216" height="24" viewBox="0 0 216 24" fill="none" xmlns="http://www.w3.org/2000/svg">
<path d="M30.9741 12.4C30.9741 11.3013 31.2194 10.32 31.7101 9.456C32.2114 8.58133 32.8887 7.904 33.7421 7.424C34.6061 6.93333 35.5714 6.688 36.6381 6.688C37.8861 6.688 38.9794 7.008 39.9181 7.648C40.8567 8.288 41.5127 9.17333 41.8861 10.304H39.3101C39.0541 9.77067 38.6914 9.37067 38.2221 9.104C37.7634 8.83733 37.2301 8.704 36.6221 8.704C35.9714 8.704 35.3901 8.85867 34.8781 9.168C34.3767 9.46667 33.9821 9.89333 33.6941 10.448C33.4167 11.0027 33.2781 11.6533 33.2781 12.4C33.2781 13.136 33.4167 13.7867 33.6941 14.352C33.9821 14.9067 34.3767 15.3387 34.8781 15.648C35.3901 15.9467 35.9714 16.096 36.6221 16.096C37.2301 16.096 37.7634 15.9627 38.2221 15.696C38.6914 15.4187 39.0541 15.0133 39.3101 14.48H41.8861C41.5127 15.6213 40.8567 16.512 39.9181 17.152C38.9901 17.7813 37.8967 18.096 36.6381 18.096C35.5714 18.096 34.6061 17.856 33.7421 17.376C32.8887 16.8853 32.2114 16.208 31.7101 15.344C31.2194 14.48 30.9741 13.4987 30.9741 12.4ZM47.7353 18.144C46.882 18.144 46.114 17.9573 45.4313 17.584C44.7486 17.2 44.21 16.6613 43.8153 15.968C43.4313 15.2747 43.2393 14.4747 43.2393 13.568C43.2393 12.6613 43.4366 11.8613 43.8313 11.168C44.2366 10.4747 44.786 9.94133 45.4793 9.568C46.1726 9.184 46.946 8.992 47.7993 8.992C48.6526 8.992 49.426 9.184 50.1193 9.568C50.8126 9.94133 51.3566 10.4747 51.7513 11.168C52.1566 11.8613 52.3593 12.6613 52.3593 13.568C52.3593 14.4747 52.1513 15.2747 51.7353 15.968C51.33 16.6613 50.7753 17.2 50.0713 17.584C49.378 17.9573 48.5993 18.144 47.7353 18.144ZM47.7353 16.192C48.1406 16.192 48.5193 16.096 48.8713 15.904C49.234 15.7013 49.522 15.4027 49.7353 15.008C49.9486 14.6133 50.0553 14.1333 50.0553 13.568C50.0553 12.7253 49.8313 12.08 49.3833 11.632C48.946 11.1733 48.4073 10.944 47.7673 10.944C47.1273 10.944 46.5886 11.1733 46.1513 11.632C45.7246 12.08 45.5113 12.7253 45.5113 13.568C45.5113 14.4107 45.7193 15.0613 46.1353 15.52C46.562 15.968 47.0953 16.192 47.7353 16.192ZM58.9144 9.008C59.9704 9.008 60.8238 9.344 61.4744 10.016C62.1251 10.6773 62.4504 11.6053 62.4504 12.8V18H60.2104V13.104C60.2104 12.4 60.0344 11.8613 59.6824 11.488C59.3304 11.104 58.8504 10.912 58.2424 10.912C57.6238 10.912 57.1331 11.104 56.7704 11.488C56.4184 11.8613 56.2424 12.4 56.2424 13.104V18H54.0024V9.136H56.2424V10.24C56.5411 9.856 56.9198 9.55733 57.3784 9.344C57.8478 9.12 58.3598 9.008 58.9144 9.008ZM67.1886 10.976V15.264C67.1886 15.5627 67.2579 15.7813 67.3966 15.92C67.5459 16.048 67.7912 16.112 68.1326 16.112H69.1726V18H67.7646C65.8766 18 64.9326 17.0827 64.9326 15.248V10.976H63.8766V9.136H64.9326V6.944H67.1886V9.136H69.1726V10.976H67.1886ZM70.2077 13.536C70.2077 12.64 70.3837 11.8453 70.7357 11.152C71.0984 10.4587 71.5837 9.92533 72.1917 9.552C72.8104 9.17867 73.4984 8.992 74.2557 8.992C74.917 8.992 75.493 9.12533 75.9837 9.392C76.485 9.65867 76.885 9.99467 77.1837 10.4V9.136H79.4397V18H77.1837V16.704C76.8957 17.12 76.4957 17.4667 75.9837 17.744C75.4824 18.0107 74.901 18.144 74.2397 18.144C73.493 18.144 72.8104 17.952 72.1917 17.568C71.5837 17.184 71.0984 16.6453 70.7357 15.952C70.3837 15.248 70.2077 14.4427 70.2077 13.536ZM77.1837 13.568C77.1837 13.024 77.077 12.56 76.8637 12.176C76.6504 11.7813 76.3624 11.4827 75.9997 11.28C75.637 11.0667 75.2477 10.96 74.8317 10.96C74.4157 10.96 74.0317 11.0613 73.6797 11.264C73.3277 11.4667 73.0397 11.7653 72.8157 12.16C72.6024 12.544 72.4957 13.0027 72.4957 13.536C72.4957 14.0693 72.6024 14.5387 72.8157 14.944C73.0397 15.3387 73.3277 15.6427 73.6797 15.856C74.0424 16.0693 74.4264 16.176 74.8317 16.176C75.2477 16.176 75.637 16.0747 75.9997 15.872C76.3624 15.6587 76.6504 15.36 76.8637 14.976C77.077 14.5813 77.1837 14.112 77.1837 13.568ZM81.0514 13.568C81.0514 12.6507 81.2381 11.8507 81.6114 11.168C81.9848 10.4747 82.5021 9.94133 83.1634 9.568C83.8248 9.184 84.5821 8.992 85.4354 8.992C86.5341 8.992 87.4408 9.26933 88.1554 9.824C88.8808 10.368 89.3661 11.136 89.6114 12.128H87.1954C87.0674 11.744 86.8488 11.4453 86.5394 11.232C86.2408 11.008 85.8674 10.896 85.4194 10.896C84.7794 10.896 84.2728 11.1307 83.8994 11.6C83.5261 12.0587 83.3394 12.7147 83.3394 13.568C83.3394 14.4107 83.5261 15.0667 83.8994 15.536C84.2728 15.9947 84.7794 16.224 85.4194 16.224C86.3261 16.224 86.9181 15.8187 87.1954 15.008H89.6114C89.3661 15.968 88.8808 16.7307 88.1554 17.296C87.4301 17.8613 86.5234 18.144 85.4354 18.144C84.5821 18.144 83.8248 17.9573 83.1634 17.584C82.5021 17.2 81.9848 16.6667 81.6114 15.984C81.2381 15.2907 81.0514 14.4853 81.0514 13.568ZM93.8604 10.976V15.264C93.8604 15.5627 93.9298 15.7813 94.0684 15.92C94.2178 16.048 94.4631 16.112 94.8044 16.112H95.8444V18H94.4364C92.5484 18 91.6044 17.0827 91.6044 15.248V10.976H90.5484V9.136H91.6044V6.944H93.8604V9.136H95.8444V10.976H93.8604ZM105.124 18.112C104.345 18.112 103.641 17.9787 103.012 17.712C102.393 17.4453 101.903 17.0613 101.54 16.56C101.177 16.0587 100.991 15.4667 100.98 14.784H103.38C103.412 15.2427 103.572 15.6053 103.86 15.872C104.159 16.1387 104.564 16.272 105.076 16.272C105.599 16.272 106.009 16.1493 106.308 15.904C106.607 15.648 106.756 15.3173 106.756 14.912C106.756 14.5813 106.655 14.3093 106.452 14.096C106.249 13.8827 105.993 13.7173 105.684 13.6C105.385 13.472 104.969 13.3333 104.436 13.184C103.711 12.9707 103.119 12.7627 102.66 12.56C102.212 12.3467 101.823 12.032 101.492 11.616C101.172 11.1893 101.012 10.624 101.012 9.92C101.012 9.25867 101.177 8.68267 101.508 8.192C101.839 7.70133 102.303 7.328 102.9 7.072C103.497 6.80533 104.18 6.672 104.948 6.672C106.1 6.672 107.033 6.95467 107.748 7.52C108.473 8.07467 108.873 8.85333 108.948 9.856H106.484C106.463 9.472 106.297 9.15733 105.988 8.912C105.689 8.656 105.289 8.528 104.788 8.528C104.351 8.528 103.999 8.64 103.732 8.864C103.476 9.088 103.348 9.41333 103.348 9.84C103.348 10.1387 103.444 10.3893 103.636 10.592C103.839 10.784 104.084 10.944 104.372 11.072C104.671 11.1893 105.087 11.328 105.62 11.488C106.345 11.7013 106.937 11.9147 107.396 12.128C107.855 12.3413 108.249 12.6613 108.58 13.088C108.911 13.5147 109.076 14.0747 109.076 14.768C109.076 15.3653 108.921 15.92 108.612 16.432C108.303 16.944 107.849 17.3547 107.252 17.664C106.655 17.9627 105.945 18.112 105.124 18.112ZM119.386 9.136V18H117.13V16.88C116.842 17.264 116.463 17.568 115.994 17.792C115.535 18.0053 115.034 18.112 114.49 18.112C113.797 18.112 113.183 17.968 112.65 17.68C112.117 17.3813 111.695 16.9493 111.386 16.384C111.087 15.808 110.938 15.1253 110.938 14.336V9.136H113.178V14.016C113.178 14.72 113.354 15.264 113.706 15.648C114.058 16.0213 114.538 16.208 115.146 16.208C115.765 16.208 116.25 16.0213 116.602 15.648C116.954 15.264 117.13 14.72 117.13 14.016V9.136H119.386ZM123.836 10.416C124.124 10.0107 124.519 9.67467 125.02 9.408C125.532 9.13067 126.114 8.992 126.764 8.992C127.522 8.992 128.204 9.17867 128.812 9.552C129.431 9.92533 129.916 10.4587 130.268 11.152C130.631 11.8347 130.812 12.6293 130.812 13.536C130.812 14.4427 130.631 15.248 130.268 15.952C129.916 16.6453 129.431 17.184 128.812 17.568C128.204 17.952 127.522 18.144 126.764 18.144C126.114 18.144 125.538 18.0107 125.036 17.744C124.546 17.4773 124.146 17.1413 123.836 16.736V22.224H121.596V9.136H123.836V10.416ZM128.524 13.536C128.524 13.0027 128.412 12.544 128.188 12.16C127.975 11.7653 127.687 11.4667 127.324 11.264C126.972 11.0613 126.588 10.96 126.172 10.96C125.767 10.96 125.383 11.0667 125.02 11.28C124.668 11.4827 124.38 11.7813 124.156 12.176C123.943 12.5707 123.836 13.0347 123.836 13.568C123.836 14.1013 123.943 14.5653 124.156 14.96C124.38 15.3547 124.668 15.6587 125.02 15.872C125.383 16.0747 125.767 16.176 126.172 16.176C126.588 16.176 126.972 16.0693 127.324 15.856C127.687 15.6427 127.975 15.3387 128.188 14.944C128.412 14.5493 128.524 14.08 128.524 13.536ZM134.68 10.416C134.968 10.0107 135.363 9.67467 135.864 9.408C136.376 9.13067 136.957 8.992 137.608 8.992C138.365 8.992 139.048 9.17867 139.656 9.552C140.275 9.92533 140.76 10.4587 141.112 11.152C141.475 11.8347 141.656 12.6293 141.656 13.536C141.656 14.4427 141.475 15.248 141.112 15.952C140.76 16.6453 140.275 17.184 139.656 17.568C139.048 17.952 138.365 18.144 137.608 18.144C136.957 18.144 136.381 18.0107 135.88 17.744C135.389 17.4773 134.989 17.1413 134.68 16.736V22.224H132.44V9.136H134.68V10.416ZM139.368 13.536C139.368 13.0027 139.256 12.544 139.032 12.16C138.819 11.7653 138.531 11.4667 138.168 11.264C137.816 11.0613 137.432 10.96 137.016 10.96C136.611 10.96 136.227 11.0667 135.864 11.28C135.512 11.4827 135.224 11.7813 135 12.176C134.787 12.5707 134.68 13.0347 134.68 13.568C134.68 14.1013 134.787 14.5653 135 14.96C135.224 15.3547 135.512 15.6587 135.864 15.872C136.227 16.0747 136.611 16.176 137.016 16.176C137.432 16.176 137.816 16.0693 138.168 15.856C138.531 15.6427 138.819 15.3387 139.032 14.944C139.256 14.5493 139.368 14.08 139.368 13.536ZM147.22 18.144C146.366 18.144 145.598 17.9573 144.916 17.584C144.233 17.2 143.694 16.6613 143.3 15.968C142.916 15.2747 142.724 14.4747 142.724 13.568C142.724 12.6613 142.921 11.8613 143.316 11.168C143.721 10.4747 144.27 9.94133 144.964 9.568C145.657 9.184 146.43 8.992 147.284 8.992C148.137 8.992 148.91 9.184 149.604 9.568C150.297 9.94133 150.841 10.4747 151.236 11.168C151.641 11.8613 151.844 12.6613 151.844 13.568C151.844 14.4747 151.636 15.2747 151.22 15.968C150.814 16.6613 150.26 17.2 149.556 17.584C148.862 17.9573 148.084 18.144 147.22 18.144ZM147.22 16.192C147.625 16.192 148.004 16.096 148.356 15.904C148.718 15.7013 149.006 15.4027 149.22 15.008C149.433 14.6133 149.54 14.1333 149.54 13.568C149.54 12.7253 149.316 12.08 148.868 11.632C148.43 11.1733 147.892 10.944 147.252 10.944C146.612 10.944 146.073 11.1733 145.636 11.632C145.209 12.08 144.996 12.7253 144.996 13.568C144.996 14.4107 145.204 15.0613 145.62 15.52C146.046 15.968 146.58 16.192 147.22 16.192ZM155.727 10.512C156.015 10.0427 156.388 9.67467 156.847 9.408C157.316 9.14133 157.849 9.008 158.447 9.008V11.36H157.855C157.151 11.36 156.617 11.5253 156.255 11.856C155.903 12.1867 155.727 12.7627 155.727 13.584V18H153.487V9.136H155.727V10.512ZM162.564 10.976V15.264C162.564 15.5627 162.633 15.7813 162.772 15.92C162.921 16.048 163.166 16.112 163.508 16.112H164.548V18H163.14C161.252 18 160.308 17.0827 160.308 15.248V10.976H159.252V9.136H160.308V6.944H162.564V9.136H164.548V10.976H162.564ZM177.571 6.832V8.64H174.595V18H172.355V8.64H169.379V6.832H177.571ZM187.446 13.376C187.446 13.696 187.424 13.984 187.382 14.24H180.902C180.955 14.88 181.179 15.3813 181.574 15.744C181.968 16.1067 182.454 16.288 183.03 16.288C183.862 16.288 184.454 15.9307 184.806 15.216H187.222C186.966 16.0693 186.475 16.7733 185.75 17.328C185.024 17.872 184.134 18.144 183.078 18.144C182.224 18.144 181.456 17.9573 180.774 17.584C180.102 17.2 179.574 16.6613 179.19 15.968C178.816 15.2747 178.63 14.4747 178.63 13.568C178.63 12.6507 178.816 11.8453 179.19 11.152C179.563 10.4587 180.086 9.92533 180.758 9.552C181.43 9.17867 182.203 8.992 183.078 8.992C183.92 8.992 184.672 9.17333 185.334 9.536C186.006 9.89867 186.523 10.416 186.886 11.088C187.259 11.7493 187.446 12.512 187.446 13.376ZM185.126 12.736C185.115 12.16 184.907 11.7013 184.502 11.36C184.096 11.008 183.6 10.832 183.014 10.832C182.459 10.832 181.99 11.0027 181.606 11.344C181.232 11.6747 181.003 12.1387 180.918 12.736H185.126ZM188.505 13.536C188.505 12.64 188.681 11.8453 189.033 11.152C189.395 10.4587 189.881 9.92533 190.489 9.552C191.107 9.17867 191.795 8.992 192.553 8.992C193.214 8.992 193.79 9.12533 194.281 9.392C194.782 9.65867 195.182 9.99467 195.481 10.4V9.136H197.737V18H195.481V16.704C195.193 17.12 194.793 17.4667 194.281 17.744C193.779 18.0107 193.198 18.144 192.537 18.144C191.79 18.144 191.107 17.952 190.489 17.568C189.881 17.184 189.395 16.6453 189.033 15.952C188.681 15.248 188.505 14.4427 188.505 13.536ZM195.481 13.568C195.481 13.024 195.374 12.56 195.161 12.176C194.947 11.7813 194.659 11.4827 194.297 11.28C193.934 11.0667 193.545 10.96 193.129 10.96C192.713 10.96 192.329 11.0613 191.977 11.264C191.625 11.4667 191.337 11.7653 191.113 12.16C190.899 12.544 190.793 13.0027 190.793 13.536C190.793 14.0693 190.899 14.5387 191.113 14.944C191.337 15.3387 191.625 15.6427 191.977 15.856C192.339 16.0693 192.723 16.176 193.129 16.176C193.545 16.176 193.934 16.0747 194.297 15.872C194.659 15.6587 194.947 15.36 195.161 14.976C195.374 14.5813 195.481 14.112 195.481 13.568ZM210.932 9.008C212.02 9.008 212.895 9.344 213.556 10.016C214.228 10.6773 214.564 11.6053 214.564 12.8V18H212.324V13.104C212.324 12.4107 212.148 11.8827 211.796 11.52C211.444 11.1467 210.964 10.96 210.356 10.96C209.748 10.96 209.263 11.1467 208.9 11.52C208.548 11.8827 208.372 12.4107 208.372 13.104V18H206.132V13.104C206.132 12.4107 205.956 11.8827 205.604 11.52C205.252 11.1467 204.772 10.96 204.164 10.96C203.546 10.96 203.055 11.1467 202.692 11.52C202.34 11.8827 202.164 12.4107 202.164 13.104V18H199.924V9.136H202.164V10.208C202.452 9.83467 202.82 9.54133 203.268 9.328C203.727 9.11467 204.228 9.008 204.772 9.008C205.466 9.008 206.084 9.15733 206.628 9.456C207.172 9.744 207.594 10.16 207.892 10.704C208.18 10.192 208.596 9.78133 209.14 9.472C209.695 9.16267 210.292 9.008 210.932 9.008Z" fill="white"/>
<g clip-path="url(#clip0_1_2082)">
<path d="M10.7809 0.78281C8.45122 1.13906 6.40278 2.38594 5.0481 4.27031C4.67778 4.78594 4.09185 5.93906 3.89497 6.53906C3.72622 7.05937 3.57154 7.75781 3.53404 8.19375L3.50122 8.51719L3.12154 8.55C2.60591 8.5875 2.25435 8.68594 1.78091 8.91562C1.46685 9.06562 1.30279 9.19219 0.979348 9.51094C0.63716 9.84844 0.538723 9.98437 0.360598 10.3594C0.0230975 11.0531 -0.009715 11.3016 0.009035 12.9937C0.027785 14.3859 0.027785 14.4234 0.154348 14.7891C0.435598 15.6375 1.01685 16.3219 1.76685 16.6969C2.38091 17.0062 2.76997 17.0859 3.65591 17.0859C4.48091 17.0859 4.67778 17.0297 4.85122 16.7297C4.94028 16.575 4.94497 16.4625 4.9731 12.4219C5.00122 7.8 4.98247 8.03906 5.34341 6.96094C6.11685 4.63594 8.10435 2.87812 10.57 2.33906C11.1184 2.21719 12.2903 2.17031 12.8668 2.24531C14.4887 2.46094 15.8809 3.15469 17.0247 4.32187C17.9668 5.27812 18.5809 6.43125 18.9043 7.8375C18.9981 8.25937 19.0028 8.41875 19.0262 12.4219C19.059 17.0391 19.0356 16.7531 19.3731 16.9641C19.5184 17.0531 19.6028 17.0625 20.3528 17.0625C21.0137 17.0625 21.2434 17.0437 21.534 16.9687C22.6168 16.6922 23.4793 15.8812 23.845 14.7891C23.9715 14.4234 23.9715 14.3859 23.9903 12.9937C24.009 11.3016 23.9762 11.0484 23.6387 10.3594C23.4559 9.98906 23.3528 9.84844 23.02 9.51094C22.4153 8.91094 21.7637 8.61562 20.8778 8.55L20.4981 8.51719L20.4653 8.19375C20.3856 7.31719 20.0997 6.39375 19.6168 5.41406C19.2043 4.58906 18.8012 4.00312 18.1918 3.36562C16.8278 1.93125 15.1262 1.05469 13.1668 0.773436C12.5528 0.68906 11.3715 0.68906 10.7809 0.78281Z" fill="white"/>
<path d="M3.20098 18.1543C3.24316 18.4637 3.48691 19.134 3.69785 19.5277C4.37754 20.7887 5.54004 21.7027 6.92754 22.0637C7.26973 22.1527 7.54629 22.1855 8.06191 22.2043L8.74629 22.2324V21.8012L8.75098 21.3746H8.27754C7.68691 21.3746 7.30254 21.3137 6.81035 21.1449C5.53066 20.7043 4.49473 19.6215 4.12441 18.3324L4.01191 17.9527H3.59473H3.17285L3.20098 18.1543Z" fill="white"/>
<path d="M10.6869 20.3578C10.0212 20.5453 9.58062 21.1406 9.58999 21.8484C9.59937 22.4016 9.92749 22.9125 10.4431 23.1656C10.6587 23.2687 10.6962 23.2734 11.9994 23.2734C13.3025 23.2734 13.34 23.2687 13.5556 23.1656C14.4556 22.7203 14.6947 21.5531 14.0337 20.8172C13.9119 20.6812 13.7103 20.5266 13.5556 20.4516L13.2884 20.3203L12.0931 20.3109C11.2447 20.3016 10.8369 20.3156 10.6869 20.3578Z" fill="white"/>
</g>
<defs>
<clipPath id="clip0_1_2082">
<rect width="24" height="24" fill="white"/>
</clipPath>
</defs>
</svg>
