<svg width="100" height="20" viewBox="0 0 100 20" fill="none" xmlns="http://www.w3.org/2000/svg">
<rect width="100" height="20" rx="2" fill="black"/>
<path d="M14.4521 5.89062V13H13.5244V5.89062H14.4521ZM16.7373 5.89062V6.66211H11.2441V5.89062H16.7373ZM20.2139 12.0967V9.37695C20.2139 9.16862 20.1715 8.98796 20.0869 8.83496C20.0055 8.67871 19.8818 8.55827 19.7158 8.47363C19.5498 8.389 19.3447 8.34668 19.1006 8.34668C18.8727 8.34668 18.6725 8.38574 18.5 8.46387C18.3307 8.54199 18.1973 8.64453 18.0996 8.77148C18.0052 8.89844 17.958 9.03516 17.958 9.18164H17.0547C17.0547 8.99284 17.1035 8.80566 17.2012 8.62012C17.2988 8.43457 17.4388 8.26693 17.6211 8.11719C17.8066 7.96419 18.028 7.84375 18.2852 7.75586C18.5456 7.66471 18.8353 7.61914 19.1543 7.61914C19.5384 7.61914 19.877 7.68424 20.1699 7.81445C20.4661 7.94466 20.6973 8.1416 20.8633 8.40527C21.0326 8.66569 21.1172 8.99284 21.1172 9.38672V11.8477C21.1172 12.0234 21.1318 12.2106 21.1611 12.4092C21.1937 12.6077 21.2409 12.7786 21.3027 12.9219V13H20.3604C20.3148 12.8958 20.279 12.7575 20.2529 12.585C20.2269 12.4092 20.2139 12.2464 20.2139 12.0967ZM20.3701 9.79688L20.3799 10.4316H19.4668C19.2096 10.4316 18.9801 10.4528 18.7783 10.4951C18.5765 10.5342 18.4072 10.5944 18.2705 10.6758C18.1338 10.7572 18.0296 10.8597 17.958 10.9834C17.8864 11.1038 17.8506 11.2454 17.8506 11.4082C17.8506 11.5742 17.888 11.7256 17.9629 11.8623C18.0378 11.999 18.1501 12.1081 18.2998 12.1895C18.4528 12.2676 18.64 12.3066 18.8613 12.3066C19.138 12.3066 19.3822 12.248 19.5938 12.1309C19.8053 12.0137 19.973 11.8704 20.0967 11.7012C20.2236 11.5319 20.292 11.3675 20.3018 11.208L20.6875 11.6426C20.6647 11.7793 20.6029 11.9307 20.502 12.0967C20.401 12.2627 20.266 12.4222 20.0967 12.5752C19.9307 12.7249 19.7321 12.8503 19.501 12.9512C19.2731 13.0488 19.016 13.0977 18.7295 13.0977C18.3714 13.0977 18.0573 13.0277 17.7871 12.8877C17.5202 12.7477 17.3118 12.5605 17.1621 12.3262C17.0156 12.0885 16.9424 11.8232 16.9424 11.5303C16.9424 11.2471 16.9977 10.998 17.1084 10.7832C17.2191 10.5651 17.3786 10.3844 17.5869 10.2412C17.7952 10.0947 18.0459 9.98405 18.3389 9.90918C18.6318 9.83431 18.959 9.79688 19.3203 9.79688H20.3701ZM23.4463 5.5V13H22.5381V5.5H23.4463ZM26.6738 7.7168L24.3691 10.1826L23.0801 11.5205L23.0068 10.5586L23.9297 9.45508L25.5703 7.7168H26.6738ZM25.8486 13L23.9639 10.4805L24.4326 9.6748L26.9131 13H25.8486ZM29.7012 13.0977C29.3333 13.0977 28.9997 13.0358 28.7002 12.9121C28.404 12.7852 28.1484 12.6077 27.9336 12.3799C27.722 12.152 27.5592 11.8818 27.4453 11.5693C27.3314 11.2568 27.2744 10.915 27.2744 10.5439V10.3389C27.2744 9.90918 27.3379 9.52669 27.4648 9.19141C27.5918 8.85286 27.7643 8.56641 27.9824 8.33203C28.2005 8.09766 28.4479 7.92025 28.7246 7.7998C29.0013 7.67936 29.2878 7.61914 29.584 7.61914C29.9616 7.61914 30.2871 7.68424 30.5605 7.81445C30.8372 7.94466 31.0635 8.12695 31.2393 8.36133C31.415 8.59245 31.5452 8.86589 31.6299 9.18164C31.7145 9.49414 31.7568 9.83594 31.7568 10.207V10.6123H27.8115V9.875H30.8535V9.80664C30.8405 9.57227 30.7917 9.3444 30.707 9.12305C30.6257 8.90169 30.4954 8.7194 30.3164 8.57617C30.1374 8.43294 29.8932 8.36133 29.584 8.36133C29.3789 8.36133 29.1901 8.40527 29.0176 8.49316C28.8451 8.5778 28.6969 8.70475 28.5732 8.87402C28.4495 9.04329 28.3535 9.25 28.2852 9.49414C28.2168 9.73828 28.1826 10.0199 28.1826 10.3389V10.5439C28.1826 10.7946 28.2168 11.0306 28.2852 11.252C28.3568 11.4701 28.4593 11.6621 28.5928 11.8281C28.7295 11.9941 28.8939 12.1243 29.0859 12.2188C29.2812 12.3132 29.5026 12.3604 29.75 12.3604C30.069 12.3604 30.3392 12.2952 30.5605 12.165C30.7819 12.0348 30.9756 11.8607 31.1416 11.6426L31.6885 12.0771C31.5745 12.2497 31.4297 12.4141 31.2539 12.5703C31.0781 12.7266 30.8617 12.8535 30.6045 12.9512C30.3506 13.0488 30.0495 13.0977 29.7012 13.0977ZM38.0605 6.52051L35.707 13H34.7451L37.4551 5.89062H38.0752L38.0605 6.52051ZM40.0332 13L37.6748 6.52051L37.6602 5.89062H38.2803L41 13H40.0332ZM39.9111 10.3682V11.1396H35.917V10.3682H39.9111ZM44.8916 11.5986C44.8916 11.4684 44.8623 11.348 44.8037 11.2373C44.7484 11.1234 44.6328 11.0208 44.457 10.9297C44.2845 10.8353 44.0241 10.7539 43.6758 10.6855C43.3828 10.6237 43.1175 10.5505 42.8799 10.4658C42.6455 10.3812 42.4453 10.2786 42.2793 10.1582C42.1165 10.0378 41.9912 9.89616 41.9033 9.7334C41.8154 9.57064 41.7715 9.38021 41.7715 9.16211C41.7715 8.95378 41.8171 8.75684 41.9082 8.57129C42.0026 8.38574 42.1344 8.22135 42.3037 8.07812C42.4762 7.9349 42.6829 7.82259 42.9238 7.74121C43.1647 7.65983 43.4333 7.61914 43.7295 7.61914C44.1527 7.61914 44.514 7.69401 44.8135 7.84375C45.113 7.99349 45.3424 8.19368 45.502 8.44434C45.6615 8.69173 45.7412 8.9668 45.7412 9.26953H44.8379C44.8379 9.12305 44.7939 8.98145 44.7061 8.84473C44.6214 8.70475 44.4961 8.58919 44.3301 8.49805C44.1673 8.4069 43.9671 8.36133 43.7295 8.36133C43.4788 8.36133 43.2754 8.40039 43.1191 8.47852C42.9661 8.55339 42.8538 8.64941 42.7822 8.7666C42.7139 8.88379 42.6797 9.00749 42.6797 9.1377C42.6797 9.23535 42.696 9.32324 42.7285 9.40137C42.7643 9.47624 42.8262 9.54622 42.9141 9.61133C43.002 9.67318 43.1257 9.73177 43.2852 9.78711C43.4447 9.84245 43.6481 9.89779 43.8955 9.95312C44.3285 10.0508 44.6849 10.168 44.9648 10.3047C45.2448 10.4414 45.4531 10.609 45.5898 10.8076C45.7266 11.0062 45.7949 11.2471 45.7949 11.5303C45.7949 11.7614 45.7461 11.973 45.6484 12.165C45.554 12.3571 45.4157 12.5231 45.2334 12.6631C45.0544 12.7998 44.8395 12.9072 44.5889 12.9854C44.3415 13.0602 44.0632 13.0977 43.7539 13.0977C43.2884 13.0977 42.8945 13.0146 42.5723 12.8486C42.25 12.6826 42.0059 12.4678 41.8398 12.2041C41.6738 11.9404 41.5908 11.6621 41.5908 11.3691H42.499C42.512 11.6165 42.5837 11.8135 42.7139 11.96C42.8441 12.1032 43.0036 12.2057 43.1924 12.2676C43.3812 12.3262 43.5684 12.3555 43.7539 12.3555C44.0013 12.3555 44.208 12.3229 44.374 12.2578C44.5433 12.1927 44.6719 12.1032 44.7598 11.9893C44.8477 11.8753 44.8916 11.7451 44.8916 11.5986ZM50.0576 11.5986C50.0576 11.4684 50.0283 11.348 49.9697 11.2373C49.9144 11.1234 49.7988 11.0208 49.623 10.9297C49.4505 10.8353 49.1901 10.7539 48.8418 10.6855C48.5488 10.6237 48.2835 10.5505 48.0459 10.4658C47.8115 10.3812 47.6113 10.2786 47.4453 10.1582C47.2826 10.0378 47.1572 9.89616 47.0693 9.7334C46.9814 9.57064 46.9375 9.38021 46.9375 9.16211C46.9375 8.95378 46.9831 8.75684 47.0742 8.57129C47.1686 8.38574 47.3005 8.22135 47.4697 8.07812C47.6423 7.9349 47.849 7.82259 48.0898 7.74121C48.3307 7.65983 48.5993 7.61914 48.8955 7.61914C49.3187 7.61914 49.68 7.69401 49.9795 7.84375C50.279 7.99349 50.5085 8.19368 50.668 8.44434C50.8275 8.69173 50.9072 8.9668 50.9072 9.26953H50.0039C50.0039 9.12305 49.96 8.98145 49.8721 8.84473C49.7874 8.70475 49.6621 8.58919 49.4961 8.49805C49.3333 8.4069 49.1331 8.36133 48.8955 8.36133C48.6449 8.36133 48.4414 8.40039 48.2852 8.47852C48.1322 8.55339 48.0199 8.64941 47.9482 8.7666C47.8799 8.88379 47.8457 9.00749 47.8457 9.1377C47.8457 9.23535 47.862 9.32324 47.8945 9.40137C47.9303 9.47624 47.9922 9.54622 48.0801 9.61133C48.168 9.67318 48.2917 9.73177 48.4512 9.78711C48.6107 9.84245 48.8141 9.89779 49.0615 9.95312C49.4945 10.0508 49.8509 10.168 50.1309 10.3047C50.4108 10.4414 50.6191 10.609 50.7559 10.8076C50.8926 11.0062 50.9609 11.2471 50.9609 11.5303C50.9609 11.7614 50.9121 11.973 50.8145 12.165C50.7201 12.3571 50.5817 12.5231 50.3994 12.6631C50.2204 12.7998 50.0055 12.9072 49.7549 12.9854C49.5075 13.0602 49.2292 13.0977 48.9199 13.0977C48.4544 13.0977 48.0605 13.0146 47.7383 12.8486C47.416 12.6826 47.1719 12.4678 47.0059 12.2041C46.8398 11.9404 46.7568 11.6621 46.7568 11.3691H47.665C47.6781 11.6165 47.7497 11.8135 47.8799 11.96C48.0101 12.1032 48.1696 12.2057 48.3584 12.2676C48.5472 12.3262 48.7344 12.3555 48.9199 12.3555C49.1673 12.3555 49.374 12.3229 49.54 12.2578C49.7093 12.1927 49.8379 12.1032 49.9258 11.9893C50.0137 11.8753 50.0576 11.7451 50.0576 11.5986ZM54.3398 13.0977C53.972 13.0977 53.6383 13.0358 53.3389 12.9121C53.0426 12.7852 52.7871 12.6077 52.5723 12.3799C52.3607 12.152 52.1979 11.8818 52.084 11.5693C51.9701 11.2568 51.9131 10.915 51.9131 10.5439V10.3389C51.9131 9.90918 51.9766 9.52669 52.1035 9.19141C52.2305 8.85286 52.403 8.56641 52.6211 8.33203C52.8392 8.09766 53.0866 7.92025 53.3633 7.7998C53.64 7.67936 53.9264 7.61914 54.2227 7.61914C54.6003 7.61914 54.9258 7.68424 55.1992 7.81445C55.4759 7.94466 55.7021 8.12695 55.8779 8.36133C56.0537 8.59245 56.1839 8.86589 56.2686 9.18164C56.3532 9.49414 56.3955 9.83594 56.3955 10.207V10.6123H52.4502V9.875H55.4922V9.80664C55.4792 9.57227 55.4303 9.3444 55.3457 9.12305C55.2643 8.90169 55.1341 8.7194 54.9551 8.57617C54.776 8.43294 54.5319 8.36133 54.2227 8.36133C54.0176 8.36133 53.8288 8.40527 53.6562 8.49316C53.4837 8.5778 53.3356 8.70475 53.2119 8.87402C53.0882 9.04329 52.9922 9.25 52.9238 9.49414C52.8555 9.73828 52.8213 10.0199 52.8213 10.3389V10.5439C52.8213 10.7946 52.8555 11.0306 52.9238 11.252C52.9954 11.4701 53.098 11.6621 53.2314 11.8281C53.3682 11.9941 53.5326 12.1243 53.7246 12.2188C53.9199 12.3132 54.1413 12.3604 54.3887 12.3604C54.7077 12.3604 54.9779 12.2952 55.1992 12.165C55.4206 12.0348 55.6143 11.8607 55.7803 11.6426L56.3271 12.0771C56.2132 12.2497 56.0684 12.4141 55.8926 12.5703C55.7168 12.7266 55.5003 12.8535 55.2432 12.9512C54.9893 13.0488 54.6882 13.0977 54.3398 13.0977ZM60.5264 11.5986C60.5264 11.4684 60.4971 11.348 60.4385 11.2373C60.3831 11.1234 60.2676 11.0208 60.0918 10.9297C59.9193 10.8353 59.6589 10.7539 59.3105 10.6855C59.0176 10.6237 58.7523 10.5505 58.5146 10.4658C58.2803 10.3812 58.0801 10.2786 57.9141 10.1582C57.7513 10.0378 57.626 9.89616 57.5381 9.7334C57.4502 9.57064 57.4062 9.38021 57.4062 9.16211C57.4062 8.95378 57.4518 8.75684 57.543 8.57129C57.6374 8.38574 57.7692 8.22135 57.9385 8.07812C58.111 7.9349 58.3177 7.82259 58.5586 7.74121C58.7995 7.65983 59.068 7.61914 59.3643 7.61914C59.7874 7.61914 60.1488 7.69401 60.4482 7.84375C60.7477 7.99349 60.9772 8.19368 61.1367 8.44434C61.2962 8.69173 61.376 8.9668 61.376 9.26953H60.4727C60.4727 9.12305 60.4287 8.98145 60.3408 8.84473C60.2562 8.70475 60.1309 8.58919 59.9648 8.49805C59.8021 8.4069 59.6019 8.36133 59.3643 8.36133C59.1136 8.36133 58.9102 8.40039 58.7539 8.47852C58.6009 8.55339 58.4886 8.64941 58.417 8.7666C58.3486 8.88379 58.3145 9.00749 58.3145 9.1377C58.3145 9.23535 58.3307 9.32324 58.3633 9.40137C58.3991 9.47624 58.4609 9.54622 58.5488 9.61133C58.6367 9.67318 58.7604 9.73177 58.9199 9.78711C59.0794 9.84245 59.2829 9.89779 59.5303 9.95312C59.9632 10.0508 60.3197 10.168 60.5996 10.3047C60.8796 10.4414 61.0879 10.609 61.2246 10.8076C61.3613 11.0062 61.4297 11.2471 61.4297 11.5303C61.4297 11.7614 61.3809 11.973 61.2832 12.165C61.1888 12.3571 61.0505 12.5231 60.8682 12.6631C60.6891 12.7998 60.4743 12.9072 60.2236 12.9854C59.9762 13.0602 59.6979 13.0977 59.3887 13.0977C58.9232 13.0977 58.5293 13.0146 58.207 12.8486C57.8848 12.6826 57.6406 12.4678 57.4746 12.2041C57.3086 11.9404 57.2256 11.6621 57.2256 11.3691H58.1338C58.1468 11.6165 58.2184 11.8135 58.3486 11.96C58.4788 12.1032 58.6383 12.2057 58.8271 12.2676C59.016 12.3262 59.2031 12.3555 59.3887 12.3555C59.6361 12.3555 59.8428 12.3229 60.0088 12.2578C60.1781 12.1927 60.3066 12.1032 60.3945 11.9893C60.4824 11.8753 60.5264 11.7451 60.5264 11.5986ZM65.6924 11.5986C65.6924 11.4684 65.6631 11.348 65.6045 11.2373C65.5492 11.1234 65.4336 11.0208 65.2578 10.9297C65.0853 10.8353 64.8249 10.7539 64.4766 10.6855C64.1836 10.6237 63.9183 10.5505 63.6807 10.4658C63.4463 10.3812 63.2461 10.2786 63.0801 10.1582C62.9173 10.0378 62.792 9.89616 62.7041 9.7334C62.6162 9.57064 62.5723 9.38021 62.5723 9.16211C62.5723 8.95378 62.6178 8.75684 62.709 8.57129C62.8034 8.38574 62.9352 8.22135 63.1045 8.07812C63.277 7.9349 63.4837 7.82259 63.7246 7.74121C63.9655 7.65983 64.234 7.61914 64.5303 7.61914C64.9535 7.61914 65.3148 7.69401 65.6143 7.84375C65.9137 7.99349 66.1432 8.19368 66.3027 8.44434C66.4622 8.69173 66.542 8.9668 66.542 9.26953H65.6387C65.6387 9.12305 65.5947 8.98145 65.5068 8.84473C65.4222 8.70475 65.2969 8.58919 65.1309 8.49805C64.9681 8.4069 64.7679 8.36133 64.5303 8.36133C64.2796 8.36133 64.0762 8.40039 63.9199 8.47852C63.7669 8.55339 63.6546 8.64941 63.583 8.7666C63.5146 8.88379 63.4805 9.00749 63.4805 9.1377C63.4805 9.23535 63.4967 9.32324 63.5293 9.40137C63.5651 9.47624 63.627 9.54622 63.7148 9.61133C63.8027 9.67318 63.9264 9.73177 64.0859 9.78711C64.2454 9.84245 64.4489 9.89779 64.6963 9.95312C65.1292 10.0508 65.4857 10.168 65.7656 10.3047C66.0456 10.4414 66.2539 10.609 66.3906 10.8076C66.5273 11.0062 66.5957 11.2471 66.5957 11.5303C66.5957 11.7614 66.5469 11.973 66.4492 12.165C66.3548 12.3571 66.2165 12.5231 66.0342 12.6631C65.8551 12.7998 65.6403 12.9072 65.3896 12.9854C65.1423 13.0602 64.8639 13.0977 64.5547 13.0977C64.0892 13.0977 63.6953 13.0146 63.373 12.8486C63.0508 12.6826 62.8066 12.4678 62.6406 12.2041C62.4746 11.9404 62.3916 11.6621 62.3916 11.3691H63.2998C63.3128 11.6165 63.3844 11.8135 63.5146 11.96C63.6449 12.1032 63.8044 12.2057 63.9932 12.2676C64.182 12.3262 64.3691 12.3555 64.5547 12.3555C64.8021 12.3555 65.0088 12.3229 65.1748 12.2578C65.3441 12.1927 65.4727 12.1032 65.5605 11.9893C65.6484 11.8753 65.6924 11.7451 65.6924 11.5986ZM68.6807 8.7666V13H67.7725V7.7168H68.6318L68.6807 8.7666ZM68.4951 10.1582L68.0752 10.1436C68.0785 9.78223 68.1257 9.44857 68.2168 9.14258C68.3079 8.83333 68.443 8.56478 68.6221 8.33691C68.8011 8.10905 69.0241 7.93327 69.291 7.80957C69.5579 7.68262 69.8672 7.61914 70.2188 7.61914C70.4661 7.61914 70.694 7.65495 70.9023 7.72656C71.1107 7.79492 71.2913 7.90397 71.4443 8.05371C71.5973 8.20345 71.7161 8.39551 71.8008 8.62988C71.8854 8.86426 71.9277 9.14746 71.9277 9.47949V13H71.0244V9.52344C71.0244 9.24674 70.9772 9.02539 70.8828 8.85938C70.7917 8.69336 70.6615 8.57292 70.4922 8.49805C70.3229 8.41992 70.1243 8.38086 69.8965 8.38086C69.6296 8.38086 69.4066 8.42806 69.2275 8.52246C69.0485 8.61686 68.9053 8.74707 68.7979 8.91309C68.6904 9.0791 68.6123 9.26953 68.5635 9.48438C68.5179 9.69596 68.4951 9.92057 68.4951 10.1582ZM71.918 9.66016L71.3125 9.8457C71.3158 9.55599 71.363 9.27767 71.4541 9.01074C71.5485 8.74382 71.6836 8.50618 71.8594 8.29785C72.0384 8.08952 72.2581 7.92513 72.5186 7.80469C72.779 7.68099 73.0768 7.61914 73.4121 7.61914C73.6953 7.61914 73.946 7.65658 74.1641 7.73145C74.3854 7.80632 74.571 7.92188 74.7207 8.07812C74.8737 8.23112 74.9893 8.42806 75.0674 8.66895C75.1455 8.90983 75.1846 9.19629 75.1846 9.52832V13H74.2764V9.51855C74.2764 9.22233 74.2292 8.99284 74.1348 8.83008C74.0436 8.66406 73.9134 8.5485 73.7441 8.4834C73.5781 8.41504 73.3796 8.38086 73.1484 8.38086C72.9499 8.38086 72.7741 8.41504 72.6211 8.4834C72.4681 8.55176 72.3395 8.64616 72.2354 8.7666C72.1312 8.88379 72.0514 9.01888 71.9961 9.17188C71.944 9.32487 71.918 9.48763 71.918 9.66016ZM78.7441 13.0977C78.3763 13.0977 78.0426 13.0358 77.7432 12.9121C77.4469 12.7852 77.1914 12.6077 76.9766 12.3799C76.765 12.152 76.6022 11.8818 76.4883 11.5693C76.3743 11.2568 76.3174 10.915 76.3174 10.5439V10.3389C76.3174 9.90918 76.3809 9.52669 76.5078 9.19141C76.6348 8.85286 76.8073 8.56641 77.0254 8.33203C77.2435 8.09766 77.4909 7.92025 77.7676 7.7998C78.0443 7.67936 78.3307 7.61914 78.627 7.61914C79.0046 7.61914 79.3301 7.68424 79.6035 7.81445C79.8802 7.94466 80.1064 8.12695 80.2822 8.36133C80.458 8.59245 80.5882 8.86589 80.6729 9.18164C80.7575 9.49414 80.7998 9.83594 80.7998 10.207V10.6123H76.8545V9.875H79.8965V9.80664C79.8835 9.57227 79.8346 9.3444 79.75 9.12305C79.6686 8.90169 79.5384 8.7194 79.3594 8.57617C79.1803 8.43294 78.9362 8.36133 78.627 8.36133C78.4219 8.36133 78.2331 8.40527 78.0605 8.49316C77.888 8.5778 77.7399 8.70475 77.6162 8.87402C77.4925 9.04329 77.3965 9.25 77.3281 9.49414C77.2598 9.73828 77.2256 10.0199 77.2256 10.3389V10.5439C77.2256 10.7946 77.2598 11.0306 77.3281 11.252C77.3997 11.4701 77.5023 11.6621 77.6357 11.8281C77.7725 11.9941 77.9368 12.1243 78.1289 12.2188C78.3242 12.3132 78.5456 12.3604 78.793 12.3604C79.112 12.3604 79.3822 12.2952 79.6035 12.165C79.8249 12.0348 80.0186 11.8607 80.1846 11.6426L80.7314 12.0771C80.6175 12.2497 80.4727 12.4141 80.2969 12.5703C80.1211 12.7266 79.9046 12.8535 79.6475 12.9512C79.3936 13.0488 79.0924 13.0977 78.7441 13.0977ZM82.7578 8.84473V13H81.8545V7.7168H82.709L82.7578 8.84473ZM82.543 10.1582L82.167 10.1436C82.1702 9.78223 82.224 9.44857 82.3281 9.14258C82.4323 8.83333 82.5788 8.56478 82.7676 8.33691C82.9564 8.10905 83.181 7.93327 83.4414 7.80957C83.7051 7.68262 83.9964 7.61914 84.3154 7.61914C84.5758 7.61914 84.8102 7.65495 85.0186 7.72656C85.2269 7.79492 85.4043 7.9056 85.5508 8.05859C85.7005 8.21159 85.8145 8.41016 85.8926 8.6543C85.9707 8.89518 86.0098 9.18978 86.0098 9.53809V13H85.1016V9.52832C85.1016 9.25163 85.0609 9.03027 84.9795 8.86426C84.8981 8.69499 84.7793 8.57292 84.623 8.49805C84.4668 8.41992 84.2747 8.38086 84.0469 8.38086C83.8223 8.38086 83.6172 8.42806 83.4316 8.52246C83.2493 8.61686 83.0915 8.74707 82.958 8.91309C82.8278 9.0791 82.7253 9.26953 82.6504 9.48438C82.5788 9.69596 82.543 9.92057 82.543 10.1582ZM89.5938 7.7168V8.41016H86.7373V7.7168H89.5938ZM87.7041 6.43262H88.6074V11.6914C88.6074 11.8704 88.6351 12.0055 88.6904 12.0967C88.7458 12.1878 88.8174 12.248 88.9053 12.2773C88.9932 12.3066 89.0876 12.3213 89.1885 12.3213C89.2633 12.3213 89.3415 12.3148 89.4229 12.3018C89.5075 12.2855 89.571 12.2725 89.6133 12.2627L89.6182 13C89.5465 13.0228 89.4521 13.0439 89.335 13.0635C89.221 13.0863 89.0827 13.0977 88.9199 13.0977C88.6986 13.0977 88.4951 13.0537 88.3096 12.9658C88.124 12.8779 87.9759 12.7314 87.8652 12.5264C87.7578 12.318 87.7041 12.0381 87.7041 11.6865V6.43262Z" fill="white"/>
</svg>
