<svg width="70" height="83" viewBox="0 0 70 83" fill="none" xmlns="http://www.w3.org/2000/svg">
<path d="M33.3589 0.118752C32.0213 0.441315 31.111 1.06852 28.7701 3.23688C26.225 5.58443 24.4601 6.94637 22.1193 8.34415C17.6048 11.0501 12.8861 12.645 7.33128 13.3618C3.37419 13.8457 1.79507 14.7417 0.587507 17.1072L0.0673264 18.1286L0.0115928 25.2967C-0.0441408 32.8232 0.0859043 35.5113 0.73613 39.3641C3.24414 54.1842 11.2698 67.4273 23.494 76.9071C25.8348 78.735 30.0334 81.4409 31.8727 82.319C33.1917 82.9462 33.4332 83 34.9009 83C36.3685 83 36.61 82.9462 37.8919 82.337C42.5735 80.0969 49.5402 74.7567 53.8131 70.1153C62.6748 60.528 67.9137 49.3099 69.5486 36.4969C69.9573 33.4325 70.1617 20.2253 69.8458 18.7917C69.5486 17.4476 68.9541 16.3366 68.0252 15.4227C66.8548 14.2399 65.6658 13.7919 62.9534 13.4694C58.4204 12.9138 54.4819 11.8028 50.7106 9.99282C46.9207 8.18287 44.4685 6.48045 40.9944 3.21896C38.282 0.656357 37.2788 0.10083 35.291 0.0112305C34.6222 -0.0246124 33.749 0.0291443 33.3589 0.118752ZM36.7586 7.21518C43.3352 13.6306 52.0297 17.824 61.2814 19.0246C62.5633 19.1859 63.7151 19.4189 63.8452 19.5264C64.0495 19.6877 64.0681 20.9242 63.9752 26.1748C63.8452 33.1816 63.678 35.6367 63.1392 38.8265C60.6312 53.109 52.4012 65.8324 40.1955 74.237C39.0623 75.0255 37.446 76.0469 36.5914 76.5308C34.7708 77.5702 34.9566 77.5881 32.2999 76.0111C18.9796 68.0366 9.30053 54.1484 6.66247 39.2029C5.97509 35.3679 5.90078 34.1135 5.78931 26.9096C5.69642 20.8704 5.73358 19.7056 5.95651 19.5264C6.08656 19.401 6.95972 19.2218 7.87004 19.1142C10.6939 18.7917 13.3134 18.2182 16.1372 17.3222C22.3794 15.351 27.6555 12.2508 32.3928 7.78863C33.619 6.62381 34.7522 5.67403 34.9009 5.67403C35.0681 5.67403 35.9041 6.37292 36.7586 7.21518Z" fill="#E3EDE9"/>
<path d="M48.556 29.615C48.2588 29.7584 44.0416 33.6829 39.2299 38.3422L30.4426 46.8006L26.0396 42.5535C23.6059 40.2238 21.3766 38.2168 21.0979 38.1272C20.8007 38.0197 20.2062 37.9301 19.7789 37.9301C17.5495 37.9301 16.1933 40.5643 17.4938 42.3564C17.7539 42.7327 20.4291 45.3849 23.4201 48.27C29.4208 54.0225 29.5508 54.1121 31.2414 53.6999C31.9288 53.5207 33.0992 52.4634 42.0723 43.79C47.59 38.4497 52.253 33.8442 52.4388 33.5754C52.9032 32.9124 52.8847 31.4967 52.4202 30.7261C51.6585 29.4538 49.8936 28.9341 48.556 29.615Z" fill="#E3EDE9"/>
</svg>
